<?xml version="1.0" encoding="UTF-8"?><svg id="Layer_1" xmlns="http://www.w3.org/2000/svg" viewBox="0 0 600 600"><defs><style>.cls-1,.cls-2{fill:#006289;}.cls-3{fill:#429bbb;}.cls-3,.cls-2{fill-rule:evenodd;}</style></defs><path class="cls-2" d="m87.89,425.41v-5.19h.86c3.84,0,6.79-.82,8.83-2.45,2.04-1.63,4.12-5.33,6.23-11.1l10.01-27.31c4.27-11.58,7.95-22.11,11.02-31.6,3.07-9.49,5.21-16.85,6.41-22.08l9.73-7.71h1.59c.62,1.68,1.33,3.59,2.12,5.73.79,2.14,1.72,4.5,2.77,7.1l32.5,80.12c1.3,3.27,2.46,5.46,3.49,6.59,1.03,1.13,2.27,1.79,3.71,1.98l5.91.86v5.04h-4.18c-2.35,0-5.56-.07-9.62-.22-4.06-.14-6.93-.22-8.61-.22-.96,0-3.27.07-6.92.22-3.65.14-6.87.22-9.65.22h-4.54v-5.04l5.33-.43c1.92-.14,3.45-.78,4.58-1.91,1.13-1.13,1.69-2.61,1.69-4.43,0-.48-.05-.98-.14-1.51-.1-.53-.29-1.2-.58-2.02l-9.29-22.7h-32.71l-6.41,18.88c-.58,1.73-.99,3.12-1.23,4.18s-.36,1.92-.36,2.59c0,2.59.79,4.41,2.38,5.44,1.59,1.03,4.92,1.74,10.01,2.12v4.83h-2.81c-2.64,0-5.91-.07-9.8-.22-3.89-.14-6.44-.22-7.64-.22-.91,0-3.01.07-6.3.22-3.29.14-6.09.22-8.39.22m32.86-44.24h27.45l-15.06-37.68c-.82,3.07-1.78,6.33-2.88,9.76-1.1,3.43-2.55,7.67-4.32,12.72l-5.19,15.2Z"/><path class="cls-2" d="m229.4,311.21l1.15.43c-.19,3.41-.34,6.57-.43,9.48-.1,2.91-.14,5.3-.14,7.17v79.83c0,5.86.57,9.42,1.69,10.66,1.13,1.25,3.37,1.87,6.74,1.87h.58v4.76c-.53,0-1.27-.02-2.23-.07-5.04-.14-8.53-.22-10.45-.22-2.31,0-5.74.07-10.3.22-4.56.14-7.97.22-10.23.22h-2.52l.07-4.76c3.89-.19,6.46-.86,7.71-2.02,1.25-1.15,1.87-3.41,1.87-6.77v-79.98c0-2.59-.48-4.38-1.44-5.37-.96-.99-2.91-2.01-5.84-3.06v-3.82c2.98-.91,6.5-2.09,10.56-3.53,4.06-1.44,8.47-3.12,13.22-5.04"/><path class="cls-2" d="m249.07,463.45v-4.11c3.22-.67,5.37-1.62,6.45-2.85,1.08-1.23,1.62-4.12,1.62-8.68v-70.25c0-2.21-.42-3.88-1.26-5.01-.84-1.13-2.58-2.34-5.22-3.64v-2.95c2.59-.91,5.79-2.18,9.58-3.82,3.79-1.63,8.24-3.67,13.33-6.12v12.25l10.88-7.35c2.21-1.54,4.12-2.58,5.73-3.14,1.61-.55,3.35-.83,5.22-.83,7.16,0,13.17,3.05,18.05,9.15,4.88,6.1,7.31,13.76,7.31,22.99,0,4.95-.67,9.46-2.02,13.54-1.35,4.08-3.39,7.78-6.12,11.1-3.41,4.13-7.39,7.35-11.92,9.65s-9.16,3.46-13.87,3.46c-1.25,0-3.91-.05-8-.15-2.21-.05-3.96-.1-5.26-.14v21.98c0,3.94.67,6.56,2.02,7.85,1.35,1.3,4.15,2.09,8.43,2.38v4.4h-1.66c-5.33-.19-9.1-.29-11.31-.29-1.97,0-5.38.1-10.23.29-4.85.19-8.77.29-11.74.29m24.5-90.71v40.13c1.68,2.59,3.71,4.56,6.09,5.91,2.38,1.35,4.96,2.02,7.75,2.02,5.24,0,9.25-2.09,12.03-6.27,2.79-4.18,4.18-10.18,4.18-18.01,0-8.36-1.69-15.02-5.08-19.99-3.39-4.97-7.89-7.46-13.51-7.46-1.68,0-3.46.3-5.33.9-1.87.6-3.91,1.52-6.12,2.77Z"/><path class="cls-2" d="m358.08,413.3c0,3.17.48,5.17,1.44,6.02.96.84,3.19,1.36,6.7,1.55v4.68c-1.15-.05-3.12-.13-5.91-.25-2.79-.12-4.9-.18-6.34-.18-1.87,0-4.72.07-8.54.22-3.82.14-6.69.22-8.61.22-.48,0-1.21-.02-2.2-.07-.99-.05-1.72-.07-2.2-.07v-4.76h1.3c2.93,0,4.88-.58,5.84-1.73.96-1.15,1.44-3.63,1.44-7.42v-34.08c0-1.87-.24-3.23-.72-4.07-.48-.84-1.32-1.55-2.52-2.12l-4.47-1.87v-3.24c2.88-.82,6.2-1.98,9.94-3.49,3.75-1.51,7.9-3.4,12.46-5.66h2.38v56.34m-19.31-85.31c0-3.12.98-5.69,2.95-7.71,1.97-2.02,4.47-3.03,7.49-3.03s5.76,1,7.78,2.99c2.02,1.99,3.03,4.58,3.03,7.75s-1.02,5.51-3.06,7.46c-2.04,1.95-4.62,2.92-7.75,2.92-2.93,0-5.4-1.01-7.42-3.03-2.02-2.02-3.03-4.47-3.03-7.35Z"/><path class="cls-2" d="m376.67,425.55l.07-4.75c3.65-.24,6.16-.82,7.53-1.73,1.37-.91,2.05-2.45,2.05-4.61v-36.75c0-2.35-.48-4.06-1.44-5.12-.96-1.06-3-2.14-6.12-3.24v-3.68c2.98-.77,6.32-1.93,10.01-3.49,3.7-1.56,8-3.66,12.9-6.3l1.44.79c-.14,1.25-.25,2.52-.32,3.82s-.11,2.67-.11,4.11v4.61c5.67-4.37,10.51-7.48,14.52-9.33,4.01-1.85,7.77-2.77,11.28-2.77,5.62,0,10.1,1.73,13.44,5.19,3.34,3.46,5.01,8.12,5.01,13.98v33.65c0,4.61.6,7.52,1.8,8.72,1.2,1.2,3.6,1.85,7.2,1.95v4.83c-1.1-.05-3.06-.13-5.87-.25-2.81-.12-4.94-.18-6.38-.18-2.16,0-5.64.1-10.45.29-4.8.19-8.55.29-11.24.29v-4.75c3.8-.29,6.17-.81,7.13-1.55.96-.74,1.44-2.34,1.44-4.79v-35.09c0-3.51-1.07-6.23-3.21-8.18-2.14-1.95-5.15-2.92-9.04-2.92-2.4,0-4.85.53-7.35,1.58-2.5,1.06-5.26,2.76-8.29,5.12v34.8c0,4.85.6,7.88,1.8,9.08,1.2,1.2,3.6,1.8,7.21,1.8v4.76c-.58,0-1.44-.02-2.59-.07-4.75-.14-8.07-.22-9.94-.22-2.26,0-5.61.07-10.05.22-4.44.14-7.75.22-9.91.22h-2.52"/><path class="cls-2" d="m517.06,409.05c-2.83,6.05-6.5,10.62-10.99,13.69-4.49,3.07-9.79,4.61-15.89,4.61-8.07,0-14.66-3.03-19.78-9.08-5.12-6.05-7.67-13.91-7.67-23.56,0-10.95,2.99-20.01,8.97-27.16,5.98-7.16,13.46-10.73,22.44-10.73,7.06,0,12.65,2.08,16.75,6.23s6.16,9.83,6.16,17.04c0,.43-.02.96-.07,1.59-.05.62-.12,1.51-.22,2.67l-39.84.07v1.87c0,8.17,2.14,14.66,6.41,19.49,4.27,4.83,9.99,7.24,17.15,7.24,2.5,0,4.88-.54,7.13-1.62,2.26-1.08,4.32-2.65,6.2-4.72l3.24,2.38m-39.56-29.54h9.73c6.34,0,10.27-.43,11.78-1.3,1.51-.86,2.27-2.55,2.27-5.04,0-3.07-1.02-5.72-3.06-7.93-2.04-2.21-4.48-3.31-7.31-3.31-3.51,0-6.46,1.56-8.86,4.68-2.4,3.12-3.91,7.42-4.54,12.9Z"/><path class="cls-3" d="m354.46,496.31c-2.72,1.2-5.59,2.09-8.6,2.68-3.01.59-6.17.88-9.5.88-9.57,0-17.23-2.53-22.98-7.59-5.76-5.06-8.64-11.77-8.64-20.14,0-3.92.68-7.52,2.04-10.79,1.36-3.27,3.37-6.14,6.01-8.62,2.95-2.7,6.35-4.73,10.21-6.09,3.86-1.36,8.16-2.04,12.91-2.04,3.12,0,6.16.34,9.1,1.01,2.95.67,5.87,1.7,8.77,3.07.17,1.3.48,3.2.92,5.71.44,2.51.67,4.25.69,5.23l-2.85.34c-1.3-3.82-3.42-6.8-6.37-8.93-2.95-2.14-6.39-3.2-10.34-3.2-5.74,0-10.45,2.22-14.12,6.67-3.67,4.44-5.51,10.15-5.51,17.12s2.03,13.16,6.11,17.74c4.07,4.58,9.32,6.88,15.73,6.88,4.02,0,7.29-.92,9.82-2.77,2.52-1.85,4.6-4.83,6.22-8.95l2.92.67c-.25,1.35-.69,3.25-1.33,5.71-.64,2.46-1.04,4.26-1.22,5.41"/><path class="cls-3" d="m364.68,499.53v-2.88l2.77-.34c1.47-.18,2.49-.72,3.05-1.65.56-.92.84-2.82.84-5.69v-34.39c0-2.6-.42-4.3-1.26-5.11-.84-.81-2.52-1.26-5.04-1.33v-2.58h1.61c1.6,0,3.48.04,5.64.11,2.16.08,3.53.11,4.1.11.75,0,2.1-.04,4.05-.11s3.55-.11,4.8-.11c.82,0,1.47,0,1.93.02.46.01.89.03,1.29.06v2.66c-2.8,0-4.66.39-5.6,1.16-.94.77-1.4,2.29-1.4,4.53v33.38c0,3.2.59,5.35,1.76,6.46,1.17,1.11,3.43,1.67,6.78,1.67,4.12,0,7.02-.31,8.69-.94,1.67-.62,3-1.72,3.97-3.3l2.66-4.2,3,.9c-.6,1.62-1.18,3.37-1.74,5.24-.56,1.87-1.11,3.86-1.63,5.96-1.47-.02-3.51-.07-6.11-.15-6.77-.15-10.67-.23-11.69-.23-3.37,0-6.94.06-10.71.19-3.77.12-7.69.31-11.76.56"/><path class="cls-3" d="m408.87,447.98v-2.55h1.91c1.35,0,3.11.06,5.28.17s3.66.17,4.46.17c.85,0,2.55-.07,5.11-.21,2.56-.14,4.69-.21,6.39-.21h1.16l-.04,2.55c-2.82.07-4.69.51-5.6,1.31-.91.8-1.37,2.54-1.37,5.21v22.4c0,4.27.14,7.26.41,8.95.28,1.7.74,3.06,1.39,4.08,1.12,1.77,2.76,3.15,4.91,4.14,2.15.99,4.6,1.48,7.34,1.48,5.54,0,9.71-1.47,12.49-4.4s4.18-7.32,4.18-13.17v-21.09c0-3.8-.45-6.19-1.35-7.17-.9-.99-2.77-1.57-5.62-1.74l-.04-2.55h1.09c1.3,0,2.89.07,4.78.21,1.89.14,3.13.21,3.73.21.48,0,1.49-.04,3.05-.11,1.56-.07,2.88-.11,3.95-.11h1.54l-.04,2.59c-1.62.12-2.9.31-3.84.56-.94.25-1.59.57-1.97.97-.38.42-.64,1.17-.79,2.25s-.23,2.81-.23,5.21v16.41c0,5.82-.31,10-.92,12.55-.61,2.55-1.65,4.76-3.13,6.63-2,2.57-4.64,4.51-7.92,5.81-3.29,1.3-7.2,1.95-11.74,1.95-7.24,0-12.67-1.54-16.28-4.61-3.61-3.07-5.41-7.71-5.41-13.9,0-.6.08-3.66.23-9.2.15-5.53.23-10.75.23-15.64v-.79c0-3.77-.48-6.07-1.44-6.91-.96-.84-2.93-1.32-5.9-1.44"/><path class="cls-3" d="m490.86,471.1v15.77c0,3.37.57,5.73,1.72,7.06,1.15,1.34,3.14,2,5.96,2,3.2,0,5.66-1,7.38-3,1.72-2,2.58-4.86,2.58-8.58,0-4.42-1.22-7.76-3.65-10-2.44-2.25-6.05-3.37-10.85-3.37-.38,0-.91.02-1.61.06-.7.04-1.21.06-1.54.06m0-3.03c.27.05.56.08.84.09.29.01.72.02,1.29.02,4,0,6.99-.9,8.99-2.7,2-1.8,3-4.48,3-8.05,0-2.75-.79-4.99-2.36-6.74-1.57-1.75-3.58-2.62-6.03-2.62-1.95,0-3.39.46-4.33,1.37-.94.91-1.4,2.33-1.4,4.25v14.39Zm-16.56,30.79l-.04-2.77h.64c2.25,0,3.9-.46,4.95-1.37,1.05-.91,1.57-2.34,1.57-4.29v-35.85c0-2.22-.49-3.78-1.46-4.68-.97-.9-2.83-1.49-5.58-1.76v-2.58c1.42,0,3.33.02,5.73.08,2.4.05,4.06.07,4.98.07,1.3,0,3.35-.07,6.16-.21,2.81-.14,4.98-.21,6.5-.21,5.64,0,9.97,1.04,12.98,3.11,3.01,2.07,4.52,5.06,4.52,8.95,0,3.32-1.19,5.94-3.56,7.85-2.37,1.91-5.97,3.13-10.79,3.65v.45c6.02.5,10.53,1.92,13.53,4.27,3,2.35,4.49,5.63,4.49,9.85,0,4.9-1.64,8.73-4.93,11.5-3.28,2.77-7.82,4.16-13.62,4.16-1.2,0-3.23-.06-6.11-.19-2.87-.12-5.13-.19-6.78-.19-.82,0-2.32.04-4.49.11-2.17.07-3.92.11-5.24.11-.92,0-1.62,0-2.1-.02-.48-.01-.92-.03-1.35-.06Z"/><path class="cls-2" d="m360.71,213.92v-.92c.98-.12,1.63-.34,1.96-.68.33-.34.5-.94.5-1.82v-14.9c-.46.38-.97.76-1.53,1.14-.56.37-1.19.75-1.89,1.12l-.54-1.03c.93-.57,1.85-1.22,2.75-1.96.9-.73,1.78-1.55,2.64-2.44h2.1v18.12c0,.95.14,1.57.41,1.83.27.26.83.4,1.66.4h.36v.97c-.27.01-.6.02-.99.04-.39.02-.63.02-.71.02-1.8,0-3.68.03-5.64.08-.48.01-.77.02-.89.02h-.2"/><path class="cls-2" d="m383.47,203.9c-1.32-.82-2.29-1.69-2.92-2.62-.63-.93-.94-1.96-.94-3.1,0-1.6.59-2.96,1.75-4.08,1.17-1.12,2.58-1.68,4.25-1.68s2.89.47,3.94,1.42c1.04.95,1.57,2.13,1.57,3.55,0,.88-.3,1.69-.91,2.43-.61.74-1.54,1.43-2.8,2.07,1.45,1.04,2.52,2.09,3.19,3.15.68,1.06,1.01,2.2,1.01,3.43,0,1.67-.6,3.05-1.78,4.14-1.19,1.09-2.71,1.64-4.56,1.64s-3.23-.48-4.39-1.44c-1.16-.96-1.74-2.15-1.74-3.58,0-1.05.35-2.01,1.06-2.88.71-.87,1.8-1.68,3.27-2.45m.93.58c-.81.48-1.41,1.09-1.81,1.82-.39.74-.59,1.61-.59,2.62,0,1.18.31,2.17.93,2.96.62.79,1.4,1.18,2.32,1.18s1.62-.3,2.18-.9.84-1.39.84-2.35-.32-1.9-.95-2.77c-.63-.87-1.61-1.72-2.93-2.56Zm2.14-3.16c.66-.45,1.16-.98,1.47-1.59.32-.61.48-1.35.48-2.21,0-1.15-.29-2.09-.86-2.81-.57-.72-1.31-1.08-2.21-1.08-.79,0-1.42.26-1.9.77-.48.51-.72,1.2-.72,2.07s.3,1.71.89,2.48c.59.77,1.54,1.56,2.85,2.36Z"/><path class="cls-2" d="m400.5,203.29c.29-1.64.56-3.33.8-5.08.24-1.75.47-3.55.68-5.42h9.18v.3l-1.21,2.84c-.34.03-.73.05-1.15.07-.42.02-1.05.02-1.88.02-.28,0-.68,0-1.21-.02-.53,0-.91-.02-1.15-.02-.18,0-.37,0-.58.02-.21.01-.52.03-.91.06l-.59,3.94c.51-.09.99-.16,1.43-.21.45-.05.87-.07,1.26-.07,2.18,0,3.95.62,5.31,1.87,1.36,1.25,2.03,2.87,2.03,4.86,0,.99-.21,1.93-.65,2.83-.43.9-1.05,1.7-1.86,2.41-.93.78-2.01,1.4-3.21,1.86-1.21.46-2.38.69-3.54.69-1.31,0-2.33-.2-3.07-.58-.74-.39-1.11-.93-1.11-1.63,0-.47.17-.85.51-1.16.34-.31.77-.46,1.28-.46.19,0,.39.05.62.15.22.1.43.24.63.42.11.1.27.26.47.47.73.75,1.37,1.12,1.92,1.12,1.2,0,2.19-.47,2.98-1.41.79-.94,1.18-2.14,1.18-3.59s-.38-2.59-1.15-3.44c-.76-.85-1.79-1.27-3.08-1.27-.54,0-1.04.08-1.5.23-.46.15-.89.38-1.31.68l-1.12-.48"/><path class="cls-2" d="m423.08,214.59l-1.82-.79,8.32-15.21.09-.17c.44-.8.65-1.31.65-1.54,0-.21-.07-.35-.22-.42-.14-.07-.51-.11-1.09-.11h-.33c-.43,0-1.17.02-2.24.05-1.07.03-1.93.05-2.57.05-.44,0-1.22-.02-2.35-.06h-.39l1.25-3.47c.24-.02.55-.03.93-.04s1.1,0,2.17,0c.65,0,1.52,0,2.59.02,1.07.01,1.81.02,2.23.02s1.07-.01,2.03-.04c.96-.03,1.69-.04,2.21-.05v1.03c-1.14,1.85-2.38,4.04-3.73,6.56-.24.46-.41.78-.51.97l-7.21,13.25"/><path class="cls-2" d="m161.32,274.92c-.25,1.57-3.2,5.73-4.68,6.05.08-2.51,1.65-5.69,4.68-6.05"/><path class="cls-2" d="m170.84,277.19c2.81.06-2.02,5.56-2.09,7.26-.28.8-1.3,1.25-1.94.66-.7-.65-2.15.08-2.23-1.05,1.62-2.41,3.15-5.93,6.25-6.87"/><path class="cls-1" d="m296.8,101.41c3.72-.37,10.16,13.95,11.35,17.83,2.13,6.94,5.75,8.92,6.31,16.09,1.84,1.53,3.72,8.07,6.82,15.13,1.85,4.22,3.51,8.87,3.69,13.51,2.19,10.02-6.13-6.87-20.84,20.14-.32-.42.29.69-.07,1.61-7.9-5.09-10.91-14.09-15.9-21.31-.43-.4-1.17-.61-1.48-1-.09-1.82,2.01-.62,2.56-1.49-2.61-3.06-4.49-6.82-6.37-10.28-1.71-2.11-2.98-6.85-5.49-7.71-2.52-.25-6.33-3.62-6.68-1.24-6.04,8.54-9.71,28.27-18.52,31.52,1.54-4.12-3.32-.34-5.03-1.21-2.21,1.93-4.22,8.72-6.61,8.88,1.02-5.1,5.22-9.61,6.51-14.89.09-.28.37-.69.11-.76-2.85-.59-3.13,4.25-5.56,3-2.91-.12-5.29,2.26-1.25,3.3.42,1.28.12,3.05-1.29,3.56-2.34.77-3.34,3.08-4.93,4.76-2.34-.67-.28-3.74-1.78-4.86-2.67,1.91.05,7.8-1.81,7.07-1.59-2.1-3.69.45-3.92,2.15-.13,2.18,3.37,1.62,2.97,3.93-3.03.19-8.49.14-8.97,3.95.01,5.51-1.68-.12-1.84-1.89-1.08-3.52-1.43,2.58-2.58,1.58-.59-.51-1.42-1.19-2.09.17-1.36,2.8-1.33,8.84-3.4,12.57-.33.6-.57,1.26,0,1.93,1.18,4.29-3.2-1.94-3.99-2.64-1.02-.25-2.4,1.9-2.32,2.94-.26,1.48,1.15,2.33,1.37,3.74.52.6-.25,5.03-1.07,3.21-1.05-11.62-15.75,15.7-19.65,18.16-5.79,5.5-16.91,28.11-6.6,18.51,1.53-1.42,7.37-11.1,8.77-8.61-4.73,12.99-16.43,13.7-22.19,26.21-.09.68-2.62,1.36-1.8.97,1.26-3.48,9.54-11.77,3-9.8-5.2,1.57-5.95,6.89-8.67,11.56-4.4,8.06-11.74,15.56-20.33,19.7-3.69,1.39-4.66,6.69-8.56,8.38-.5.25-.67.71-.86,1.22-4.7,14.97-19.38,15.57-28.47,27.53-.31.41-1.26-.13-.79-.6,5.42-24.23,60.46-86.94,69.6-103.99,15.03-28.02,68.57-100.09,92.72-120.88,1.23-1.05,2.67-1.81,4.28-1.63l31.65-.03Z"/><path class="cls-1" d="m354.31,233.86c-4.63-1.89-2.77-3.63-2.67-7.52-11.53-4.5-8.12-20.94-17-28.5-1.7-3.44.86-17.82-5.29-14.27-1.39.52-.31-3.84-1.24-4.74.26.46-.62.46-.8.3-.15-.14.03-.76-.28-.82-1.12.51-3.25,1.14-3.66,2.4,4.01,2.8-19.43,12.44-12.23,28-.09,3.23,2.67,1.5,4.42,3.4,1.45.77,2.05,2.72,3.48,3.1.7-1.2,1.84,1.33,2.28,2.08,9.46,7.77,21.27,13.72,32.04,19.36-1.9-1.53,2.74-1.39.95-2.79Z"/><path class="cls-1" d="m380.92,310.31c-2.38-6.2-3.94-11.39-3.77-11.53.66-1.09.95-2.6,1.2-3.79-.28-.75-1.62-.02-2.46.85-3.22-2.44-1.84-5.85-4.92-8.54,2.11-1.1.06-1,.38-2.9-.23-.97.33-2.69-.2-3.22-.93-.14-3.1,1.86-2.95-.26.95-1.51-.88-1.84-1.78-1.92-6.39-.55.57-2.2-1.51-4.33-1.11-1.14-2.08-2.35-3.57-2.43-1.32.04,1.51,2.23.13,2.42-2.55.54-3.98-2.69-1.36-3.48.65-.35,3.04-.86,2.83-1.43-1.41-1.14-3.26.44-4.68.49-1.01,0-2.82-1.3-2.41.56.44,1.97-1.51,1.51-2.17.44-2.21-3.29-6.65-4.95-9.49-7.04-.52.75.03,1.79-1.11,1.77,9.36,17.68,14.58,27.05,26.7,43.18,2.48,3.31,11.42,4.89,11.14,1.16Z"/><path class="cls-2" d="m91.49,336.27c3.54,1.2,1.26,5.74-1.41,6.54-2.33.21-1.8-2.6-2.15-4.45-.2-1.05.48-2.09,1.53-2.3.71-.14,1.49-.09,2.04.22"/><path class="cls-2" d="m80.63,347.4c1.48-.73,2.03.33,2.82.54.88.24,1.53.99,1.44,1.9-.2,1.85-.9,5.05-2.83,5.05-4.36-.01-4.14-4.49-1.42-7.49"/><path class="cls-2" d="m77.09,367.23c-3.37,1.66-4.44-1.94-2.63-4.46.87-1.21,2.81-.73,3.27.68.18.53.34,1.09.45,1.62.19.88-.29,1.77-1.09,2.16Z"/><path class="cls-3" d="m304.12,185.77c-.08.11-.16.21-.25.32.11-.09.14-.42.25-.32Z"/><path class="cls-3" d="m353.36,236.65c.24.15.53.23.83.29-.3-.02-.6-.07-.83-.29Z"/><path class="cls-3" d="m526.31,273.58c-10.18,1.24-10.79,2.84-16.89-6.57-.41-.53-.87.09-.51.62,2.32,3.05-1.82,3.8-3.82,2.46-1.03-.45-1.72.8-2.54.72-.77-.86,1.3-5.67-.95-4.33-2.05,1.04-3.65-1.03-5.32-1.98-.93.19-.73,2.43-1.64,3.14-2.17-.34-4.73-3.14-5.55-5.36-.15-.62-.78.29-.54,1.02.35,1.69-1.91-.08-2.71.18-1.95-.72-5.48-.28-6.24-2.73-.09-.6.63-1.85-.04-1.59-.66.54-2.99,2.17-3.05.32.05-.93.42-3.19-1.02-2.76-1.36.53-6.39,1.07-5.68-1.28,1.96-1.72,4.02-4.64-.67-3.8-6.39-.08-4.01,14.18-11.58,10.7.51-3.8-1.7.54-3.05-.02-.89-.67-1.63-2.67-2.64-2.66-3.9,5.09-10.17,1.56-15.2.53-5.65-1.31-8.73,1.78-13.5-3.34-7.41-4.49-2.86,2.48-6.01,1.04-6.18-4.97-15.14-7.6-18.59-15.39-.13-1.63-2.06-1.23-2.23-.09,4.14,3.19-3.08,3.77-5.02,1.89-2.08-1.35-2.47-6.03-5.39-5.46-1.9,1.05,4.14,3.15.99,3.81-3.98-3.04-7.8,2.33-11.95.37-.86-.32-2.23-.61-1.73-1.85-10.61-1.41-21.18-4.4-30.42-10.11-7.97-4.42-17.14-8.83-22.69-15.77-.14-.57-1.54-.59-1,.08,1.63,2.64-5.12-2.77-5.32-2.32-.1,1.51-.57,2.16-2.15,1.61-.83-.37-3.42-2.29-.98-1.83.77.41,2.53,1.84,1.46-.11-1.1-1.34-3.64-2.15-3.52-4.32,1.5-1.28.68-1.5.31-3.15-.27-.94.09-3.81.82-2.61,1.15-12.51,16.9-19.43,13.62-21.95,2.51-3.29,27.55-11.62,38.27-22.18-9.74.35-23.34-.35-30.85,7.82-1.91-.54-3.9,1.36-5.57.88-4.19,1.41-4.53-1.37-10.2,2.87-5.38,3.09-10.78,13.9-12.29,16.2-1.03,1.57-1.37,2.06-2.59,2-1.87,10.02-6.56,20.12-4.11,30.49-.09,1.56-1.7,1.01-2.79,1.34-1.09,2.38,5.3-1.89,5.23.85-.11,1.11-5.03,2.02-3,2.99,2.96.69,2.39,5.73,6.02,5.78,1.35.82-1.85,1.66.79,2.37.38,1.25-5.02,1.73-1.77,2.81,1.64,1,1.27,3.62,1.49,5.28.55,3.75,2.05-4.04,4.55-1.93,2.1,1.01.24,2.45.86,2.99,1.04-.49,2.24-1.38,3.5-1.3,5.24.67-4.06,2.69-1.29,3.98,1.52.32,2.54,1.41,3.41,2.55,3.06,2.32,1.74-2.4,4.74.9,1.35,2.66,2.49,2.33,5.65,5.82.78.87,7.97,2.07,10.97,6.15,1.86,2.52,7.05,5.08,9.27,6.42.4-.09.06-1.26.51-1.6,2.84,2.08,7.28,3.76,9.49,7.03.66,1.08,2.61,1.54,2.17-.44-.41-1.85,1.4-.55,2.41-.56.96,0,2.08-.77,3.12-.88,4.79.59-2.98,1.42-2.71,3.35.02,1.38,1.3,2.16,2.8,1.95,1.38-.19-1.46-2.38-.13-2.42.68-.02,1.08.43,1.58.84.51,1.05,2.93,1.92,1.95,3.06-2.85,2.24-1.24,2.8,1.54,2.87.8.42,2.74.4,1.78,1.92.04,2.68,3.03-.75,4.09-.37,4.5-1.46,10.11.68,14.92-.04,2.09-.66,1.44.73,1.04,1.99.6,1.1,3.24-1.03,4.66-.21,3.41.54,7.04,1.23,10.11-.46.23.07.08.46.31.64,2.52.01,7.89-5.95,8.36-.64-.69,2.75,3.5,1.19,5.16,1.76,17.79,3.98,4.89-.96,20.18-1.99,19.74,3.41,78.9,7.21,89.29-8.01Z"/><path class="cls-3" d="m369.28,155.32c.08,1.94,2.54,1.42,3.28.18.42-1.14-.98-1.26-1.81-1.69-.47-.24-1.06-.04-1.3.45-.17.34-.25.74-.18,1.05"/><path class="cls-3" d="m379.34,150.82c-.55.64-.13,1.07-.13,1.49,0,.48.26.91.7.98.9.15,2.51.24,2.78-.74.6-2.19-1.55-2.7-3.34-1.74"/><path class="cls-3" d="m390.06,151.22c1.25-1.47-.3-2.5-1.74-1.93-.69.27-.74,1.31-.13,1.74.23.16.47.32.7.45.39.21.87.1,1.17-.25Z"/></svg>