<svg xmlns="http://www.w3.org/2000/svg" width="135" height="32" viewBox="0 0 135 32" fill="none">
  <path fill-rule="evenodd" clip-rule="evenodd"
    d="M39.3692 0.465681V31.5351H55.1603C61.7276 31.5351 66.0595 28.0877 66.0595 22.8706C66.0595 19.4242 64.4291 17.2345 60.5632 15.6047V15.3715C63.4042 14.1606 64.5693 12.2507 64.5693 8.80348C64.5693 7.08049 63.9635 5.31018 62.8924 3.91265C61.1219 1.58367 57.9079 0.465681 52.9241 0.465681H39.3692ZM49.8033 24.0357V18.9578H52.2718C54.2745 18.9578 55.5326 19.9364 55.5326 21.4733C55.5326 23.1039 54.3214 24.0357 52.0854 24.0357H49.8033ZM49.8033 12.3907V7.91862H51.5729C53.4827 7.91862 54.3214 8.57093 54.3214 10.0615C54.3214 11.5056 53.2966 12.3907 51.6199 12.3907H49.8033ZM0 0.465681H30.876V16.6446L24.338 7.86719L16.3734 18.8982L12.5523 14.2064L0 31.5351V0.465681ZM67.647 31.5351H78.5934L80.1307 16.9555C80.1776 16.4427 80.1776 16.0241 80.1776 14.5328H80.503C80.6904 16.3036 80.8294 17.0482 81.109 17.8869L85.2546 31.5352H91.8689L96.4805 17.1414C96.6664 16.676 96.76 16.1638 97.086 14.5329C97.3192 15.8841 97.3192 16.4896 97.4582 17.6074L98.8565 31.5352H109.709L104.632 0.465763H93.1267L89.4934 13.1824C89.1211 14.3935 89.0275 15.0922 88.8879 16.7691H88.6088C88.3288 14.906 88.1897 14.0674 87.9102 13.1824L84.2764 0.465763H72.6777L67.6471 31.5352L67.647 31.5351ZM134.42 19.1441C132.092 21.2411 130.368 22.0324 127.946 22.0324C124.499 22.0324 121.704 19.2842 121.704 15.9304C121.704 12.5766 124.406 9.92147 127.853 9.92147C129.996 9.92147 131.905 10.8534 134.42 13.0425L134.095 1.21115C131.905 0.419267 129.157 0 126.501 0C117.372 0 110.292 7.1269 110.292 16.2567C110.292 25.107 117.232 32 126.129 32C129.017 32 132.371 31.4877 134.095 30.7432L134.42 19.1441Z"
    fill="#CD1719"></path>
</svg>