<svg version="1.1" xmlns="http://www.w3.org/2000/svg" xmlns:xlink="http://www.w3.org/1999/xlink" viewBox="0 0 680 108"
	xml:space="preserve" fill="#0075be" class="overflow-hidden">
	<path
		d="M 53.4 30.6 L 53.4 30.6 v 21.3 h -7.7 V 47 v -16.4 v 0 h 0 c 0 -7.5 -6.1 -13.5 -13.5 -13.5 c -7.5 0 -13.5 6.1 -13.5 13.5 h 0 v 0 V 47 v 13.6 V 77 v 0 h 0 c 0 0 0 0 0 0 c 0 7.5 6.1 13.5 13.5 13.5 c 7.5 0 13.5 -6.1 13.5 -13.5 c 0 0 0 0 0 0 h 0 v 0 v -16.4 v -4.9 h 7.7 V 77 l 0 0 c 0 0 0 0 0 0 c 0 11.7 -9.5 21.3 -21.3 21.3 c -11.7 0 -21.3 -9.5 -21.3 -21.3 c 0 0 0 0 0 0 h 0 v -46.4 l 0 0 v 0 c 0 -11.7 9.5 -21.3 21.3 -21.3 C 43.9 9.3 53.4 18.9 53.4 30.6 L 53.4 30.6 z M 41.8 30.6 c 0 -5.3 -4.3 -9.7 -9.7 -9.7 c -5.3 0 -9.7 4.3 -9.7 9.7 c 0 0 0 0 0 0 l 0 0 V 77 h 0 c 0 0 0 0 0 0 c 0 5.3 4.3 9.7 9.7 9.7 c 5.3 0 9.7 -4.3 9.7 -9.7 c 0 0 0 0 0 0 h 0 v -21.3 h -7.7 V 77 h 0 v 0 h 0 c 0 0 0 0 0 0 c 0 1.1 -0.9 1.9 -1.9 1.9 c -1.1 0 -1.9 -0.9 -1.9 -1.9 c 0 0 0 0 0 0 v -9.5 c 0 0 0 0 0 0 v -27.5 c 0 0 0 0 0 0 v -9.5 c 0 0 0 0 0 0 c 0 -1.1 0.9 -1.9 1.9 -1.9 c 1.1 0 1.9 0.9 1.9 1.9 c 0 0 0 0 0 0 h 0 v 21.3 h 7.7 V 30.6 L 41.8 30.6 C 41.8 30.6 41.8 30.6 41.8 30.6 z M 95.4 41.4 v 33.3 h -7.8 v -33.3 h -9 v -6.7 h 25.8 v 6.7 H 95.4 z M 120.1 50.1 H 137 v -15.5 h 7.8 v 40 H 137 v -17.8 h -16.9 v 17.8 h -7.8 v -40 h 7.8 V 50.1 z M 179.1 41.4 h -14.4 v 8.9 h 13.8 v 6.7 h -13.8 v 10.9 h 14.4 v 6.7 h -22.2 v -40 h 22.2 V 41.4 z M 235.7 73.2 c -2.4 1.3 -5.6 2.3 -9.9 2.3 c -7 0 -11.3 -2.4 -14.6 -5.6 c -4.6 -4.4 -6.4 -9.4 -6.4 -15.3 c 0 -7.3 3 -12.5 6.4 -15.7 c 4 -3.8 9 -5.3 14.7 -5.3 c 2.8 0 6.2 0.5 9.8 2.5 v 9.1 c -3.7 -4.2 -8.2 -4.5 -9.7 -4.5 c -8 0 -13.3 6.6 -13.3 14 c 0 8.9 6.8 13.7 13.6 13.7 c 3.7 0 7 -1.6 9.4 -4.4 V 73.2 z M 253.7 34.6 v 33.3 h 12.4 v 6.7 h -20.2 v -40 H 253.7 z M 282.3 34.6 v 40 h -7.8 v -40 H 282.3 z M 299.8 34.6 h 5.6 l 10.6 25.4 l 11.1 -25.4 h 5.6 l 6.7 40 h -7.9 L 328 50 l -10.7 24.7 h -2.6 L 304.3 50 l -4.1 24.7 h -7.9 L 299.8 34.6 z M 359.5 34.6 c 2.2 0 6.5 0 9.8 2.5 c 2.3 1.8 3.7 4.9 3.7 8.3 c 0 5.2 -3.4 7.3 -4.5 7.9 c 2.6 0.4 4.2 1.6 5.2 2.5 c 2.4 2.3 2.9 5.4 2.9 7.5 c 0 2.3 -0.7 5.6 -3.4 8.1 c -3 2.6 -6.7 3.2 -10.1 3.2 h -13.4 v -40 H 359.5 z M 357.4 51.3 h 2.2 c 1.2 0 6.1 -0.1 6.1 -5.2 c 0 -3.7 -2.8 -5 -6 -5 h -2.3 V 51.3 z M 357.4 68.3 h 3.4 c 1.4 0 3.6 -0.1 5.3 -1.1 c 1.9 -1.1 2.5 -3.1 2.5 -4.6 c 0 -1.3 -0.4 -3.4 -2.9 -4.6 c -1.7 -0.8 -3.7 -0.8 -5.3 -0.8 h -2.9 V 68.3 z M 409 41.4 h -14.4 v 8.9 h 13.8 v 6.7 h -13.8 v 10.9 H 409 v 6.7 h -22.2 v -40 H 409 V 41.4 z M 431.1 34.6 c 5.5 0 8.3 1.4 10.2 3 c 3.1 2.6 4 6 4 9 c 0 3.9 -1.6 7.3 -4.7 9.4 c -1 0.7 -2.5 1.4 -4.4 1.7 l 12.5 16.9 H 439 l -10.7 -16.1 h -1 v 16.1 h -7.8 v -40 H 431.1 z M 427.3 53.1 h 2.2 c 1.5 0 7.7 -0.2 7.7 -6.1 c 0 -5.9 -6.1 -6 -7.6 -6 h -2.3 V 53.1 z M 476.7 43.8 c -2.3 -3.1 -5.1 -3.4 -6.5 -3.4 c -4.2 0 -5.5 2.6 -5.5 4.7 c 0 1 0.3 1.9 1.3 2.7 c 1 0.9 2.3 1.4 4.8 2.3 c 3.1 1.1 6.1 2.2 8.1 4 c 1.8 1.6 3.4 4.3 3.4 8.4 c 0 7.8 -5.6 13.1 -13.9 13.1 c -7.4 0 -11.7 -4.5 -13.8 -7.6 l 5.1 -4.9 c 1.9 3.9 5.6 5.3 8.4 5.3 c 3.5 0 6.2 -2.2 6.2 -5.5 c 0 -1.4 -0.5 -2.6 -1.6 -3.6 c -1.5 -1.4 -3.9 -2.2 -6.2 -2.9 c -2.1 -0.7 -4.6 -1.7 -6.7 -3.5 c -1.3 -1.1 -3.2 -3.4 -3.2 -7.4 c 0 -5.9 4 -11.8 12.8 -11.8 c 2.5 0 7.3 0.5 11.3 4.7 L 476.7 43.8 z M 499.5 33.9 l 6.7 0.8 l -8.5 15.9 l -4.6 -0.5 L 499.5 33.9 z M 562.4 73.2 c -2.4 1.3 -5.6 2.3 -9.9 2.3 c -7 0 -11.3 -2.4 -14.6 -5.6 c -4.6 -4.4 -6.4 -9.4 -6.4 -15.3 c 0 -7.3 3 -12.5 6.4 -15.7 c 4 -3.8 9 -5.3 14.7 -5.3 c 2.8 0 6.2 0.5 9.8 2.5 v 9.1 c -3.7 -4.2 -8.2 -4.5 -9.7 -4.5 c -8 0 -13.3 6.6 -13.3 14 c 0 8.9 6.8 13.7 13.6 13.7 c 3.7 0 7 -1.6 9.4 -4.4 V 73.2 z M 580.4 34.6 v 33.3 h 12.4 v 6.7 h -20.2 v -40 H 580.4 z M 607.7 34.6 v 25.1 c 0 3.1 1 4.9 1.9 5.9 c 1.1 1.4 3.2 2.8 6.4 2.8 c 3.1 0 5.2 -1.4 6.4 -2.8 c 0.9 -1 1.9 -2.9 1.9 -5.9 v -25.1 h 7.8 v 24.5 c 0 3.8 -0.6 7.6 -3 10.7 c -2.9 3.8 -7.9 5.8 -13.1 5.8 c -5.2 0 -10.2 -2 -13.1 -5.8 c -2.4 -3.1 -3 -6.9 -3 -10.7 v -24.5 H 607.7 z M 654.1 34.6 c 2.2 0 6.5 0 9.8 2.5 c 2.3 1.8 3.7 4.9 3.7 8.3 c 0 5.2 -3.4 7.3 -4.5 7.9 c 2.6 0.4 4.2 1.6 5.2 2.5 c 2.4 2.3 2.9 5.4 2.9 7.5 c 0 2.3 -0.7 5.6 -3.4 8.1 c -3 2.6 -6.7 3.2 -10.1 3.2 h -13.4 v -40 H 654.1 z M 652 51.3 h 2.2 c 1.2 0 6.1 -0.1 6.1 -5.2 c 0 -3.7 -2.8 -5 -6 -5 H 652 V 51.3 z M 652 68.3 h 3.4 c 1.4 0 3.6 -0.1 5.3 -1.1 c 1.9 -1.1 2.5 -3.1 2.5 -4.6 c 0 -1.3 -0.4 -3.4 -2.9 -4.6 c -1.7 -0.8 -3.7 -0.8 -5.3 -0.8 H 652 V 68.3 z" />
</svg>