<svg version="1.1" id="Layer_12" xmlns="http://www.w3.org/2000/svg" xmlns:xlink="http://www.w3.org/1999/xlink" x="0px" y="0px" viewBox="0 0 156 52" style="enable-background:new 0 0 156 52;" xml:space="preserve"><path d="M47.3,13.7c-0.3-2.1-1.4-3.8-3.5-5.4l-1.2-0.8l-0.8,1.2c-1,1.5-1.5,3.7-1.4,5.7c0.1,0.7,0.3,2,1.1,3.1c-0.7,0.4-2.2,0.9-4.1,0.9H0.2l-0.1,0.4C-0.2,21-0.2,27.4,4,32.3c3.2,3.8,7.9,5.7,14.1,5.7c13.5,0,23.4-6.2,28.1-17.5c1.8,0,5.8,0,7.8-3.9c0.1-0.1,0.2-0.3,0.5-1.1l0.2-0.4l-1.1-0.8C52.4,13.6,49.5,13.3,47.3,13.7L47.3,13.7z M29.9,0h-5.7v5.1h5.7C29.9,5.1,29.9,0,29.9,0z M29.9,6.2h-5.7v5.1h5.7C29.9,11.3,29.9,6.2,29.9,6.2z M23.2,6.2h-5.7v5.1h5.7V6.2z M16.6,6.2h-5.7v5.1h5.7V6.2z M9.9,12.3H4.2v5.1h5.7V12.3z M16.6,12.3h-5.7v5.1h5.7V12.3z M23.2,12.3h-5.7v5.1h5.7V12.3z M29.9,12.3h-5.7v5.1h5.7C29.9,17.4,29.9,12.3,29.9,12.3z M36.6,12.3h-5.7v5.1h5.7V12.3z M70.9,11.2c-0.4,0-0.8,0.1-1,0.4c-0.3,0.3-0.4,0.6-0.4,1v6.9c-1.4-1.1-3-1.7-4.8-1.7c-2.1,0-4,0.8-5.5,2.3s-2.3,3.4-2.3,5.5c0,2.2,0.8,4,2.3,5.5s3.3,2.3,5.5,2.3c2.1,0,3.9-0.8,5.5-2.3c1.5-1.5,2.3-3.3,2.3-5.5v-13c0-0.4-0.1-0.8-0.4-1C71.7,11.3,71.3,11.2,70.9,11.2z M69.1,27.5c-0.3,0.6-0.6,1.1-1,1.6c-0.4,0.4-1,0.8-1.5,1.1c-0.6,0.3-1.2,0.4-1.9,0.4c-0.7,0-1.3-0.1-1.9-0.4c-0.6-0.3-1.1-0.6-1.5-1.1c-0.4-0.4-0.8-1-1-1.6c-0.3-0.6-0.4-1.2-0.4-1.9s0.1-1.3,0.4-1.9c0.3-0.6,0.6-1.1,1-1.6c0.4-0.4,0.9-0.8,1.5-1.1c0.6-0.3,1.2-0.4,1.9-0.4c0.7,0,1.3,0.1,1.9,0.4s1.1,0.6,1.5,1.1c0.4,0.4,0.8,1,1,1.6c0.3,0.6,0.4,1.2,0.4,1.9S69.4,26.9,69.1,27.5L69.1,27.5z M134.1,20.1c-1.5-1.5-3.3-2.3-5.5-2.3c-2.1,0-4,0.8-5.5,2.3s-2.3,3.4-2.3,5.5s0.8,4,2.3,5.5c1.5,1.5,3.3,2.3,5.5,2.3c1.9,0,3.6-0.6,5-1.9c0.3-0.3,0.4-0.6,0.4-1s-0.1-0.8-0.4-1c-0.3-0.3-0.6-0.4-1-0.4s-0.7,0.1-1,0.4c-0.4,0.4-0.9,0.7-1.4,0.8c-0.5,0.2-1.1,0.3-1.7,0.3c-0.5,0-1-0.1-1.5-0.3c-0.5-0.2-0.9-0.4-1.4-0.7c-0.4-0.3-0.8-0.7-1.1-1.1c-0.3-0.4-0.5-0.9-0.7-1.4h10.9c0.4,0,0.7-0.1,1-0.4s0.4-0.6,0.4-1c0-1.1-0.2-2.1-0.6-3C135.4,21.7,134.8,20.9,134.1,20.1L134.1,20.1z M124,24.2c0.1-0.5,0.4-1,0.7-1.4c0.3-0.4,0.7-0.8,1.1-1.1c0.4-0.3,0.9-0.5,1.4-0.7s1-0.3,1.5-0.3s1,0.1,1.5,0.3c0.5,0.2,0.9,0.4,1.4,0.7c0.4,0.3,0.8,0.7,1.1,1.1s0.5,0.9,0.7,1.4H124z M149.2,18.8c-0.3-0.3-0.6-0.4-1-0.6c-0.4-0.1-0.8-0.2-1.3-0.3c-0.5-0.1-0.9-0.1-1.3-0.1c-0.9,0-1.8,0.1-2.6,0.4s-1.6,0.7-2.2,1.3v-0.3c0-0.4-0.1-0.7-0.4-1c-0.3-0.3-0.6-0.4-1-0.4s-0.7,0.1-1,0.4s-0.4,0.6-0.4,1V32c0,0.4,0.1,0.7,0.4,1c0.3,0.3,0.6,0.4,1,0.4s0.7-0.1,1-0.4c0.3-0.3,0.4-0.6,0.4-1v-6.4c0-0.7,0.1-1.3,0.4-1.9c0.3-0.6,0.6-1.1,1-1.6c0.4-0.4,0.9-0.8,1.5-1c0.6-0.3,1.2-0.4,1.9-0.4s1.3,0.1,1.9,0.3c0.2,0.1,0.4,0.2,0.6,0.2c0.2,0,0.4,0,0.6-0.1c0.2-0.1,0.3-0.2,0.5-0.3c0.1-0.1,0.2-0.3,0.3-0.5s0.1-0.4,0.1-0.6C149.6,19.4,149.5,19.1,149.2,18.8L149.2,18.8z M87.2,20.1c-1.5-1.5-3.3-2.3-5.5-2.3s-4,0.8-5.5,2.3s-2.3,3.4-2.3,5.5s0.8,4,2.3,5.5c1.5,1.5,3.3,2.3,5.5,2.3c2.1,0,3.9-0.8,5.5-2.3c1.5-1.5,2.3-3.3,2.3-5.5c0-1.1-0.2-2.1-0.6-3C88.5,21.7,88,20.9,87.2,20.1z M86.2,27.5c-0.3,0.6-0.6,1.1-1,1.6c-0.4,0.4-1,0.8-1.5,1.1c-0.6,0.3-1.2,0.4-1.9,0.4c-0.7,0-1.3-0.1-1.9-0.4s-1.1-0.6-1.5-1.1c-0.4-0.4-0.8-1-1-1.6c-0.3-0.6-0.4-1.2-0.4-1.9s0.1-1.3,0.4-1.9s0.6-1.1,1-1.6c0.4-0.4,0.9-0.8,1.5-1.1c0.6-0.3,1.2-0.4,1.9-0.4c0.7,0,1.3,0.1,1.9,0.4s1.1,0.6,1.5,1.1c0.4,0.4,0.8,1,1,1.6c0.3,0.6,0.4,1.2,0.4,1.9S86.5,26.9,86.2,27.5L86.2,27.5z M119.3,19.3c0-0.2,0-0.4-0.1-0.6s-0.2-0.3-0.3-0.5c-0.1-0.1-0.3-0.2-0.5-0.3c-0.2-0.1-0.4-0.1-0.6-0.1c-0.3,0-0.5,0.1-0.8,0.2l-8.2,5.4V12.6c0-0.4-0.1-0.8-0.4-1c-0.3-0.3-0.6-0.4-1-0.4s-0.7,0.1-1,0.4c-0.3,0.3-0.4,0.6-0.4,1V32c0,0.4,0.1,0.7,0.4,1s0.6,0.4,1,0.4s0.7-0.1,1-0.4c0.3-0.3,0.4-0.6,0.4-1v-5l1.7-1.1l6.4,7.2c0.3,0.3,0.6,0.4,1,0.4c0.2,0,0.4,0,0.6-0.1s0.3-0.2,0.5-0.3c0.1-0.1,0.2-0.3,0.3-0.5c0.1-0.2,0.1-0.4,0.1-0.6c0-0.4-0.1-0.7-0.4-1l-5.9-6.7l5.8-3.8C119.2,20.2,119.3,19.8,119.3,19.3L119.3,19.3z M95.4,22.2c0.4-0.4,1-0.8,1.5-1c0.6-0.3,1.2-0.4,1.9-0.4c0.6,0,1.2,0.1,1.7,0.3c0.5,0.2,1,0.5,1.5,0.9c0.3,0.2,0.6,0.3,0.9,0.3c0.4,0,0.8-0.1,1-0.4c0.3-0.3,0.4-0.6,0.4-1s-0.2-0.8-0.5-1.1c-1.4-1.3-3.1-1.9-5-1.9c-2.1,0-4,0.8-5.5,2.3S91,23.6,91,25.7c0,2.2,0.8,4,2.3,5.5c1.5,1.5,3.3,2.3,5.5,2.3c1.9,0,3.6-0.6,5-1.9c0.3-0.3,0.5-0.7,0.5-1.1s-0.1-0.8-0.4-1c-0.3-0.3-0.6-0.4-1-0.4c-0.3,0-0.7,0.1-0.9,0.3c-0.5,0.4-0.9,0.7-1.5,0.9c-0.5,0.2-1.1,0.3-1.7,0.3c-0.7,0-1.3-0.1-1.9-0.4s-1.1-0.6-1.5-1s-0.8-1-1-1.6C94.1,27,94,26.3,94,25.7c0-0.7,0.1-1.3,0.4-1.9C94.6,23.2,94.9,22.6,95.4,22.2L95.4,22.2z"></path><a xmlns="http://www.w3.org/2000/svg" class="sub-logo" href="/products/telepresence-for-docker/" id="dkr_logo_wasm20221024_link" target="_blank"><path class="logo-helper" d="M51.7,38.1h99.7V52H51.7V38.1z"></path><path fill="#9860FF" d="M56.2,40.8c-0.3,0-0.7,0.4-0.9,0.8c-0.1,0.2,0,0.3,0,0.4c0,0.1,0.1,0.1,0.2,0.1c0.4,0,0.7,0,1.1,0	c0.1,0,0.1,0,0.2,0l0,0c0,0,0,0-0.1,0c0,0-0.3,0.1-0.5,0.2c-0.3,0.1-0.7,0.2-0.8,0.2s-0.2,0-0.2,0.1s0,0.1,0.1,0.1	c0.1,0.1,0.3,0.1,0.4,0.1c0.1,0,0.2,0.1,0.1,0.3c0,0.2,0,0.3,0.2,0.3c0.1,0,0.1,0,0.1,0c0.5,0,1,0,1.5,0h0.1c0,0,0.1,0,0,0.1	l-0.1,0.1c-0.1,0.2-0.2,0.4-0.3,0.6c-0.1,0.2-0.1,0.2,0,0.3c0.1,0,0.1,0.1,0.2,0.1c0.1,0,0.2,0.1,0.2,0.1s0.1,0,0.1,0.1	c0,0,0.1,0,0,0.1c0,0,0,0-0.1,0.1c-0.1,0-0.2,0.1-0.3,0.1s-0.3,0.1-0.5,0.1c-0.1,0.1-0.3,0.1-0.3,0.1l0,0l0,0c0,0,0.7,0,1,0h0.1	l0,0l0,0c0,0-0.8,0.3-1,0.3c-0.1,0-0.1,0.1-0.1,0.1c0,0.1,0.1,0.1,0.2,0.1c0.1,0.1,0.3,0.1,0.4,0.1c0.2,0.1,0.2,0.1,0,0.4	c-0.3,0.5-0.5,1-0.7,1.5s-0.4,1-0.6,1.5c-0.1,0.4,0,0.6,0.3,0.6c0.4,0,0.8,0,1.2,0c0.2,0,0.3-0.1,0.5-0.3c0.1-0.1,0.1-0.2,0.2-0.4	c0.2-0.8,0.6-1.5,0.9-2.2c0.1-0.3,0.3-0.6,0.4-0.8c0.1-0.2,0.1-0.2,0-0.3c-0.1,0-0.2-0.1-0.3-0.1s-0.2-0.1-0.3-0.1	c0,0-0.1,0-0.1-0.1l0.1-0.1c0.1,0,0.3-0.1,0.5-0.1c0.2-0.1,0.5-0.1,0.5-0.2c0,0,0,0,0-0.1c0,0,0,0-0.1,0h-1.1h-0.1l0.1-0.1	c0.1,0,0.2-0.1,0.3-0.1c0.2-0.1,0.3-0.1,0.5-0.1c0.1,0,0.2-0.1,0.2-0.1s0.1,0,0.1-0.1c0,0,0-0.1-0.1-0.1s-0.1-0.1-0.2-0.1	c-0.1,0-0.2-0.1-0.3-0.1c-0.1-0.1-0.1-0.1,0-0.3s0.2-0.4,0.4-0.6c0.1-0.2,0.1-0.2,0.2-0.2c0.5,0,1,0,1.5,0c0.1,0,0.1,0,0.2,0	c0.2,0,0.4-0.2,0.6-0.4c0.1-0.1,0.1-0.2,0-0.2l-0.5-0.2c0,0-0.1,0,0-0.1c0,0,0,0,0.1-0.1c0,0,0.3-0.1,0.4-0.1	c0.3-0.1,0.6-0.1,0.8-0.2c0.1,0,0.3-0.1,0.3-0.1s0.1,0,0.1-0.1l0,0c0,0-0.1,0-0.2,0c-0.4,0-0.7,0-1.1,0c-0.1,0-0.1,0-0.1,0	s-0.1-0.3,0-0.4c0-0.1,0.1-0.2,0.1-0.3c0.1-0.3,0-0.5-0.2-0.5h-0.1c-0.9,0-1.8,0-2.7,0C58.1,40.8,57.2,40.8,56.2,40.8z M70.8,42.1	C70.8,42,70.7,42.1,70.8,42.1c-0.1,0-0.2,0-0.2,0c-0.3,0-0.6,0-0.9,0c-0.1,0-0.1,0-0.2,0c-0.2,0-0.2-0.3-0.1-0.5	c0-0.1,0.1-0.1,0.1-0.2c0.1-0.3,0-0.6-0.2-0.6c-0.1,0-0.1,0-0.2,0c-0.8,0-1.6,0-2.5,0c-0.4,0-0.9,0-1.3,0s-0.8,0-1.3,0	c-0.2,0-0.4,0.1-0.6,0.3c-0.1,0.1-0.2,0.3-0.3,0.5c0,0.1,0,0.2,0,0.3s0.1,0.1,0.3,0.1c0.4,0,0.7,0,1,0c0.1,0,0.1,0,0.2,0l0,0l0,0	c0,0-0.3,0.1-0.6,0.2c-0.2,0.1-0.5,0.1-0.7,0.2c-0.2,0.1-0.3,0.1-0.3,0.1s-0.1,0-0.1,0.1l0,0l0.1,0.1c0.1,0,0.3,0.1,0.3,0.1	c0.1,0,0.1,0.1,0.1,0.1s0,0.1,0,0.2c0,0.1-0.1,0.1-0.1,0.1c-0.2,0.3-0.4,0.6-0.5,0.9c0,0.1-0.1,0.1-0.1,0.2c0,0.1,0,0.1,0,0.2	l0.1,0.1c0.1,0,0.2,0.1,0.3,0.1h0.1c0,0,0.1,0,0,0.1l-0.1,0.1c-0.1,0-0.2,0.1-0.3,0.1c-0.2,0-0.6,0.2-0.7,0.2c0,0-0.1,0-0.1,0.1	h0.1c0.2,0,0.4,0,0.7,0c0.1,0,0.3,0,0.4,0l0,0c0,0,0,0-0.1,0s-0.7,0.3-0.8,0.3c0,0-0.1,0-0.1,0.1c0,0,0,0.1,0.1,0.1	s0.1,0.1,0.2,0.1c0.1,0,0.2,0.1,0.3,0.1c0.1,0.1,0.1,0.1,0,0.3c0,0.1-0.1,0.1-0.1,0.1c-0.2,0.4-0.4,0.8-0.6,1.2	c-0.3,0.5-0.5,1.1-0.7,1.6c-0.1,0.4,0,0.7,0.3,0.7c0,0,0,0,0.1,0c1.7,0,3.4,0,5,0c0.3,0,0.6-0.2,0.8-0.7c0.1-0.2,0.1-0.4,0.2-0.6	c0.1-0.2,0.2-0.4,0.2-0.6c0.2-0.4,0.1-0.6-0.2-0.6h-0.1c-1.1,0-2.1,0-3.2,0h-0.1c0,0-0.1,0,0-0.1c0.1-0.2,0.2-0.4,0.3-0.6	c0-0.1,0.1-0.1,0.1-0.1h0.1c0.8,0,1.5,0,2.3,0c0.4,0,0.7,0,1.1,0c0.2,0,0.4-0.1,0.6-0.4c0.1-0.1,0.1-0.2,0-0.3s-0.2-0.1-0.3-0.1	c-0.1,0-0.1-0.1-0.2-0.1c0,0-0.1,0-0.1-0.1c0,0,0-0.1,0.1-0.1s0.1-0.1,0.2-0.1c0.2-0.1,0.4-0.1,0.6-0.2c0,0,0.1,0,0.1-0.1	c0,0,0,0-0.1,0c-0.3,0-0.6,0-0.9,0c-0.1,0-0.1,0-0.1,0l0,0c0,0,0,0,0.1-0.1c0,0,0.2-0.1,0.3-0.1c0.2-0.1,0.4-0.1,0.6-0.2	c0.1,0,0.2-0.1,0.2-0.1c0-0.1-0.1-0.1-0.1-0.1c-0.1-0.1-0.3-0.1-0.4-0.2c-0.1,0-0.2-0.1-0.2-0.3c0-0.1-0.1-0.2-0.2-0.2	s-0.1,0-0.2,0c-1.1,0-2.1,0-3.2,0H65c-0.1,0-0.1,0,0-0.1c0.1-0.2,0.2-0.4,0.3-0.6c0.1-0.1,0.1-0.1,0.2-0.1s2.2,0,3.3,0	c0.1,0,0.1,0,0.2,0c0.2,0,0.4-0.1,0.6-0.2c0.1-0.1,0.1-0.2,0-0.3c-0.1,0-0.1-0.1-0.2-0.1s-0.2-0.1-0.3-0.1c0,0-0.1,0-0.1-0.1	c0,0-0.1,0-0.1-0.1c0,0,0-0.1,0.1-0.1s0.4-0.1,0.5-0.1c0.3-0.1,0.6-0.1,0.7-0.2C70.5,42.2,70.6,42.2,70.8,42.1	C70.7,42.1,70.8,42.1,70.8,42.1z M74.3,50c0.1,0,0.1,0,0.2,0c0.2,0,0.4-0.2,0.5-0.4c0.1-0.1,0.1-0.2,0.1-0.3c0.1-0.3,0.2-0.6,0.4-1	c0.1-0.2,0.1-0.3,0.2-0.5c0.1-0.3,0.1-0.6-0.2-0.6c-0.1,0-0.1,0-0.1,0c-1.1,0-2.1,0-3.2,0c-0.1,0-0.1,0-0.1,0c-0.1,0-0.1,0,0-0.1	c0.1-0.3,0.3-0.5,0.4-0.8c0.2-0.3,0.2-0.3-0.1-0.4c-0.1-0.1-0.2-0.1-0.4-0.1c-0.1,0-0.1,0-0.1-0.1c0,0,0,0,0-0.1	c0.1,0,0.5-0.1,0.7-0.2c0.1,0,0.2-0.1,0.3-0.1l0.1-0.1h-0.1c-0.3,0-0.6,0-0.8,0c-0.1,0-0.2,0-0.3,0c-0.1,0-0.1,0,0-0.1	s0.1-0.1,0.3-0.2c0.1,0,0.3-0.1,0.4-0.1s0.3-0.1,0.4-0.1H73c0,0,0,0,0-0.1c0,0,0,0-0.1,0s-0.1-0.1-0.2-0.1s-0.2-0.1-0.3-0.1	c-0.1-0.1-0.2-0.1,0-0.3c0.2-0.3,0.3-0.6,0.5-0.9c0,0,0-0.1,0.1-0.1c0.1-0.2,0.1-0.2,0-0.3c-0.1,0-0.3-0.1-0.4-0.1	s-0.2-0.1-0.2-0.1s-0.1-0.1,0-0.1s1.1-0.3,1.3-0.4c0.1,0,0.1,0,0.2-0.1v-0.1h-0.1c-0.4,0-0.8,0-1.2,0c-0.1,0-0.2-0.1-0.2-0.2	c0-0.1,0-0.2,0.1-0.3c0-0.1,0.1-0.1,0.1-0.2c0.1-0.3,0.1-0.6-0.2-0.6c-0.4,0-0.8,0-1.2,0c-0.1,0-0.2,0.1-0.3,0.1	c-0.2,0.2-0.4,0.4-0.5,0.7c-0.1,0.1-0.1,0.3,0,0.4c0.1,0.1,0.1,0.1,0.2,0.1c0.4,0,0.8,0,1.1,0c0.1,0,0.1,0,0.2,0c0,0,0,0,0,0.1	c-0.1,0-0.3,0.1-0.3,0.1c-0.3,0.1-0.5,0.1-0.8,0.2c-0.1,0-0.2,0.1-0.3,0.1c0,0-0.1,0-0.1,0.1v0.1c0,0,0,0,0.1,0s0.3,0.1,0.4,0.1	s0.1,0.1,0.2,0.1s0.1,0.1,0,0.2c0,0.1-0.1,0.1-0.1,0.2c-0.2,0.3-0.4,0.6-0.5,0.9c-0.1,0.2-0.1,0.3,0,0.3s0.1,0.1,0.2,0.1	s0.2,0.1,0.3,0.1c0,0,0.1,0,0.1,0.1v0.1c0,0-0.1,0.1-0.2,0.1S70.7,45,70.5,45c-0.3,0-0.4,0-0.5,0s-0.2,0.1-0.3,0.1l-0.1,0.1l0,0	c0.1,0,1,0,1.1,0l0,0c0,0,0,0-0.1,0c0,0-0.1,0.1-0.2,0.1s-0.4,0.1-0.6,0.2c-0.1,0-0.1,0-0.2,0.1h-0.1v0.1c0,0,0.2,0.1,0.3,0.1	c0.1,0,0.2,0.1,0.3,0.1c0.1,0.1,0.1,0.1,0,0.3c0,0.1-0.1,0.1-0.1,0.2c-0.5,0.9-0.9,1.7-1.2,2.7c-0.2,0.5,0,0.9,0.4,0.8h0.1	c0.8,0,1.6,0,2.4,0C72.7,50,73.5,50,74.3,50z M85.2,42.1C85.2,42,85.2,42.1,85.2,42.1c-0.1,0-0.2,0-0.2,0c-0.3,0-0.6,0-0.9,0	c-0.1,0-0.1,0-0.2,0c-0.2,0-0.2-0.3-0.1-0.5c0-0.1,0.1-0.1,0.1-0.2c0.1-0.3,0-0.6-0.2-0.6c-0.1,0-0.1,0-0.2,0c-0.8,0-1.6,0-2.5,0	c-0.4,0-0.9,0-1.3,0s-0.8,0-1.3,0c-0.2,0-0.4,0.1-0.6,0.3c-0.1,0.1-0.2,0.3-0.3,0.5c0,0.1,0,0.2,0,0.3s0.1,0.1,0.3,0.1	c0.4,0,0.7,0,1,0c0.1,0,0.1,0,0.2,0l0,0l0,0c0,0-0.3,0.1-0.6,0.2c-0.2,0.1-0.5,0.1-0.7,0.2c-0.2,0.1-0.3,0.1-0.3,0.1	s-0.1,0-0.1,0.1l0,0l0.1,0.1c0.1,0,0.3,0.1,0.3,0.1c0.1,0,0.1,0.1,0.1,0.1s0,0.1,0,0.2c0,0.1-0.1,0.1-0.1,0.1	c-0.2,0.3-0.4,0.6-0.5,0.9c0,0.1-0.1,0.1-0.1,0.2c0,0.1,0,0.1,0,0.2l0.1,0.1c0.1,0,0.2,0.1,0.3,0.1h0.1c0,0,0.1,0,0,0.1l-0.1,0.1	c-0.1,0-0.2,0.1-0.3,0.1c-0.2,0-0.6,0.2-0.7,0.2c0,0-0.1,0-0.1,0.1h0.1c0.2,0,0.4,0,0.7,0c0.1,0,0.3,0,0.4,0l0,0c0,0,0,0-0.1,0	s-0.7,0.3-0.8,0.3c0,0-0.1,0-0.1,0.1c0,0,0,0.1,0.1,0.1s0.1,0.1,0.2,0.1s0.2,0.1,0.3,0.1c0.1,0.1,0.1,0.1,0,0.3	c0,0.1-0.1,0.1-0.1,0.1c-0.2,0.4-0.4,0.8-0.6,1.2c-0.3,0.5-0.5,1.1-0.7,1.6c-0.1,0.4,0,0.7,0.3,0.7c0,0,0,0,0.1,0c1.7,0,3.4,0,5,0	c0.3,0,0.6-0.2,0.8-0.7c0.1-0.2,0.1-0.4,0.2-0.6c0.1-0.2,0.2-0.4,0.2-0.6c0.2-0.4,0.1-0.6-0.2-0.6h-0.1c-1.1,0-2.1,0-3.2,0h-0.1	c0,0-0.1,0,0-0.1c0.1-0.2,0.2-0.4,0.3-0.6c0-0.1,0.1-0.1,0.1-0.1h0.1c0.8,0,1.5,0,2.3,0c0.4,0,0.7,0,1.1,0c0.2,0,0.4-0.1,0.6-0.4	c0.1-0.1,0.1-0.2,0-0.3s-0.2-0.1-0.3-0.1c-0.1,0-0.1-0.1-0.2-0.1c0,0-0.1,0-0.1-0.1c0,0,0-0.1,0.1-0.1s0.1-0.1,0.2-0.1	c0.2-0.1,0.4-0.1,0.6-0.2c0,0,0.1,0,0.1-0.1c0,0,0,0-0.1,0c-0.3,0-0.6,0-0.9,0c-0.1,0-0.1,0-0.1,0l0,0c0,0,0,0,0.1-0.1	c0,0,0.2-0.1,0.3-0.1c0.2-0.1,0.4-0.1,0.6-0.2c0.1,0,0.2-0.1,0.2-0.1c0-0.1-0.1-0.1-0.1-0.1c-0.1-0.1-0.3-0.1-0.4-0.2	c-0.1,0-0.2-0.1-0.2-0.3c0-0.1-0.1-0.2-0.2-0.2s-0.1,0-0.2,0c-1.1,0-2.1,0-3.2,0h-0.1c-0.1,0-0.1,0,0-0.1c0.1-0.2,0.2-0.4,0.3-0.6	c0.1-0.1,0.1-0.1,0.2-0.1s2.2,0,3.3,0c0.1,0,0.1,0,0.2,0c0.2,0,0.4-0.1,0.6-0.2c0.1-0.1,0.1-0.2,0-0.3c-0.1,0-0.1-0.1-0.2-0.1	s-0.2-0.1-0.3-0.1c0,0-0.1,0-0.1-0.1c0,0-0.1,0-0.1-0.1c0,0,0-0.1,0.1-0.1s0.4-0.1,0.5-0.1c0.3-0.1,0.6-0.1,0.7-0.2	C84.9,42.2,85.1,42.2,85.2,42.1L85.2,42.1z M89.3,47.2c0.4,0,0.9-0.1,1.3-0.3c0.3-0.1,0.7-0.4,0.9-0.6c0.2-0.1,0.2-0.2,0.1-0.3	c-0.1,0-0.2-0.1-0.2-0.1s-0.1,0-0.1-0.1v-0.1c0,0,0.4-0.1,0.7-0.2c0.2-0.1,0.4-0.1,0.5-0.2c0.1,0,0.2-0.1,0.2-0.1h-0.1	c-0.1,0-0.7,0-1,0h-0.1l0.1-0.1c0.1,0,0.1-0.1,0.2-0.1s0.2-0.1,0.3-0.1c0.2,0,0.3-0.1,0.5-0.1c0.1,0,0.1,0,0.2-0.1	c0.1,0,0-0.1,0-0.1s-0.3-0.1-0.4-0.2c-0.1,0-0.1-0.1-0.2-0.1s-0.1-0.1,0-0.2c0-0.1,0.1-0.1,0.1-0.2c0.1-0.3,0.3-0.5,0.4-0.8	s0.1-0.4-0.1-0.5c0,0-0.4-0.1-0.5-0.2c0,0-0.1,0-0.1-0.1s0.1-0.1,0.1-0.1c0.1,0,0.5-0.1,0.6-0.2c0.3-0.1,0.5-0.2,0.6-0.2	s0.1-0.1,0.1-0.1l0,0c0,0-0.1,0-0.2,0c-0.4,0-0.9,0-1.1,0c-0.1,0-0.3,0-0.4-0.1s-0.2-0.2-0.3-0.4c-0.2-0.3-0.4-0.5-0.7-0.6	c-0.3-0.1-0.6-0.1-0.9-0.1c-1.2,0-2.4,0-3.6,0h-0.1c-0.3,0-0.6,0.2-0.8,0.6c-0.1,0.2-0.1,0.4-0.1,0.6c0,0.1,0.1,0.1,0.2,0.1	c0.4,0,1.2,0,1.2,0l0,0c0,0,0,0.1-0.1,0.1s-0.9,0.3-1.2,0.3c-0.1,0-0.2,0-0.2,0.1c0,0-0.1,0-0.1,0.1v0.1c0.1,0,0.4,0.2,0.5,0.2	c0.1,0.1,0.1,0.1,0,0.2c-0.1,0.1-0.1,0.2-0.2,0.3c-0.2,0.3-0.3,0.5-0.5,0.8c-0.1,0.1-0.1,0.2,0,0.3c0,0,0.1,0.1,0.2,0.1	s0.4,0.1,0.4,0.1s0.1,0,0.1,0.1l-0.1,0.1c-0.1,0-0.1,0.1-0.2,0.1c-0.2,0.1-0.5,0.1-0.7,0.2c-0.2,0.1-0.3,0.1-0.3,0.2h0.1	c0.3,0,1.1,0,1.1,0l0,0c0,0,0,0-0.1,0.1c0,0-0.3,0.1-0.5,0.2c-0.2,0.1-0.3,0.1-0.5,0.1c-0.1,0-0.2,0.1-0.2,0.1	c0,0.1,0.1,0.1,0.1,0.1c0.1,0,0.3,0.1,0.4,0.1c0.2,0.1,0.2,0.1,0,0.4c-0.3,0.6-0.6,1.2-0.9,1.8c-0.2,0.4-0.3,0.8-0.5,1.1	c-0.1,0.4,0,0.6,0.3,0.6c0.4,0,0.8,0,1.2,0c0.2,0,0.3-0.1,0.4-0.2c0.1-0.1,0.2-0.3,0.3-0.4c0.2-0.7,0.5-1.3,0.9-1.9	c0.1-0.2,0.1-0.2,0.2-0.2C87.4,47.2,88.9,47.2,89.3,47.2z M89.8,43.4c0.1,0,0.2,0,0.3,0c0.2,0,0.2,0.2,0.1,0.4	c-0.1,0.1-0.1,0.3-0.2,0.4c-0.1,0.2-0.1,0.2,0,0.3l0.1,0.1c0,0,0,0,0,0.1c0,0,0,0-0.1,0c0,0-1.4,0-2.1,0c-0.2,0-0.4-0.1-0.6-0.2	c-0.1-0.1-0.1-0.1,0-0.3s0.2-0.4,0.3-0.6c0.1-0.2,0.1-0.2,0.3-0.2c0.3,0,0.7,0,1,0C89.2,43.4,89.5,43.4,89.8,43.4z M96.5,40.8	c-0.7,0-1.3,0-2,0c-0.3,0-0.7,0.3-0.9,0.7c-0.1,0.2,0,0.3,0,0.4c0,0.1,0.1,0.1,0.2,0.1s0.7,0,1.1,0c0.1,0,0.1,0,0.2,0l0,0	c0,0,0,0-0.1,0s-0.4,0.1-0.7,0.2c-0.3,0.1-0.5,0.1-0.7,0.2c0,0-0.1,0-0.1,0.1c0,0,0,0.1,0.1,0.1s0.3,0.1,0.4,0.2	c0.2,0.1,0.2,0.1,0,0.4c-0.2,0.3-0.4,0.7-0.6,1c-0.1,0.2-0.1,0.3,0,0.3s0.1,0.1,0.2,0.1s0.2,0.1,0.2,0.1c0.1,0,0.1,0,0.2,0.1v0.1	c0,0-0.4,0.1-0.6,0.2c-0.2,0.1-0.4,0.2-0.5,0.2s-0.1,0.1-0.1,0.1h0.1c0.3,0,0.6,0,0.8,0c0.1,0,0.2,0,0.3,0c0,0,0,0,0.1,0	c0,0,0,0.1-0.2,0.1c-0.1,0-0.3,0.1-0.6,0.2c-0.3,0.1-0.3,0.1-0.4,0.1c0,0-0.1,0-0.1,0.1c0,0,0,0.1,0.1,0.1s0.4,0.1,0.5,0.2	c0.2,0.1,0.2,0.1,0,0.4c-0.2,0.5-0.5,0.9-0.7,1.4s-0.4,1-0.6,1.5s0.1,0.7,0.3,0.7c0.4,0,0.8,0,1.1,0c0.2,0,0.4-0.1,0.6-0.4	c0-0.1,0.1-0.2,0.1-0.2c0.2-0.5,0.4-1,0.6-1.5c0.1-0.3,0.3-0.6,0.4-0.8c0-0.1,0.1-0.1,0.1-0.1c0.1,0,0.3,0,0.4,0s0.1,0,0.1,0.1	s0,0.1,0,0.1c0.1,0.7,0.2,1.4,0.3,2.1c0.1,0.2,0.1,0.4,0.2,0.5c0.1,0.2,0.1,0.3,0.3,0.3c0.5,0,1,0,1.4,0c0.1,0,0.3-0.1,0.4-0.2	c0.2-0.2,0.3-0.6,0.3-0.8c0-0.1,0-0.1,0-0.1c-0.2-0.6-0.3-1.2-0.3-1.9c0-0.2,0-0.2,0.1-0.2c0.3-0.1,0.6-0.2,0.9-0.4	c0.1,0,0.1-0.1,0.2-0.1c0.1-0.1,0.1-0.1,0-0.2c-0.1,0-0.3-0.1-0.3-0.2c0,0-0.1,0-0.1-0.1c0,0,0,0,0.1-0.1c0,0,0.4-0.1,0.7-0.2	c0.3-0.1,0.5-0.1,0.6-0.2c0.1,0,0.1-0.1,0.1-0.1s0,0-0.1,0c-0.2,0-0.3,0-0.5,0s-0.4,0-0.6,0h-0.1c0,0,0-0.1,0.1-0.1	s0.2-0.1,0.4-0.1c0.2-0.1,0.7-0.2,0.7-0.2s0.1,0,0.1-0.1v-0.1c-0.1,0-0.1-0.1-0.2-0.1s-0.2-0.1-0.3-0.1c-0.1-0.1-0.1-0.1,0-0.3	c0.1-0.1,0.1-0.3,0.2-0.4c0.1-0.2,0.2-0.5,0.4-0.7c0.1-0.2,0.1-0.3-0.1-0.3c-0.1-0.1-0.6-0.2-0.6-0.2s-0.1,0-0.1-0.1l0.1-0.1	c0,0,0.8-0.2,1.1-0.3c0.1,0,0.2-0.1,0.2-0.1s-0.1,0-0.2,0s-0.8,0-1.1,0c-0.1,0-0.2,0-0.3-0.1c-0.1-0.1-0.2-0.3-0.3-0.4	c-0.1-0.2-0.3-0.4-0.5-0.5c-0.3-0.1-0.6-0.2-0.9-0.2C97.8,40.8,97.2,40.8,96.5,40.8z M98.2,43.4c0.1,0,0.2,0,0.3,0	c0.2,0,0.2,0.2,0.1,0.4s-0.2,0.3-0.3,0.5c-0.1,0.1-0.1,0.2-0.1,0.3c0,0,0,0,0,0.1l0,0c-0.1,0-0.1,0-0.2,0c0,0-1.3,0-1.9,0	c-0.2,0-0.3-0.1-0.4-0.1c-0.1-0.1-0.1-0.1,0-0.3c0.1-0.3,0.3-0.5,0.4-0.8c0.1-0.1,0.1-0.1,0.2-0.1C96.6,43.4,98.1,43.4,98.2,43.4z	 M109.5,42.1C109.5,42,109.5,42.1,109.5,42.1c-0.1,0-0.2,0-0.2,0c-0.3,0-0.6,0-0.9,0c-0.1,0-0.1,0-0.2,0c-0.2,0-0.2-0.3-0.1-0.5	c0-0.1,0.1-0.1,0.1-0.2c0.1-0.3,0-0.6-0.2-0.6c-0.1,0-0.1,0-0.2,0c-0.8,0-1.6,0-2.5,0c-0.4,0-0.9,0-1.3,0s-0.8,0-1.3,0	c-0.2,0-0.4,0.1-0.6,0.3c-0.1,0.1-0.2,0.3-0.3,0.5c0,0.1,0,0.2,0,0.3s0.1,0.1,0.2,0.1c0.4,0,0.7,0,1,0c0.1,0,0.1,0,0.2,0l0,0l0,0	c0,0-0.3,0.1-0.6,0.2c-0.2,0.1-0.5,0.1-0.7,0.2c-0.2,0.1-0.2,0.1-0.3,0.1c0,0-0.1,0-0.1,0.1l0,0l0.1,0.1c0.1,0,0.2,0.1,0.3,0.1	c0.1,0,0.1,0.1,0.1,0.1s0,0.1,0,0.2c0,0.1-0.1,0.1-0.1,0.1c-0.2,0.3-0.4,0.6-0.5,0.9c0,0.1-0.1,0.1-0.1,0.2c0,0.1,0,0.1,0,0.2	l0.1,0.1c0.1,0,0.2,0.1,0.3,0.1h0.1c0,0,0.1,0,0,0.1l-0.1,0.1c-0.1,0-0.2,0.1-0.3,0.1c-0.2,0-0.6,0.2-0.7,0.2c0,0-0.1,0-0.1,0.1	h0.1c0.2,0,0.4,0,0.7,0c0.1,0,0.3,0,0.4,0l0,0c0,0,0,0-0.1,0s-0.7,0.3-0.8,0.3c0,0-0.1,0-0.1,0.1c0,0,0,0.1,0.1,0.1	s0.1,0.1,0.2,0.1s0.2,0.1,0.2,0.1c0.1,0.1,0.1,0.1,0,0.3c0,0.1-0.1,0.1-0.1,0.1c-0.2,0.4-0.4,0.8-0.6,1.2c-0.3,0.5-0.5,1.1-0.7,1.6	c-0.1,0.4,0,0.7,0.3,0.7c0,0,0,0,0.1,0c1.7,0,3.4,0,5,0c0.3,0,0.6-0.2,0.8-0.7c0.1-0.2,0.1-0.4,0.2-0.6c0.1-0.2,0.2-0.4,0.2-0.6	c0.2-0.4,0.1-0.6-0.2-0.6h-0.1c-1.1,0-2.1,0-3.2,0h-0.1c0,0-0.1,0,0-0.1c0.1-0.2,0.2-0.4,0.3-0.6c0-0.1,0.1-0.1,0.1-0.1h0.1	c0.8,0,1.5,0,2.3,0c0.4,0,0.7,0,1.1,0c0.2,0,0.4-0.1,0.6-0.4c0.1-0.1,0.1-0.2,0-0.3s-0.2-0.1-0.3-0.1c-0.1,0-0.1-0.1-0.2-0.1	c0,0-0.1,0-0.1-0.1c0,0,0-0.1,0.1-0.1s0.1-0.1,0.2-0.1c0.2-0.1,0.4-0.1,0.6-0.2c0,0,0.1,0,0.1-0.1c0,0,0,0-0.1,0	c-0.3,0-0.6,0-0.9,0c-0.1,0-0.1,0-0.1,0l0,0c0,0,0,0,0.1-0.1c0,0,0.2-0.1,0.3-0.1c0.2-0.1,0.4-0.1,0.6-0.2c0.1,0,0.2-0.1,0.2-0.1	c0-0.1-0.1-0.1-0.1-0.1c-0.1-0.1-0.3-0.1-0.4-0.2c-0.1,0-0.2-0.1-0.2-0.3c0-0.1-0.1-0.2-0.2-0.2s-0.1,0-0.2,0c-1.1,0-2.1,0-3.2,0	h-0.1c-0.1,0-0.1,0,0-0.1c0.1-0.2,0.2-0.4,0.3-0.6c0.1-0.1,0.1-0.1,0.2-0.1s2.2,0,3.3,0c0.1,0,0.1,0,0.2,0c0.2,0,0.4-0.1,0.6-0.2	c0.1-0.1,0.1-0.2,0-0.3s-0.1-0.1-0.2-0.1s-0.2-0.1-0.3-0.1c0,0-0.1,0-0.1-0.1c0,0-0.1,0-0.1-0.1c0,0,0-0.1,0.1-0.1s0.4-0.1,0.5-0.1	c0.3-0.1,0.6-0.1,0.7-0.2C109.2,42.2,109.3,42.2,109.5,42.1C109.4,42.1,109.5,42.1,109.5,42.1z M110.9,42.1L110.9,42.1L110.9,42.1	c0,0.1-0.5,0.2-0.8,0.3c-0.2,0.1-0.5,0.1-0.8,0.2c-0.1,0-0.2,0-0.2,0.1s0.1,0.1,0.1,0.1c0.1,0.1,0.2,0.1,0.3,0.1	c0.1,0.1,0.1,0.1,0,0.3s-0.2,0.4-0.3,0.6c-0.1,0.2-0.2,0.4-0.3,0.5c-0.1,0.2-0.1,0.2,0,0.3c0.1,0,0.1,0.1,0.2,0.1s0.4,0.1,0.5,0.1	c0,0,0.1,0,0.1,0.1c0,0,0,0,0,0.1c0,0-0.1,0-0.1,0.1c-0.1,0-0.3,0.1-0.4,0.2c-0.1,0.1-0.3,0.1-0.3,0.2c0,0.1,0.1,0.1,0.1,0.1	c0.1,0,0.7,0,1,0h0.1l0,0c0,0,0,0,0,0.1c0,0-0.3,0.1-0.4,0.2c-0.1,0-0.2,0.1-0.2,0.1s0,0-0.1,0.1c0,0,0,0,0,0.1	c0,0,0.9,0.2,1.2,0.3c0.7,0.2,1.4,0.4,2,0.7c0.1,0,0.1,0.1,0.2,0.1c0.2,0.1,0.1,0.3-0.1,0.5c-0.1,0.1-0.3,0.2-0.6,0.3	c-0.3,0.1-0.8,0.1-1.2-0.1c-0.3-0.1-0.5-0.2-0.6-0.5c0-0.1-0.1-0.2-0.2-0.2s-0.2,0-0.2,0.1c-0.5,0.2-0.9,0.4-1.4,0.6	c-0.1,0.1-0.2,0.1-0.3,0.3c-0.2,0.2-0.4,0.5-0.3,0.9c0.1,0.3,0.2,0.5,0.4,0.7c0.2,0.2,0.4,0.3,0.7,0.4c0.6,0.2,1.3,0.3,2.1,0.3	c0.3,0,0.7-0.1,1-0.2c0.7-0.2,1.3-0.6,1.9-1.3c0.6-0.6,1-1.4,1.3-2.2c0.1-0.3,0.1-0.4-0.1-0.5s-0.6-0.2-0.6-0.2v-0.1	c0.1,0,0.5-0.1,0.6-0.2c0.1,0,0.2-0.1,0.2-0.1v-0.1c0,0-0.1,0-0.2,0c-0.3,0-0.6,0-0.9,0c-0.1,0-0.1,0-0.2,0c0,0-0.1,0-0.1-0.1	c0,0,0-0.1,0.1-0.1c0.1-0.1,0.3-0.1,0.4-0.2l0.1-0.1c0,0,0-0.1-0.1-0.1s-0.2-0.1-0.3-0.1c-0.3-0.1-0.8-0.2-1.2-0.3	c-0.5-0.1-1.1-0.3-1.4-0.4c-0.3-0.1-0.4-0.1-0.4-0.2c-0.1-0.1-0.1-0.2,0-0.4c0-0.1,0.1-0.1,0.2-0.1s0.2-0.1,0.2-0.1	c0.5-0.1,1-0.1,1.4,0c0.2,0.1,0.3,0.1,0.4,0.3c0,0.1,0.1,0.1,0.2,0.1s0.2,0,0.3-0.1c0.3-0.1,0.7-0.3,1-0.5c0.1,0,0.1-0.1,0.2-0.1	c0,0,0.1,0,0.1-0.1c0,0,0-0.1-0.1-0.1s-0.3-0.1-0.3-0.2c0,0-0.1,0-0.1-0.1s0.1-0.1,0.1-0.1c0.1,0,0.5-0.1,0.8-0.2	c0.3-0.1,0.5-0.1,0.6-0.2c0,0,0.1,0,0.1-0.1c0,0,0,0-0.1,0c0,0-0.1,0-0.2,0c-0.3,0-0.7,0-1,0c-0.1,0-0.1,0-0.2-0.1	s-0.2-0.2-0.2-0.4c-0.2-0.4-0.5-0.6-0.9-0.8c-0.7-0.3-1.5-0.3-2.3-0.1c-0.5,0.1-1.1,0.3-1.6,0.7c-0.1,0.1-0.2,0.1-0.3,0.2	c-0.1,0.1-0.2,0.2-0.2,0.3c-0.1,0.1-0.1,0.2,0.1,0.2C109.8,42,110.8,42.1,110.9,42.1z M124.4,42.1C124.4,42,124.4,42.1,124.4,42.1	c-0.1,0-0.2,0-0.2,0c-0.3,0-0.6,0-0.9,0c-0.1,0-0.1,0-0.2,0c-0.2,0-0.2-0.3-0.1-0.5c0-0.1,0.1-0.1,0.1-0.2c0.1-0.3,0-0.6-0.2-0.6	c-0.1,0-0.1,0-0.2,0c-0.8,0-1.6,0-2.5,0c-0.4,0-0.9,0-1.3,0s-0.8,0-1.3,0c-0.2,0-0.4,0.1-0.6,0.3c-0.1,0.1-0.2,0.3-0.3,0.5	c0,0.1,0,0.2,0,0.3s0.1,0.1,0.2,0.1c0.4,0,0.7,0,1,0c0.1,0,0.1,0,0.2,0l0,0l0,0c0,0-0.3,0.1-0.6,0.2c-0.2,0.1-0.5,0.1-0.7,0.2	c-0.2,0.1-0.3,0.1-0.3,0.1s-0.1,0-0.1,0.1l0,0l0.1,0.1c0.1,0,0.2,0.1,0.3,0.1c0.1,0,0.1,0.1,0.1,0.1s0,0.1,0,0.2	c0,0.1-0.1,0.1-0.1,0.1c-0.2,0.3-0.4,0.6-0.5,0.9c0,0.1-0.1,0.1-0.1,0.2c0,0.1,0,0.1,0,0.2l0.1,0.1c0.1,0,0.2,0.1,0.3,0.1h0.1	c0,0,0.1,0,0,0.1l-0.1,0.1c-0.1,0-0.2,0.1-0.3,0.1c-0.2,0-0.6,0.2-0.7,0.2c0,0-0.1,0-0.1,0.1h0.1c0.2,0,0.4,0,0.7,0	c0.1,0,0.2,0,0.4,0l0,0c0,0,0,0-0.1,0s-0.7,0.3-0.8,0.3c0,0-0.1,0-0.1,0.1c0,0,0,0.1,0.1,0.1s0.1,0.1,0.2,0.1s0.2,0.1,0.2,0.1	c0.1,0.1,0.1,0.1,0,0.3c0,0.1-0.1,0.1-0.1,0.1c-0.2,0.4-0.4,0.8-0.6,1.2c-0.3,0.5-0.5,1.1-0.7,1.6c-0.1,0.4,0,0.7,0.3,0.7	c0,0,0,0,0.1,0c1.7,0,3.4,0,5,0c0.3,0,0.6-0.2,0.8-0.7c0.1-0.2,0.1-0.4,0.2-0.6c0.1-0.2,0.2-0.4,0.2-0.6c0.2-0.4,0.1-0.6-0.2-0.6	h-0.1c-1.1,0-2.1,0-3.2,0h-0.1c0,0-0.1,0,0-0.1c0.1-0.2,0.2-0.4,0.3-0.6c0-0.1,0.1-0.1,0.1-0.1h0.1c0.8,0,1.5,0,2.3,0	c0.4,0,0.7,0,1.1,0c0.2,0,0.4-0.1,0.6-0.4c0.1-0.1,0.1-0.2,0-0.3s-0.2-0.1-0.3-0.1c-0.1,0-0.1-0.1-0.2-0.1c0,0-0.1,0-0.1-0.1	c0,0,0-0.1,0.1-0.1s0.1-0.1,0.2-0.1c0.2-0.1,0.4-0.1,0.6-0.2c0,0,0.1,0,0.1-0.1c0,0,0,0-0.1,0c-0.3,0-0.6,0-0.9,0	c-0.1,0-0.1,0-0.1,0l0,0c0,0,0,0,0.1-0.1c0,0,0.2-0.1,0.3-0.1c0.2-0.1,0.4-0.1,0.6-0.2c0.1,0,0.2-0.1,0.2-0.1	c0-0.1-0.1-0.1-0.1-0.1c-0.1-0.1-0.3-0.1-0.4-0.2c-0.1,0-0.2-0.1-0.2-0.3c0-0.1-0.1-0.2-0.2-0.2s-0.1,0-0.2,0c-1.1,0-2.1,0-3.2,0	h-0.1c-0.1,0-0.1,0,0-0.1c0.1-0.2,0.2-0.4,0.3-0.6c0.1-0.1,0.1-0.1,0.2-0.1s2.2,0,3.3,0c0.1,0,0.1,0,0.2,0c0.2,0,0.4-0.1,0.6-0.2	c0.1-0.1,0.1-0.2,0-0.3c-0.1,0-0.1-0.1-0.2-0.1s-0.2-0.1-0.2-0.1s-0.1,0-0.1-0.1c0,0-0.1,0-0.1-0.1c0,0,0-0.1,0.1-0.1	s0.4-0.1,0.5-0.1c0.3-0.1,0.6-0.1,0.7-0.2C124.2,42.2,124.3,42.2,124.4,42.1L124.4,42.1z M130.6,42c0.1,0,0.1,0,0.1,0.1	c0,0-0.1,0.1-0.2,0.1c-0.3,0.1-0.6,0.1-0.9,0.2c-0.1,0-0.3,0.1-0.4,0.1l-0.1,0.1l0.1,0.1c0.1,0.1,0.4,0.2,0.5,0.2	c0.1,0.1,0.1,0.1,0,0.2c0,0.1-0.1,0.1-0.1,0.2c-0.2,0.3-0.3,0.5-0.5,0.8s-0.2,0.3,0,0.4c0.1,0.1,0.3,0.1,0.4,0.1	c0.1,0,0.1,0.1,0.1,0.1c0,0.1-0.1,0.1-0.2,0.1c-0.1,0-0.4,0.1-0.6,0.2c-0.1,0-0.4,0.1-0.5,0.1h-0.1l0.1-0.1c0.1,0,0.2-0.1,0.3-0.1	s0.2-0.1,0.3-0.1s0.1,0,0.1-0.1v-0.1c0,0-0.2-0.1-0.3-0.1c-0.2-0.1-0.4-0.1-0.6-0.2c-0.1,0-0.2-0.1-0.3-0.3	c-0.1-0.3-0.2-0.6-0.3-0.9c-0.1-0.3-0.2-0.4-0.5-0.4c-0.1,0-0.3-0.1-0.5-0.1c-0.1,0-0.1,0-0.2-0.1c0,0-0.1,0-0.1-0.1l0.1-0.1	c0.1,0,0.2-0.1,0.3-0.1c0.2-0.1,0.4-0.1,0.6-0.2c0.1,0,0.2-0.1,0.2-0.1c0-0.1-0.1-0.1-0.2-0.1s-0.8,0-1.1,0c-0.1,0-0.2,0-0.4-0.1	c-0.1-0.1-0.3-0.3-0.4-0.4c-0.1-0.1-0.1-0.3-0.2-0.4c-0.1-0.1-0.2-0.2-0.3-0.1c-0.2,0-0.6,0.3-0.7,0.6c-0.1,0.1-0.1,0.2-0.1,0.3	s0.1,0.2,0.3,0.2c0.4,0,1.2,0,1.2,0l0,0c0,0,0,0-0.1,0.1c0,0-0.4,0.1-0.6,0.2c-0.3,0.1-0.5,0.1-0.8,0.2c-0.1,0-0.1,0-0.2,0.1	c-0.1,0-0.1,0.1,0,0.1c0,0,0.1,0,0.1,0.1c0.1,0.1,0.2,0.1,0.3,0.1c0.2,0.1,0.2,0.1,0,0.4c-0.2,0.3-0.4,0.6-0.5,0.9	c-0.1,0.2-0.1,0.3,0,0.3s0.4,0.1,0.4,0.2c0,0,0.1,0,0.1,0.1s-0.1,0.1-0.2,0.1s-0.5,0.1-0.7,0.2c-0.2,0.1-0.3,0.2-0.3,0.2s0,0,0.1,0	s0.3,0,0.5,0s0.4,0,0.6,0h0.1c0,0,0,0.1-0.1,0.1s-0.4,0.1-0.6,0.2c-0.2,0-0.3,0.1-0.4,0.1c0,0-0.1,0-0.1,0.1l0.1,0.1	c0.1,0,0.4,0.2,0.5,0.2c0.1,0.1,0.1,0.1,0,0.3c-0.1,0.1-0.1,0.2-0.2,0.3c-0.5,0.9-0.9,1.7-1.2,2.6c-0.1,0.4-0.1,0.7,0.2,0.7	c0.4,0,0.7,0,1.1,0c0.2,0,0.3-0.1,0.5-0.3c0.1-0.1,0.2-0.2,0.2-0.4c0.1-0.2,0.2-0.4,0.2-0.6c0.3-0.8,0.7-1.5,1.1-2.2	c0-0.1,0.1-0.1,0.1-0.2c0.1-0.1,0.1-0.2,0-0.2c0,0-0.1,0-0.1-0.1c-0.1,0-0.3-0.1-0.4-0.1s-0.2,0-0.1-0.1c0-0.1,0.1-0.1,0.2-0.1	s0.5-0.2,0.6-0.2s0.2-0.1,0.3-0.1c0.1,0,0.1,0,0.1,0c0,0.1-0.1,0.1-0.1,0.1c-0.1,0-0.3,0.1-0.4,0.1s-0.1,0-0.2,0.1	c-0.1,0-0.1,0.1,0,0.1h0.1c0.2,0.1,0.4,0.1,0.6,0.2c0.2,0.1,0.3,0.2,0.4,0.4c0.1,0.4,0.3,0.8,0.5,1.2c0.3,0.7,0.7,1.4,1,2.1	c0.2,0.3,0.5,0.2,0.8-0.1c0.1-0.1,0.2-0.2,0.2-0.4c0.2-0.3,0.3-0.7,0.4-1c0.3-0.6,0.6-1.1,0.9-1.7c0.1-0.2,0.1-0.3,0-0.3	c0,0-0.3-0.1-0.4-0.2c-0.1,0-0.2-0.1-0.2-0.1l0.2-0.1c0.2-0.1,0.4-0.1,0.6-0.1c0.1,0,0.2-0.1,0.3-0.1l0.1-0.1H131c-0.4,0-0.7,0-1,0	h-0.1c0,0,0.1-0.1,0.2-0.2c0.2-0.1,0.6-0.2,0.8-0.2c0.1,0,0.1,0,0.2-0.1c0.1,0,0.1-0.1,0-0.1s-0.1-0.1-0.2-0.1	c-0.1-0.1-0.2-0.1-0.4-0.1c-0.1-0.1-0.1-0.1,0-0.3c0.2-0.3,0.4-0.6,0.5-0.9c0-0.1,0.1-0.1,0.1-0.2c0-0.1,0-0.2,0-0.2	c-0.1-0.1-0.5-0.2-0.6-0.3c0,0,0,0,0-0.1c0,0,0,0,0.1-0.1h0.1c0.2,0,0.7-0.2,0.9-0.2c0.2-0.1,0.4-0.1,0.4-0.1s0.1,0,0.1-0.1	c0,0,0,0-0.1,0h-0.1c-0.4,0-0.7,0-1.1,0C130.7,42.1,130.6,42.1,130.6,42c-0.1-0.1-0.1-0.3,0-0.5c0.2-0.4,0.1-0.7-0.2-0.7	s-0.6,0-0.9,0c-0.3,0-0.6,0.3-0.8,0.7c-0.1,0.3-0.1,0.6,0.2,0.6C129.7,42.1,130.4,42,130.6,42z M134.5,42c0.1,0,0.1,0,0.2,0l0,0	C134.7,42,134.7,42,134.5,42c0,0.1-0.4,0.2-0.7,0.3c-0.4,0.1-0.7,0.1-1,0.2c-0.1,0-0.1,0-0.2,0.1c0,0.1,0,0.1,0.1,0.1	s0.1,0.1,0.2,0.1c0,0,0.1,0,0.1,0.1c0.1,0.1,0.1,0.1,0,0.2c0,0.1-0.1,0.1-0.1,0.1c-0.3,0.3-0.6,0.6-0.8,1c-0.1,0.2-0.1,0.3,0,0.3	s0.1,0.1,0.1,0.1c0.1,0,0.3,0.1,0.3,0.1s0,0,0,0.1c0,0,0,0-0.1,0.1c-0.1,0-0.1,0-0.1,0c-0.1,0-0.2,0.1-0.3,0.1s-0.2,0.1-0.4,0.1	c-0.2,0.1-0.2,0.1-0.2,0.1s0,0,0,0.1l0,0h0.1c0.3,0,0.5,0,0.8,0h0.1l0,0l0,0c0,0-0.1,0.1-0.2,0.1c-0.2,0.1-0.2,0.1-0.4,0.1	c-0.1,0-0.2,0.1-0.2,0.1s-0.1,0-0.1,0.1v0.1c0.1,0,0.1,0.1,0.2,0.1c0.1,0.1,0.2,0.1,0.3,0.1c0.1,0.1,0.1,0.1,0,0.3	c-0.1,0.3-0.2,0.7-0.3,1c-0.1,0.7,0,1.3,0.3,1.7c0.2,0.3,0.5,0.6,0.8,0.7c0.4,0.2,1,0.3,1.5,0.4c0.6,0,1.2-0.1,1.9-0.3	c0.7-0.3,1.4-0.7,2-1.2c0.2-0.2,0.3-0.4,0.4-0.6c0.1-0.2,0.1-0.4-0.1-0.5c-0.2-0.2-0.5-0.4-0.7-0.6c-0.1-0.1-0.2-0.1-0.3-0.1	s-0.2,0.1-0.3,0.1c-0.2,0.1-0.4,0.2-0.6,0.3c-0.6,0.2-1.3,0.2-1.8,0.1c-0.2,0-0.4-0.1-0.5-0.3c-0.1-0.1-0.2-0.3-0.1-0.6	c0-0.1,0-0.1,0-0.2c0.1-0.2,0-0.3-0.1-0.3c-0.1-0.1-0.2-0.1-0.2-0.1c-0.1,0-0.1-0.1-0.2-0.1l-0.1-0.1l0.1-0.1	c0.1-0.1,0.2-0.1,0.4-0.1c0.1,0,0.3-0.1,0.4-0.1c0,0,0.1,0,0.1-0.1l0,0c-0.3,0-0.6,0-0.9,0h-0.1l0,0c0,0,0,0,0.1,0s0.2-0.1,0.3-0.1	s0.4-0.1,0.6-0.2c0.1,0,0.1-0.1,0.2-0.1c0.1,0,0.1-0.1,0-0.1c0,0-0.1-0.1-0.2-0.1c-0.1,0-0.2-0.1-0.3-0.1c-0.2-0.1-0.2-0.1,0-0.3	c0.1-0.1,0.1-0.1,0.2-0.2c0.3-0.3,0.7-0.5,1-0.6c0.6-0.2,1.1-0.2,1.6-0.1c0.3,0.1,0.5,0.2,0.7,0.5c0.1,0.1,0.1,0.1,0.2,0.1	c0.1,0,0.2,0,0.2-0.1c0.5-0.2,1-0.4,1.5-0.7c0.1,0,0.1-0.1,0.2-0.1c0.1,0,0.1-0.1,0.1-0.1c0-0.1-0.1-0.1-0.1-0.1	c-0.1,0-0.1-0.1-0.2-0.1c-0.1,0-0.1,0-0.2-0.1c-0.1,0-0.1-0.1-0.1-0.1c0-0.1,0.1-0.1,0.2-0.1c0.1,0,0.4-0.1,0.4-0.1	c0.3-0.1,0.6-0.2,0.8-0.2c0.1,0,0.1-0.1,0.1-0.1c0-0.1-0.1,0-0.1,0c-0.1,0-0.8,0-1.2,0c-0.1,0-0.2,0-0.3,0	c-0.2-0.1-0.2-0.2-0.4-0.4c-0.3-0.5-0.7-0.7-1.2-0.9c-0.7-0.2-1.5-0.2-2.4,0c-0.6,0.2-1.2,0.4-1.8,0.8c-0.1,0.1-0.2,0.1-0.3,0.2	c-0.1,0.1-0.1,0.1-0.1,0.2c0,0.1,0.1,0.1,0.1,0.1C133.6,42,134.3,42,134.5,42z M148.5,42.1C148.5,42,148.4,42.1,148.5,42.1	c-0.1,0-0.2,0-0.2,0c-0.3,0-0.6,0-0.9,0c-0.1,0-0.1,0-0.2,0c-0.2,0-0.2-0.3-0.1-0.5c0-0.1,0.1-0.1,0.1-0.2c0.1-0.3,0-0.6-0.2-0.6	c-0.1,0-0.1,0-0.2,0c-0.8,0-1.6,0-2.5,0c-0.4,0-0.9,0-1.3,0c-0.4,0-0.8,0-1.3,0c-0.2,0-0.4,0.1-0.6,0.3c-0.1,0.1-0.2,0.3-0.3,0.5	c0,0.1,0,0.2,0,0.3s0.1,0.1,0.2,0.1c0.4,0,0.7,0,1,0c0.1,0,0.1,0,0.2,0l0,0l0,0c0,0-0.3,0.1-0.6,0.2c-0.2,0.1-0.5,0.1-0.7,0.2	c-0.2,0.1-0.3,0.1-0.3,0.1s-0.1,0-0.1,0.1l0,0l0.1,0.1c0.1,0,0.2,0.1,0.3,0.1s0.1,0.1,0.1,0.1s0,0.1,0,0.2c0,0.1-0.1,0.1-0.1,0.1	c-0.2,0.3-0.4,0.6-0.5,0.9c0,0.1-0.1,0.1-0.1,0.2c0,0.1,0,0.1,0,0.2l0.1,0.1c0.1,0,0.2,0.1,0.3,0.1h0.1c0,0,0.1,0,0,0.1l-0.1,0.1	c-0.1,0-0.2,0.1-0.2,0.1c-0.2,0-0.6,0.2-0.7,0.2c0,0-0.1,0-0.1,0.1h0.1c0.2,0,0.4,0,0.7,0c0.1,0,0.2,0,0.4,0l0,0c0,0,0,0-0.1,0	s-0.7,0.3-0.8,0.3c0,0-0.1,0-0.1,0.1c0,0,0,0.1,0.1,0.1s0.1,0.1,0.2,0.1c0.1,0,0.2,0.1,0.2,0.1c0.1,0.1,0.1,0.1,0,0.3	c0,0.1-0.1,0.1-0.1,0.1c-0.2,0.4-0.4,0.8-0.6,1.2c-0.3,0.5-0.5,1.1-0.7,1.6c-0.1,0.4,0,0.7,0.3,0.7c0,0,0,0,0.1,0c1.7,0,3.4,0,5,0	c0.3,0,0.6-0.2,0.8-0.7c0.1-0.2,0.1-0.4,0.2-0.6c0.1-0.2,0.2-0.4,0.2-0.6c0.2-0.4,0.1-0.6-0.2-0.6h-0.1c-1.1,0-2.1,0-3.2,0H142	c0,0-0.1,0,0-0.1c0.1-0.2,0.2-0.4,0.3-0.6c0-0.1,0.1-0.1,0.1-0.1h0.1c0.8,0,1.5,0,2.3,0c0.4,0,0.7,0,1.1,0c0.2,0,0.4-0.1,0.6-0.4	c0.1-0.1,0.1-0.2,0-0.3s-0.2-0.1-0.3-0.1s-0.1-0.1-0.2-0.1c0,0-0.1,0-0.1-0.1c0,0,0-0.1,0.1-0.1s0.1-0.1,0.2-0.1	c0.2-0.1,0.4-0.1,0.6-0.2c0,0,0.1,0,0.1-0.1c0,0,0,0-0.1,0c-0.3,0-0.6,0-0.9,0c-0.1,0-0.1,0-0.1,0l0,0c0,0,0,0,0.1-0.1	c0,0,0.2-0.1,0.3-0.1c0.2-0.1,0.4-0.1,0.6-0.2c0.1,0,0.2-0.1,0.2-0.1c0-0.1-0.1-0.1-0.1-0.1c-0.1-0.1-0.3-0.1-0.4-0.2	c-0.1,0-0.2-0.1-0.2-0.3c0-0.1-0.1-0.2-0.2-0.2c-0.1,0-0.1,0-0.2,0c-1.1,0-2.1,0-3.2,0h-0.1c-0.1,0-0.1,0,0-0.1	c0.1-0.2,0.2-0.4,0.3-0.6C143,43,143,43,143.1,43c0.1,0,2.2,0,3.3,0c0.1,0,0.1,0,0.2,0c0.2,0,0.4-0.1,0.6-0.2	c0.1-0.1,0.1-0.2,0-0.3c-0.1,0-0.1-0.1-0.2-0.1c-0.1,0-0.2-0.1-0.2-0.1s-0.1,0-0.1-0.1c0,0-0.1,0-0.1-0.1c0,0,0-0.1,0.1-0.1	s0.4-0.1,0.5-0.1c0.3-0.1,0.6-0.1,0.7-0.2C148.2,42.2,148.3,42.2,148.5,42.1C148.4,42.1,148.5,42.1,148.5,42.1z"></path></a></svg>