<?xml version="1.0" encoding="utf-8"?>
<!-- Generator: Adobe Illustrator 19.2.1, SVG Export Plug-In . SVG Version: 6.00 Build 0)  -->
<svg version="1.1" id="layer" xmlns="http://www.w3.org/2000/svg" xmlns:xlink="http://www.w3.org/1999/xlink" x="0px" y="0px"
	 viewBox="0 0 652 200" style="enable-background:new 0 0 652 200;" width="100" xml:space="preserve">
<style type="text/css">
	.st0{fill:#0091E2;}
</style>
<path class="st0" d="M 303 70 c -3.2 -0.1 -5.8 2.4 -5.9 5.5 c 0 0.1 0 0.3 0 0.4 v 28.4 c -13.7 -11 -33.8 -8.8 -44.8 4.9 c -4.5 5.7 -7 12.7 -7 20 c -0.3 17.6 13.7 32.1 31.3 32.4 c 17.6 0.3 32.1 -13.7 32.4 -31.3 c 0 -0.4 0 -0.7 0 -1.1 v -53.3 c 0 -1.6 -0.6 -3.1 -1.7 -4.2 C 306.1 70.6 304.6 70 303 70 M 295.5 136.9 c -2 4.8 -5.8 8.6 -10.6 10.7 c -5 2.1 -10.6 2.1 -15.6 0 c -4.8 -2 -8.5 -5.9 -10.5 -10.6 c -2.1 -4.9 -2.1 -10.5 0 -15.5 c 2 -4.8 5.8 -8.6 10.5 -10.6 c 5 -2.1 10.6 -2.1 15.6 0 c 4.8 2.1 8.6 5.9 10.6 10.7 C 297.6 126.4 297.6 132 295.5 136.9 M 369.5 106.7 c -12.4 -12.4 -32.6 -12.4 -45 0 c -6 6 -9.3 14.1 -9.3 22.5 c -0.3 17.6 13.7 32.1 31.3 32.4 c 17.6 0.3 32.1 -13.7 32.4 -31.3 c 0 -0.4 0 -0.7 0 -1.1 c 0 -4.2 -0.8 -8.3 -2.4 -12.2 C 374.9 113.1 372.5 109.6 369.5 106.7 M 365.4 136.8 c -1 2.4 -2.5 4.5 -4.3 6.3 c -1.8 1.8 -4 3.3 -6.3 4.3 c -5 2.1 -10.6 2.1 -15.6 0 c -4.8 -2 -8.6 -5.9 -10.6 -10.6 c -2.1 -4.9 -2.1 -10.5 0 -15.5 c 2 -4.8 5.8 -8.5 10.6 -10.6 c 5 -2.1 10.6 -2.1 15.6 0 c 2.4 1 4.5 2.5 6.3 4.3 c 1.8 1.8 3.3 4 4.3 6.3 C 367.5 126.4 367.5 132 365.4 136.8 M 501.2 103.2 c 0 -0.8 -0.2 -1.6 -0.5 -2.3 c -0.3 -0.7 -0.8 -1.3 -1.3 -1.9 c -0.5 -0.5 -1.2 -1 -1.9 -1.3 c -0.7 -0.3 -1.5 -0.5 -2.3 -0.5 c -1.1 0 -2.2 0.3 -3.2 0.9 l -34 22.1 V 76 c 0 -1.6 -0.6 -3.1 -1.7 -4.2 c -1.1 -1.1 -2.6 -1.8 -4.2 -1.8 c -3.3 0 -5.9 2.6 -6 5.9 c 0 0 0 0 0 0.1 V 155 c 0 1.6 0.6 3.1 1.7 4.2 c 1.1 1.2 2.6 1.8 4.2 1.8 c 1.6 0 3.1 -0.6 4.2 -1.8 c 1.1 -1.1 1.8 -2.6 1.7 -4.2 v -20.5 l 6.9 -4.5 l 26.3 29.5 c 1.1 1 2.5 1.6 4 1.5 c 0.8 0 1.6 -0.1 2.3 -0.5 c 0.7 -0.3 1.3 -0.7 1.9 -1.3 c 0.5 -0.6 1 -1.2 1.3 -1.9 c 0.3 -0.7 0.5 -1.5 0.5 -2.3 c 0 -1.5 -0.6 -3 -1.6 -4.1 l -24.4 -27.5 l 23.8 -15.5 C 500.5 106.9 501.3 105.1 501.2 103.2 M 402.5 115 c 1.8 -1.8 4 -3.3 6.4 -4.3 c 2.5 -1 5.1 -1.6 7.8 -1.6 c 2.4 0 4.7 0.4 6.9 1.2 c 2.2 0.9 4.3 2.1 6.1 3.7 c 1.1 0.9 2.5 1.3 3.9 1.3 c 1.6 0.1 3.2 -0.5 4.3 -1.7 c 1.1 -1.1 1.7 -2.7 1.7 -4.3 c 0 -1.7 -0.7 -3.4 -2.1 -4.5 c -5.7 -5.1 -13.1 -7.9 -20.8 -7.7 c -17.6 0 -31.9 14.3 -31.9 31.9 c 0 17.6 14.2 31.8 31.7 31.9 c 7.7 0 15.1 -2.7 20.9 -7.7 c 1.2 -1.1 1.9 -2.7 1.9 -4.4 c 0.1 -3.2 -2.4 -5.8 -5.5 -5.9 c -0.1 0 -0.3 0 -0.4 0 c -1.4 0 -2.7 0.4 -3.8 1.2 c -1.8 1.6 -3.8 2.8 -6 3.7 c -2.2 0.8 -4.6 1.2 -6.9 1.2 c -2.7 0 -5.3 -0.5 -7.8 -1.6 c -2.4 -1 -4.5 -2.5 -6.4 -4.3 c -7.8 -7.8 -7.8 -20.4 -0.1 -28.2 C 402.5 115.1 402.5 115.1 402.5 115 M 619.3 101.3 c -1.2 -1.1 -2.5 -1.9 -4 -2.4 c -1.7 -0.6 -3.5 -1 -5.3 -1.2 c -1.8 -0.2 -3.6 -0.3 -5.4 -0.3 c -3.6 0 -7.3 0.6 -10.7 1.9 c -3.4 1.2 -6.5 3 -9.3 5.2 v -1.2 c -0.1 -3.3 -2.9 -5.8 -6.2 -5.7 c -3.1 0.1 -5.6 2.6 -5.7 5.7 v 51.9 c 0.1 3.3 2.9 5.8 6.2 5.7 c 3.1 -0.1 5.6 -2.6 5.7 -5.7 v -25.9 c 0 -2.7 0.5 -5.3 1.6 -7.8 c 1 -2.4 2.4 -4.5 4.3 -6.3 c 1.8 -1.8 4 -3.3 6.3 -4.3 c 2.5 -1 5.1 -1.6 7.8 -1.6 c 2.7 0 5.3 0.5 7.8 1.4 c 0.8 0.4 1.6 0.6 2.5 0.6 c 0.8 0 1.6 -0.1 2.3 -0.5 c 0.7 -0.3 1.3 -0.7 1.9 -1.3 c 0.5 -0.5 1 -1.2 1.3 -1.9 c 0.3 -0.7 0.5 -1.5 0.5 -2.3 C 621 103.8 620.4 102.4 619.3 101.3 M 564.1 117 c -5.1 -11.8 -16.7 -19.5 -29.5 -19.6 c -17.6 0 -31.8 14.2 -31.9 31.8 c 0 0 0 0 0 0 c 0 17.6 14.3 31.9 31.9 31.9 c 7.6 0 15 -2.7 20.8 -7.7 c 0.1 -0.1 0.2 -0.2 0.2 -0.2 c 0.5 -0.4 1 -0.9 1.3 -1.5 c 1.9 -2.8 1.2 -6.5 -1.5 -8.4 c -2.3 -1.5 -5.3 -1.2 -7.3 0.7 c -0.2 0.2 -0.8 0.7 -0.8 0.8 l -0.1 0.1 c -1.7 1.4 -3.6 2.6 -5.7 3.3 c -2.2 0.8 -4.5 1.2 -6.9 1.1 c -2.2 0 -4.3 -0.3 -6.4 -1 c -2 -0.7 -3.9 -1.6 -5.6 -2.9 c -1.7 -1.2 -3.2 -2.7 -4.4 -4.4 c -1.3 -1.7 -2.2 -3.7 -2.8 -5.7 h 45 c 1.6 0 3.1 -0.6 4.2 -1.7 c 1.2 -1.1 1.8 -2.6 1.7 -4.2 C 566.4 125.1 565.6 120.9 564.1 117 M 515.4 123.4 c 0.6 -2.1 1.5 -4 2.8 -5.7 c 1.2 -1.7 2.7 -3.2 4.4 -4.4 c 1.7 -1.2 3.6 -2.2 5.6 -2.9 c 2 -0.7 4.2 -1 6.3 -1 c 2.1 0 4.3 0.3 6.3 1 c 4 1.3 7.5 3.9 10 7.3 c 1.3 1.7 2.2 3.7 2.9 5.7 H 515.4 z M 599 152.4 c -2.3 0 -4.1 1.9 -4.1 4.2 c 0 2.3 1.9 4.1 4.2 4.1 c 2.3 0 4.1 -1.9 4.1 -4.1 C 603.2 154.2 601.3 152.4 599 152.4 C 599 152.4 599 152.4 599 152.4 M 599 159.8 c -1.8 0.1 -3.3 -1.3 -3.4 -3.1 c -0.1 -1.8 1.3 -3.3 3.1 -3.4 c 1.8 -0.1 3.3 1.3 3.4 3.1 c 0 0.1 0 0.1 0 0.2 c 0.1 1.7 -1.3 3.2 -3 3.2 C 599.1 159.8 599.1 159.8 599 159.8 M 600 156.6 L 600 156.6 c 0.5 -0.1 0.8 -0.5 0.8 -1 c 0 -0.4 -0.1 -0.7 -0.4 -0.9 c -0.4 -0.2 -0.9 -0.3 -1.4 -0.3 c -0.5 0 -1.1 0 -1.6 0.1 v 4.1 h 0.9 V 157 h 0.4 c 0.5 0 0.8 0.2 0.9 0.6 c 0.1 0.3 0.2 0.7 0.3 1 h 1 c -0.2 -0.3 -0.3 -0.7 -0.3 -1 C 600.7 157.2 600.4 156.8 600 156.6 M 598.8 156.3 h -0.5 v -1.2 c 0.2 0 0.4 0 0.5 0 c 0.6 0 0.9 0.3 0.9 0.6 C 599.8 156.1 599.3 156.4 598.8 156.3 M 234.4 83.4 c -0.6 -0.5 -6 -4.6 -17.6 -4.6 c -3 0 -6.1 0.3 -9.1 0.8 c -2.2 -15.3 -14.9 -22.7 -15.4 -23.1 l -3.1 -1.8 l -2 2.9 c -2.5 3.9 -4.4 8.3 -5.5 12.8 c -2.1 8.7 -0.8 16.9 3.6 23.9 c -5.3 3 -13.9 3.7 -15.7 3.8 h -142 c -3.7 0 -6.7 3 -6.7 6.7 c -0.2 12.4 1.9 24.8 6.2 36.5 c 4.9 12.8 12.2 22.3 21.6 28.1 c 10.6 6.5 27.9 10.2 47.4 10.2 c 8.8 0 17.6 -0.8 26.3 -2.4 c 12.1 -2.2 23.7 -6.4 34.4 -12.5 c 8.8 -5.1 16.7 -11.6 23.4 -19.2 c 11.3 -12.7 18 -26.9 22.9 -39.5 c 0.7 0 1.3 0 2 0 c 12.3 0 19.9 -4.9 24.1 -9.1 c 2.8 -2.6 4.9 -5.8 6.4 -9.4 l 0.9 -2.6 L 234.4 83.4 z M 40.8 94 h 19 c 0.9 0 1.7 -0.7 1.7 -1.7 l 0 0 v -17 c 0 -0.9 -0.7 -1.7 -1.7 -1.7 c 0 0 0 0 0 0 h -19 c -0.9 0 -1.7 0.7 -1.7 1.7 c 0 0 0 0 0 0 v 17 C 39.2 93.3 39.9 94 40.8 94 L 40.8 94 M 67 94 h 19 c 0.9 0 1.7 -0.7 1.7 -1.7 l 0 0 v -17 c 0 -0.9 -0.7 -1.7 -1.7 -1.7 c 0 0 0 0 0 0 H 67 c -0.9 0 -1.7 0.7 -1.7 1.7 v 17 C 65.4 93.3 66.1 94 67 94 M 93.7 94 h 19 c 0.9 0 1.7 -0.7 1.7 -1.7 l 0 0 v -17 c 0 -0.9 -0.7 -1.7 -1.7 -1.7 c 0 0 0 0 0 0 h -19 c -0.9 0 -1.7 0.7 -1.7 1.7 c 0 0 0 0 0 0 v 17 C 92 93.3 92.7 94 93.7 94 L 93.7 94 M 120 94 h 19 c 0.9 0 1.7 -0.7 1.7 -1.7 v -17 c 0 -0.9 -0.7 -1.7 -1.7 -1.7 l 0 0 h -19 c -0.9 0 -1.7 0.7 -1.7 1.7 c 0 0 0 0 0 0 v 17 C 118.3 93.3 119.1 94 120 94 L 120 94 M 67 69.7 h 19 c 0.9 0 1.7 -0.8 1.7 -1.7 v -17 c 0 -0.9 -0.7 -1.7 -1.7 -1.7 l 0 0 H 67 c -0.9 0 -1.7 0.7 -1.7 1.7 v 17 C 65.4 68.9 66.1 69.7 67 69.7 M 93.7 69.7 h 19 c 0.9 0 1.7 -0.8 1.7 -1.7 v -17 c 0 -0.9 -0.7 -1.7 -1.7 -1.7 l 0 0 h -19 c -0.9 0 -1.7 0.7 -1.7 1.7 l 0 0 v 17 C 92 68.9 92.7 69.7 93.7 69.7 M 120 69.7 h 19 c 0.9 0 1.7 -0.8 1.7 -1.7 v -17 c 0 -0.9 -0.8 -1.7 -1.7 -1.7 h -19 c -0.9 0 -1.7 0.7 -1.7 1.7 l 0 0 v 17 C 118.3 68.9 119.1 69.7 120 69.7 M 120 45.3 h 19 c 0.9 0 1.7 -0.7 1.7 -1.7 v -17 c 0 -0.9 -0.8 -1.7 -1.7 -1.7 h -19 c -0.9 0 -1.7 0.7 -1.7 1.7 l 0 0 v 17 C 118.3 44.5 119.1 45.3 120 45.3 M 146.5 94 h 19 c 0.9 0 1.7 -0.7 1.7 -1.7 v -17 c 0 -0.9 -0.7 -1.7 -1.7 -1.7 l 0 0 h -19 c -0.9 0 -1.7 0.7 -1.7 1.7 c 0 0 0 0 0 0 v 17 C 144.9 93.3 145.6 94 146.5 94"/>
</svg>
