<?xml version="1.0" encoding="UTF-8"?><svg id="a" xmlns="http://www.w3.org/2000/svg" width="64.76mm" height="81.62mm" viewBox="0 0 183.58 231.36"><path d="M150.51,204.71c-24.97,26.22-61.26,34.99-94.22,17.71C24.69,205.84,5.94,169.95,1.3,135.48-3.08,102.97,3.54,67.76,22.07,40.5,35.23,21.15,54.73,5.73,78.19,1.43c5.22-.96,11.42-1.66,16.77-1.36,1.95.11,4.37.53,6.3.79,41.46,5.49,68.84,42.43,78.27,80.85,10.26,41.82,1.19,91.26-29.02,123ZM143.15,22.98C115.08-2.01,77.73-4.86,47.06,17.56c-58.26,42.59-59.18,147.7-3.96,193.23,30.1,24.81,69.13,24.21,98.66-1.11,28.55-24.48,41.34-64.96,39.25-101.88-1.77-31.35-14.13-63.69-37.86-84.82Z" fill="#a12031"/><path d="M133.57,182.64c-13.74,16.38-34.26,27.52-55.89,19.96-27.01-9.44-43.24-38.69-47.87-65.56-6.38-37.02,4.47-85.61,39.92-104.69,34.82-18.75,66.63,10.5,78.57,41.87,12.89,33.88,9.05,80.08-14.73,108.42ZM123.46,41.88c-16.48-14.14-35.05-17.96-54.37-6.49-37.83,22.46-46.07,79.67-32.5,118.36,6.91,19.71,21.2,39.03,41.33,46.5,27.08,10.05,52.21-11.7,63.89-34.38,19.16-37.24,14.71-95.62-18.35-124Z" fill="#a12031"/><path d="M61.1,32.03c1.04,1.21-1.06,2.2-1.86,2.97-.85.81-1.85,2.16-2.69,2.83-.64.51-.9.54-1.74.43-2.08-.29-4.61-1.35-6.63-1.52-.18-.01-.55-.01-.65.13-.14.19-.21,1.32-.13,1.58.09.31,1.68,1.69,2.03,1.77.88.21,1.43-.41,2.11-.14.15.06.79.57.86.72.57,1.22-1.39,2.22-2.14,2.92-.6.57-1.24,1.14-1.82,1.72-1.05,1.04-1.98,3.1-3.69,2.55.68,1.76-.4,4.04-1.29,5.6-3.2,5.61-8.24,7.49-14.2,4.44-5.42-2.77-8.06-8.33-3.86-13.58.62-.78,1.76-1.56,2.29-2.31.57-.82.26-1.86,1.58-2.11.31-.06,1.37.37,1.73.51,1,.39,2.22.93,3.22,1.38.38.17.82.32.93.78.17.77-.14,1.48-.96,1.6-2.04.29-6.56-.08-5.8,3.32.31,1.39,3.16,3.26,4.38,3.89,1.74.9,4.45,2,6.35,1.26,1.55-.6,2.07-1.94,1.83-3.53-.1-.69-1.17-2.2-.48-2.93.95-1,2.91,1.16,3.9,1.41,0-.43-.16-.81-.14-1.25.02-.39.28-.71.22-.98-.1-.47-1.31-1.58-1.71-1.97-2.28-2.19-4.85-4.19-7.16-6.36-.92-.58-1.1-.1-1.9-.07-.74.03-1.75-.55-1.64-1.37.09-.67,2.61-2.51,3.22-3.09.7-.66,2.88-3.26,3.48-3.48.92-.34,1.75.52,1.71,1.44s-.41.96.26,1.83c.53.69,1.92,1.92,2.63,2.49.49.39.95.55,1.05-.25.13-1.01.06-3.13,0-4.21-.03-.5-.11-1.95-.41-2.22-.53-.48-1.08.38-1.88.05-2.55-1.06.56-2.84,1.43-3.66,1.21-1.15,2.31-2.42,3.49-3.6.59-.39,1.27-.12,1.7.38.78.91-.01,1.34-.36,2.14-.31.71-.52,2.78-.57,3.64-.03.52-.1,2.58.19,2.84.43.38,2.7.55,3.39.68,1.87.34,4.93,1.12,6.73,1.15,1.12.02,2.06-.96,3.03.17Z" fill="#a12031"/><path d="M152.58,48.71c-2.11,1.69-4.14,3.53-6.22,5.26-.71,1.03.47,1.68-.72,2.69-.45.38-.75.54-1.35.29-.53-.22-2.26-2.86-2.79-3.51-.62-.75-2.81-2.63-2.73-3.52.17-1.77,2.34-.75,3.3-1.17.54-.23,2.54-1.92,3.11-2.41,1.13-.97,2.18-1.74-.2-1.64-2.71.12-5.93.86-8.68,1.16-1.04.12-2.52.48-2.09-1.17,1.07-2.88,3.04-5.83,4.06-8.68.31-.85.13-1.45-.87-1-.51.23-4.23,2.69-4.51,3.03-.69.82.2,1.58-.97,2.37-.6.41-.82.41-1.43,0-.24-.16-2.74-3.14-2.88-3.42-.43-.86.89-1.58,1.61-1.49.32.04.55.3.83.36.78.17,1.23-.2,1.86-.57,3.08-1.81,5.98-4.18,9-6.09.75-.78-.1-1.54.46-2.3,1.55-2.12,3.37,1.51,4.21,2.49.47.55,1.84,1.56,1.84,2.23-1.24,3.17-2.98,6.15-4.44,9.23-.17.52.37.72.81.68,2.91-.46,5.81-1.13,8.72-1.53.51-.07,1.3-.25,1.78-.14.66.15,1.7,1.94,2.2,2.53s2.16,2.15,2.3,2.69c.16.63-.1,1.04-.64,1.34-1.11.63-1.52-.3-2.32-.1-.43.1-2.71,1.95-3.23,2.36Z" fill="#a12031"/><path d="M140.75,201.29c1.2,1.02,1.83.11,2.71.51.46.21.89.91.79,1.44-.13.66-2.72,2.25-3.4,2.77-2.35,1.82-7.04,6.46-9.79,6.75-2.16.23-5.19-1.32-5.2-3.74,0-.57.68-1.79-.18-1.78-.73,0-1.35.22-2.2.1-2.44-.33-4.9-3.29-4.53-5.78.48-3.25,5.91-6.28,8.43-8.24.81-.63,4.05-3.63,4.74-3.67s1.42.92,1.34,1.6c-.11.91-.72.76-.02,1.8,1.87,2.81,5.26,5.48,7.32,8.24ZM128.46,197.84c-.98-.85-2.04-.13-2.56.83-.78,1.46.77,3.1,2.2,3.4,1.09.22,3.62-.32,2.63-1.71-.4-.56-1.76-2.07-2.28-2.51ZM132.93,203.6c-.36.11-1.03.84-1.15,1.22-.41,1.25,1.2,2.72,2.43,2.56.4-.05,1.4-.61,1.5-1,.13-.55-1.83-2.72-2.28-2.8-.16-.03-.33-.02-.49.03Z" fill="#a12031"/><path d="M161.19,69.53c-.16,2.1-1.23,3.69-3.19,4.49-6.92,2.83-8.37-4.59-10.44-9.17-.67-1.49-1.7-3.1-2.28-4.55-.41-1.02-.64-1.8.71-2.1,1.25-.28,1.24.48,1.91.67s2.69-.69,3.44-.96c2.78-1.01,5.48-2.26,8.24-3.32,1.21-.76.48-1.63,1.22-2.2,1.05-.81,1.67-.5,2.22.55.81,1.55,1.46,3.6,2.22,5.26,1.22,2.62,3.94,6.39,2.8,9.32-.7,1.81-2.75,3-4.67,2.78-.84-.1-1.38-.66-2.18-.77ZM162.47,60.62c-.37.05-2.78,1-2.92,1.29-.36.74.62,1.92,1.34,2.07,1.08.22,2.76-.69,2.8-1.88.02-.69-.41-1.59-1.22-1.48ZM155.91,63.25c-.36.03-2.53.89-2.98,1.09-.51.23-1.53.74-1.42,1.41.03.2.53,1.11.69,1.28,1.57,1.73,4.84-.19,4.79-2.29-.01-.56-.39-1.56-1.07-1.5Z" fill="#a12031"/><path d="M6.83,97.85c-.11-.14-.16-.6-.16-.8.05-1.38.86-3.58,1.14-5.04.43-2.24.64-6.44,1.58-8.26,1.73-3.36,7.26-3.64,9.22-.37.45.74.21,1.4,1.4,1.02.87-.28,4.41-2.18,5.28-2.73.61-.39.59-1.15,1.05-1.31.71-.24,1.96.3,2.37.93.76,1.16-.14,2.59-.36,3.84-.29,1.65.4,2.41-1.58,3.15-2.16.81-4.75,1.2-6.85,2.08-.74.31-1.27.95-.27,1.31.76.28,3.65.74,4.37.56.62-.16.83-1.07,1.62-1.15.62-.06,1.67.34,1.62,1.1-.36,1.63-.84,3.26-1.14,4.91-.15.8-.15,3.3-.74,3.72-.39.28-1.46.14-1.83-.16-.69-.55-.11-1.3-1.53-1.75-1.73-.55-4.88-.91-6.79-1.21-.85-.13-1.73-.19-2.58-.31s-1.83-.57-2.68-.3c-.6.19-.93,1-1.4,1.09-.38.07-1.49.01-1.73-.29ZM11.3,90.23c.34.41,3.39.9,3.96.82,1.02-.16.87-1.54.39-2.22-.93-1.31-3.16-1.37-4.13-.07-.3.4-.61,1.01-.22,1.47Z" fill="#a12031"/><path d="M22,58.93c8.35-.85,15.35,5.56,11.26,14.01-3.23,6.67-10.02,6.96-15.73,3.12-7.17-4.81-3.51-16.32,4.48-17.14ZM18.71,65.62c-1.36.28-1.86,1.85-.88,2.92,1.6,1.75,8.1,3.32,10.44,3.08s3.19-1.88,1.24-3.47-8.47-3.01-10.79-2.54Z" fill="#a12031"/><path d="M175.71,113.3c2.32,2.01,3.13,5.4,2.78,8.38-.17,1.44-1.45,4.22-1.25,5.39.16.91,1.02,1.87-.75,2.07-1.07.12-4.9.11-5.82-.22-.5-.18-.59-.49-.54-1.01.11-1.1,1.07-1.08,1.79-1.5,2.13-1.25,3.41-3.01,3.07-5.61-.09-.67-.81-1.44-1.36-1.79-2.27-1.46-9.81-1.59-11.58.68-.92,1.17-.7,2.74.92,2.9.48.05,1.86.06,2.27-.11,1.03-.41.53-2.3,2.54-1.81,1.01.24.94,1.15.91,1.98-.04,1.31-.22,2.64-.27,3.93-.03.76.23,3.37-.31,3.76-.41.29-1.48.3-1.94.09-.78-.36-.48-1.3-1.91-1.51-1.01-.15-4.73.02-5.28-.49-.35-.33-.32-2.79-.43-3.51-.54-3.53-1.5-5.79.11-9.4,2.62-5.86,12.68-5.99,17.06-2.19Z" fill="#a12031"/><path d="M15.5,110.72c.61.6,1.12-.65,1.63-.99,2.05-1.39,5.08.62,6.32,2.3,2.56,3.45,2.37,10.19-.06,13.69s-7.36,4.07-9.59.02c-.76.17-1.23.78-2.09.9-4.92.66-7.39-6.16-4.83-9.56,1.28-1.71,3.65-.79,3.31.94-.17.87-2.02,2.88.05,3.42,2.29.6,1.65-.98,2.36-2.06.44-.66,1.58-.36,2.09.11,1.36,1.24-.07,2.91,2.67,2.56,3.1-.4,5.91-3.95,3.49-6.75-.61-.71-2.12-1.57-2.82-.59-1.08,1.5,1.62,2.37,1.48,3.31-.23,1.56-3.02,1.06-4.03.54-.89-.46-1.63-1.34-2.14-2.2-.54-.91-1.23-3.37-1.95-3.82-1.73-1.08-.8,1.43-1.77,1.51s-1.96-2.1-2.03-2.95c-.37-4.42,5.08-5.23,7.25-1.74.19.31.5,1.2.66,1.37Z" fill="#a12031"/><path d="M177.05,100.93c.4.41.23,1.94.31,2.52.09.64.66,2.49.45,2.96-.27.6-1.39.66-1.94.5-.74-.22-.41-1.34-2.13-1.29-4.32.12-9.14,1.32-13.52,1.58-.7.04-2.39.25-2.55-.59-.21-1.12.65-2.07,1.25-2.94,2.03-2.92,4.38-5.64,6.41-8.56.75-1.08,1.66-1.96-.39-1.83-1.1.07-2.91.36-4.01.59-1.81.39-.92,1.25-1.91,1.76-2.53,1.31-2.12-1.98-2.3-3.44-.16-1.32-1.22-3.2,1.09-3.07,1.38.08.92,1.36,2.67,1.29,3.18-.13,6.8-.75,9.97-1.19.77-.11,1.35.21,2.04-.45.37-.36.59-1.26,1.05-1.45.28-.12,1.31-.13,1.57,0,.54.26.34,1.23.41,1.69.13.84.55,2.32.32,3.11l-7.21,9.59c-.44.69-.8,1.31.38,1.31.99,0,3.71-.34,4.67-.6,1.04-.28.68-.56,1.18-1.19.42-.54,1.72-.79,2.2-.3Z" fill="#a12031"/><path d="M27.86,184.61c1.16,1.42,2.49.82,3.74-.15.31-.24.88-.69.74-1.11-.56-1.75-2.98-.11-3.55-1.71-.16-.45-.02-.72.29-1.05,1.77-.87,3.51-2.41,5.25-3.24.6-.28.96-.4,1.48.16,1.33,1.41-1.6,2.08-.85,3.74.53,1.17,2.27-.13,2.94-.6.83-.59,1.84-1.14,1.38-2.27-.61-1.5-2.69-3.56-4.35-3.79-.89-.12-2.19.3-2.8-.22-.54-.46-.51-1.13.01-1.58.46-.39,3.67-2.05,4.3-2.26,1.07-.37,1.2-.04,1.79.76,1.67,2.27,3.19,4.91,4.83,7.25.66.95,3.99,5.09,4.04,5.81.04.58-.77,1.14-1.28,1.21-.89.13-1.44-.83-2.33-.37-2.5,1.42-5.02,2.83-7.45,4.36-.5.32-2.53,1.52-2.78,1.82-.54.66.29,1.74-.95,2.47-.82.49-1.33.28-1.88-.44-1.89-2.46-3.62-5.6-5.46-8.2-1.03-1.45-2.25-2.78-3.18-4.31-.09-.43-.11-.73.24-1.01.43-.36,3.63-2.34,4.07-2.49.91-.3,1.69.2,1.57,1.16-.08.62-1.13,1.33-1.28,2.27-.2,1.25.69,2.84,1.47,3.79Z" fill="#a12031"/><path d="M154.54,188.17c-.75-.79.25-1.51-.5-2.32-.68-.73-2.88-2-3.83-2.6-1.46-.92-4.19-2.8-5.88-2.79-2.41,0-5.04,3.9-3.34,6.11,1.56,2.04,6.12,3.76,8.18,5.47,1.38.63,1.5-.41,2.5-.28.46.06,1.44.68,1.37,1.21s-1.52,2.13-1.93,2.68c-.78,1.08-1.42,3.27-3.04,2.2-1.06-.7-.43-1.21-.55-1.93-.08-.48-1.32-1.24-1.75-1.54-5.22-3.65-12.06-5.25-8.01-13.13,2.01-3.91,5.81-7.89,10.62-6.68,3.29.83,6.41,4.16,9.44,5.39,1.48.6,1.89-.85,3.33-.05,1.69.94-1.01,3.15-1.72,4.11-.86,1.16-2.02,3.41-2.91,4.31-.64.64-1.4.44-1.98-.16Z" fill="#a12031"/><path d="M39.7,194.03c.88.88-.28,1.74-.45,2.54-.28,1.35,1.46,3.67,2.6,4.29.91.49,1.46.12,2.21-.4.67-.46,2-1.49,1.11-2.27-1.11-.97-2.18.34-3.23-.18-.65-.32-.92-.87-.49-1.48.61-.85,3.63-3.46,4.53-4.13.61-.45,1.01-.77,1.76-.32,1.89,1.12-1.46,2.75-.25,4.05.77.83,1.73-.3,2.38-.85.31-.26,1.89-1.67,1.98-1.87.41-.96-1.28-1.62-.3-2.79.72-.87,1.74-.43,2.43.2,1.27,1.16,2.51,2.72,3.8,3.94.73.69,2.81,1.75,2.1,2.88-.92,1.45-1.89.35-2.85.56-.35.08-1.21.82-1.54,1.09-2.53,2.07-4.8,4.51-7.29,6.63-1.04.9.14,1.63-.43,2.59-.41.68-1.34,1.05-2,.5-2.41-2.35-4.71-4.84-7.14-7.17-1.14-1.09-2.6-2.14-3.68-3.27-.47-.49-.67-.93-.19-1.51,1.03-.78,1.97-1.9,2.96-2.69.6-.47,1.31-1.03,1.99-.35Z" fill="#a12031"/><path d="M162.08,138.75c6.97-.77,14.81,3.82,12.17,11.78-.32.96-1.35,2.44-1.48,3.26-.06.38.11.58.11.89.01,2.01-3.22,1.09-4.4.99s-3.34.39-3.09-1.52c.12-.89,1.97-1.26,2.72-1.61,1.61-.76,3.79-2.17,2.12-4.14-1.78-2.1-7.86-2.99-10.38-2.28-2.09.58-3.17,2.45-2.02,4.45.35.61,2.54,2.6,1.13,3.19-.82.35-4.17-.56-4.7-1.33-.96-1.37-.21-5.57.28-7.16,1.14-3.69,3.61-6.07,7.54-6.5Z" fill="#a12031"/><path d="M94.46,5.37c.15.14.47.88.53,1.11.23.87.73,3.09.81,3.92.12,1.17-.66,1.86-1.79,1.4-.81-.33-2.07-2.41-3.14-3.03-2.22-1.29-3.85.18-4.23,2.42-.55,3.2.66,11.28,5.62,9.3,1.29-.52,2.16-2.88,3.24-2.94,1.36-.08,1.2,2.84,1.09,3.73-.17,1.41-1.14,1.74-2.35,2.12-8.06,2.53-15.98-.32-15.37-9.85.41-6.46,5.1-8.6,10.97-8.34.61.03,1.37.3,1.96.27.94-.05,1.69-.99,2.66-.1Z" fill="#a12031"/><path d="M152.05,163.84c-1.2,1.1-1.82,4.12-.99,5.56.41.71,1.66,1.55,1.45,2.43s-1.05.87-1.77.65c-.51-.15-3.89-1.73-4.28-2.02-.25-.18-.44-.38-.47-.7.74-2.02,1.8-3.9,2.66-5.86,1.23-2.79,2.32-6.15,3.67-8.81.39-.76.79-.89,1.64-.67,1.25.33.76.98,1.11,1.78.28.62,2.14,1.24,2.82,1.51,2.41.97,6.11,2.57,8.51,3.17,1.59.4,1.18-.33,2.02-.59.63-.2,2,.01,2.11.8.07.52-1.58,3.51-1.91,4.26-.45,1.04-.77,2.22-1.23,3.24-.43.96-.55,1.45-1.77,1.19-1.46-.3-.58-1.87-1.77-2.43-3.11-.86-6.92-3.21-10-3.78-.6-.11-1.32-.19-1.8.25Z" fill="#a12031"/><path d="M36.69,169.27c-.15.19-1.17.52-1.42.5-.68-.07-1.09-.87-1.87-.84s-3.32,1.1-4.22,1.43c-2.47.9-4.92,1.89-7.33,2.91-.73.54-.14,2-1.62,2.31s-1.43-.84-1.81-1.8c-.76-1.92-1.64-3.59-2.45-5.43-.36-.82-.89-1.5.03-2.12,1.5-1,1.92.44,2.71.56.21.03,1.04-.25,1.32-.34,2.53-.76,6.3-2.16,8.69-3.26.68-.31,1.61-.61,1.7-1.46.17-1.54-1.61-4.14-3.03-4.7-.86-.34-1.99-.18-2.7-.58-.85-.48-.95-1.33-.04-1.8.63-.33,3.83-1.3,4.59-1.45.86-.16,1.03-.06,1.44.68,1.15,2.13,2.15,5.29,3.14,7.62s1.98,4.41,2.98,6.6c.11.33.12.87-.11,1.15Z" fill="#a12031"/><path d="M118.22,23.62c.08.11.16.43.16.56,0,.49-1.68,3.78-2.04,4.37-.69,1.11-1.2.68-2.27.34-1.81-.58-3.67-1.47-5.49-2.13-2.9-1.05-5.89-1.93-8.77-3.05-.23-.09-.88-.3-.99-.45-.4-.51.09-1.64.64-1.88,1.05-.47,1.36.12,2.07-1.21,1.2-2.25,2.77-6.26,3.63-8.71.14-.39.52-1.37.5-1.72-.04-.54-.91-1.03-.92-1.71,0-.55.4-1.33.99-1.39.83-.09,2.76.99,3.68,1.32,1.44.52,3.85,1.03,5.06,1.64.66.34.78.67.62,1.42-.24,1.15-1.27.79-1.94,1.08-.34.15-.86,1.1-1.03,1.46-1.37,2.81-2.36,6.09-3.64,8.97-.17.78.43,1.25,1.04,1.6,1.32.76,3.58,1.19,5.04.66.74-.27,1.57-1.31,2.23-1.44.4-.08,1.18-.08,1.44.27Z" fill="#a12031"/><path d="M23.69,139.29c-.16-.18-.91-.78-1.13-.9-1.03-.57-4.19-.85-2.27-2.65,1.63-.15,3.48-.63,5.09-.69.41-.02.81.03,1.01.43.54,1.97.94,3.98,1.38,5.97.72,3.23,1.34,6.5,2.24,9.72-.03.88-.97,1.19-1.74,1.07-.93-.14-.77-1.19-2.5-1.04-2.25.19-5.56.98-7.84,1.48-.92.2-2.65.46-3.41.79-1.26.55-.56,1.85-2.15,2.05-.93.11-1.27-.26-1.47-1.14-.26-1.14-.33-2.44-.59-3.61s-1.09-3.05-1.14-4.13c-.05-1,1.09-1.25,1.89-1.09.47.09.84.91,1.21,1.02.79.23,3.43-.36,4.41-.53,1.69-.3,3.7-.65,5.38-1.05.72-.17,2.33-.46,2.71-1.1.65-1.09-.29-3.7-1.08-4.6Z" fill="#a12031"/><path d="M128.72,16.52c.77-.08,2.65,1.77,3.34,2.26,1.23.87,2.96,1.74,4.05,2.65s.3,2.09-.85,2.16c-.45.03-.87-.19-1.25-.08-.29.09-1,.86-1.25,1.13-2.29,2.43-4.29,5.54-6.47,8.1-.8.94.56,1.46.11,2.48-.29.65-.81.94-1.51.83-.64-.1-3.09-2.2-3.84-2.72s-3.14-1.78-3.51-2.4c-.49-.82.46-1.81,1.31-1.83.59-.01.84.35,1.5-.07.7-.44,2.62-2.99,3.28-3.8,1.46-1.78,2.83-3.65,4.26-5.45.3-.82-.5-1.21-.29-2.13.07-.33.77-1.08,1.11-1.11Z" fill="#a12031"/><path d="M157.95,84.8c-.39.43-.19,1.19-.84,1.59-1.55.97-1.94-.12-2.29-1.37-.64-2.27-1.09-4.6-2.01-6.79-.01-1.05,1.18-1.24,2.01-1.08.42.08.64.66,1.02.82.73.3,2.11-.14,2.91-.31,3.15-.68,6.28-1.59,9.4-2.41,1.01-.5.58-.97,1.05-1.58s1.71-.91,2.24-.26c.39.47.84,3.31,1.09,4.17.26.91,1.46,3.64,1.25,4.34-.14.48-1.12.78-1.58.73-1.03-.13-.88-1.12-2.38-1.01-2.11.16-6.69,1.5-8.91,2.12-.62.17-2.6.67-2.95,1.06Z" fill="#a12031"/><path d="M88.43,213.72c4.14-.49,5.8,4.9,2.33,6.53-5.58,2.62-8.07-5.85-2.33-6.53Z" fill="#a12031"/><path d="M83.34,186.5c-.51-1.93-2.26-4.02-2.7-5.9-.58-2.52-.51-5.57-1.14-8.05-.33-1.32-2.39-3.58-2.69-4.79-.15-.6,0-1.66-.03-2.34-.21-4.18.01-8.53-.27-12.73-.08-1.16-.59-1.3.18-2.59.66-1.11,3.42-2.75,4.39-3.82.16-.26.63-2.76.54-3.03-.03-.09-1.15-.78-1.29-.82-.79-.26-.95,1.42-1.44,1.86-.44.4-1.41.39-2.05.84-1.06.75-2.64,2.85-3.61,3.88-.18.19-.78.85-.99.85-.73,0-3.96-4.83-4.61-5.64-.29-.37-1.85-1.84-1.85-2.18.66-1.55,2.2-2.47,3.57-3.35,1.45.93,3.3,1.76,4.59,2.89.44.38,1.58,1.94,1.78,2.03.37.17,1.45-.34,1.55-.68.06-.19.13-1.5.07-1.72-.33-1.21-2.03-2.88-2.16-4.16-.17-1.75.37-3.3.53-5,.82-8.64.53-17.12.93-25.71.01-.26.15-1.66.32-1.66.14,0,1.72,1.38,2.18,1.63,1.55.85,3,.68,4.65.99.44,1.33.75,2.72,1.21,4.04,1.26,3.68,2.76,7.64,3.68,11.42.86,3.58-.02,6.85-2.45,9.55-1.95,2.16-3.09,1.29-4.27,4.79-.1.31-.63,2.13-.59,2.28.09.29.59.23.85.22.4,0,2.02-.14,2.23-.26.38-.22,1.84-2.58,2.35-3.16.6-.69,1.37-1.22,1.97-1.83.39-.4,2.81-3.07,3.01-3.02,2.1,6.06,5.35,11.61,7.14,17.79l-6.09,11.62c-1.44,3.56-1.12,8.07-2.48,11.57-.46,1.2-1.32,2.55-1.88,3.76-1.57,3.42-3.13,6.84-4.71,10.26l-.45.14Z" fill="#a12031"/><path d="M123.19,173.32c-1.78,2.19-3.81,4.21-5.78,6.23-.17.15-.4.19-.6.06-.26-.16-1.48-2.38-1.78-2.82-1.72-2.53-3.67-4.99-4.95-7.78-.69-1.49-1.14-3.29-1.84-4.73-1.53-3.14-3.07-4.55-3.87-8.34-.32-1.52-1.14-6.5-.89-7.79.45-2.38,2.41-5.36,2.91-7.86,1.39-1.41,2.42-3.1,3.64-4.65.23-.09,1.47.25,1.83.34,1.66.43,3.97,1.46,5.56,1.66,1.04.13,4.11-.23,4.78.08.18.08,1.4,1.37,1.65,1.64,1.99,2.11,4.18,4.74,5.12,7.49,1.61,2.43,3.75,4.46,5.53,6.76-2.74,7.01-6.55,13.86-11.3,19.71Z" fill="#a12031"/><path d="M102.64,71.37c-.88.12-2.08.11-2.92.29-.77.17-1.45.91-2.17,1.12-.61.18-2.04.27-2.72.3-1.16.05-2.31-.02-3.47-.14-.37-1.41-.16-2.31-1.87-1.52-.33.15-.57.46-.77.55-.73.32-2.96-1.63-4.06-1.12.12,1.67,1.77,2.53,2.68,3.82.33.47.57.6.61,1.23.13,1.98-1.04,4.68-1.58,6.58-.71,2.5-1.08,4.86-1.19,7.47-.19,4.27.99,8.11-2.62,11.3-1.42,1.25-2.14,1.65-3.52-.03-.16-1.56-.25-3.13-.44-4.68-.1-.83-.44-1.67-.51-2.51-.26-3.18.07-6.86,0-10.11-.02-.84-.26-1.91-.27-2.75-.05-2.59-.29-6.63,0-9.07.1-.81,1.64-2.59,2.11-3.54.31-.63,1.63-3.94,1.52-4.4-.1-.41-.61-.97-.7-1.41-.73-3.31.19-8.15-.13-11.62,1.29-2.38,3.35-7.12,5.74-8.44.66-.37,3.34-1.39,4.01-1.39,1.04,0,1.74,1.97,2.46,2.28,1.29.56,2.35-.65,3.62.97,1.59,2.03,1.75,4.39,1.99,6.8.18,1.83,1.58,3.26,1.8,4.76.33,2.21.28,4.57.56,6.79.36,2.84,1.36,5.64,1.84,8.47ZM92.75,47.63c-.42.04-.84.24-.89.69-.22,1.84.06,4.3.14,6.17.07,1.6.06,3.55.27,5.11.16,1.14,1.28,2.17,1.63,3.23.2.61.18,1.44.37,2,.13.4.55.66.72,1.12.13.36.61,5.03,1.52,2.76.68-1.71.2-4.31.09-6.08s0-4.43-.4-6.16c-.15-.67-.68-1.22-.93-1.82-.78-1.8-.45-4.21-.96-6.13-.2-.57-.98-.94-1.55-.89Z" fill="#a12031"/><path d="M114.17,105.39c.16.24-1.31,4.93-1.52,5.6-2.34,7.48-4.94,14.89-7.52,22.28-1.09,3.11-2.04,6.82-3.35,9.78-.07.16-.13.36-.33.4l-.99-4.85c-2.72-6.47-5.11-11.78-5.06-18.98.02-3.06.14-6.1.27-9.18s-.28-4.25,1.04-7.1c1.19-2.55,4.07-4.62,5.58-7.02.79,1.34,1.31,3.15,2.57,4.12s3.07,1.41,4.46,2.11c1.65.83,3.14,2.08,4.84,2.84Z" fill="#a12031"/><path d="M100.54,153.81c.11,1.78.64,3.49,1.02,5.22.25,1.14.32,2.42.79,3.54.42,1.01,1.54,2.35,2.13,3.39,1.21,2.16,2.48,4.56,3.59,6.78.74,1.48,1.21,3.09,1.87,4.43.46.93,1.38,1.85,1.94,2.78.31.5,1.47,2.66,1.3,3.11-.08.22-3.36,2.44-3.84,2.74-6.52,4.14-14.7,7.21-22.5,5.4-.15-.06-.22-.09-.21-.27.02-.34.47-1.35.62-1.76,2.04-5.68,5.44-10.95,6.47-16.9.44-2.56.8-4.5,1.69-6.97,1.4-3.87,3.3-7.55,4.72-11.41l.41-.08Z" fill="#a12031"/><path d="M135.85,149.09c-.08-.06-.71-1.54-.87-1.82-1.91-3.37-3.73-6.78-5.57-10.18-1.57-.55-2.68-1.29-3.86-2.45-1.6-.54-13.56-2.89-13.73-3.76.74-3.21,2.15-6.32,2.97-9.49.53-2.06.8-4.18,1.39-6.23.35-1.21.94-2.39,1.23-3.62.56-2.32.36-4.79.73-7.15.04-.29.94-2.22,1.13-2.28.4-.14,3.1.24,3.31.59,2.49,8.66,6.05,16.93,8.37,25.64.04,1.38-.53,2.94-.61,4.26-.14,2.31,2.23,3.48,3.99,4.3.52.24,1.13.28,1.6.63.83.61,1.65,2.45,2.4,3.25.17.58-.94,4.59-1.2,5.44-.2.65-.58,2.03-.85,2.57-.07.14-.25.43-.42.3Z" fill="#a12031"/><path d="M67.45,176.53c.09.08.32-.08.4-.19.2-.28.2-2.46.26-3.03.25-2.7.23-5.1.39-7.75.21-3.38,1.14-7.03,1.72-10.36l2.35-2.58c.03.72-.04,1.45,0,2.16.32,5.07.5,10.16,1.07,15.21,1.56,5.56,3.89,11.02,4.44,16.83.01.14.13,1.24-.19,1.11-5.33-2.99-10.36-6.72-14.51-11.22-.42-.45-2.09-2.24-2.2-2.66-.21-.8.16-1.56.23-2.33.72-8.34,1.43-16.69,2.5-24.94.12-.94.33-1.88.39-2.82.24-.04.38.17.53.32,1.01,1.04,3.23,4.54,3.42,5.91.17,1.22-.41,3.06-.53,4.34-.3,3.14-.38,6.31-.66,9.45-.23,2.64-.72,4.57-.4,7.23.08.68.57,5.1.8,5.31Z" fill="#a12031"/><path d="M92.26,118.1c-.17-.03-.29-.47-.35-.64-2.57-7.03-4.66-14.56-3.85-22.14.54-5.06,1.49-10.66,2.33-15.66.14-.8.26-2.9.82-3.38.85-.72,2.44-.52,3.47-.6,1.57-.12,3.14-.31,4.71-.12.33.04,1.48.28,1.59.51.25,4.79-.03,9.59-.47,14.37-2.24,3.08-4.71,6.17-6.64,9.51-3.16,5.48-2.09,12.11-1.63,18.13Z" fill="#a12031"/><path d="M73.75,109.7c-.24,3.45-.28,6.94.51,10.32-.78,5.16-.63,10.49-.77,15.74.02.14-.08.43-.21.45-.2.04-2.26-1.41-2.69-1.51-.33-.37.08-1.35.13-1.84.2-1.87.45-4.05.53-5.9.18-4.05-.33-8.48.01-12.46.12-1.44,1.27-3.38,2.16-4.54.08-.11.18-.25.32-.27Z" fill="#a12031"/><path d="M47.82,129.34c3.95,4.23,7.12,7.75,10.71,12.33.5.64,2.98,3.25,3,3.8,0,.27-.07,1.14-.11,1.46-.1.98-.85-.13-1.19-.53-3.79-4.58-6.94-9.58-10.64-14.17-1.97-2.44-4.61-4.79-6.35-7.3-.21-.3-.69-.81-.54-1.17,1.76,1.81,3.39,3.75,5.11,5.59Z" fill="#a12031"/><path d="M56.24,146.91c-2.57-2.85-6.22-6.39-8.4-9.39-1.05-1.45-1.85-3.28-2.91-4.84-.83-1.21-2.06-2.01-1.76-3.69.37.26.69.7.97,1.06,1.72,2.22,3.07,4.69,4.75,6.94,2.8,3.75,6.15,6.95,9.31,10.38.48.52,2.42,2.58,2.62,3.02.12.25.15,1.44-.13,1.44-1.53-1.6-2.97-3.29-4.45-4.93Z" fill="#a12031"/><path d="M110.12,98.94c-.99-.7-1.54-1.89-2.29-2.76-.32-.36-1.05-.83-1.22-1.14-.28-.5-.42-1.59-.66-2.23-.22-.57-.63-1.43-.92-1.97s-.73-.41-.4-1.13c.3-.66.99-1.24,1.63-.62.37.35,1.6,2.68,1.86,3.26.28.64.41,1.33.67,1.96.63,1.54,1.58,2.8,1.34,4.64Z" fill="#a12031"/><path d="M105.19,94.28c.33.4,1.45,2.87,1.12,3.21-.37.04-.69-.31-.98-.53-.36-.27-1.38-1.16-1.48-1.54-.17-.67-.05-1.63.83-1.61.26,0,.36.28.51.47Z" fill="#a12031"/></svg>