<?xml version="1.0" encoding="utf-8"?>
<!-- Generator: Adobe Illustrator 24.1.3, SVG Export Plug-In . SVG Version: 6.00 Build 0)  -->
<svg version="1.1" id="Layer_1" xmlns="http://www.w3.org/2000/svg" xmlns:xlink="http://www.w3.org/1999/xlink" x="0px" y="0px"
	 viewBox="0 0 320 383.68" style="enable-background:new 0 0 320 383.68;" xml:space="preserve">
<style type="text/css">
	.st0{fill:#000000;}
</style>
<g>
	<path class="st0" d="M197.54,324.62c-0.8-0.08-1.9,0.11-3.05,0.58c-0.38,0.23-0.78,0.42-1.18,0.58c-0.91,0.52-1.62,1.14-2.02,1.72
		l9.01,11.83c0.13,0.17,0.39,0.04,0.35-0.16L197.54,324.62z"/>
	<path class="st0" d="M134.34,341.43c-1.15-0.6-2.04-1.38-2.47-2.08l-3.57,13.25c-0.04,0.17,0.17,0.28,0.28,0.15l8.88-10.46
		C136.63,342.33,135.49,342.03,134.34,341.43"/>
	<path class="st0" d="M294.49,193.85c-3.35-21.52-35-48.04-47.79-58c-3.17-2.47-4.58-5.95-9.37-8.67c-3.5-1.98-6.46-2.75-8.37-3.02
		c-1.56-0.22-3.05-0.78-4.37-1.62c-5.25-3.37-14.99-8.23-21.27-10.6c-0.93-0.35-1.9-0.59-2.86-0.33c-1.19,0.33-2.58,0.76-3.56,1.06
		c0.2,0.06,0.39,0.11,0.59,0.17c1.68,0.54,3.31,1.33,4.62,2.5c-1.64-0.59-3.27-1-4.92-1.3c-1.04-0.18-2.08-0.3-3.13-0.4
		c-1.4,0.52-2.84,1.11-4.28,1.77c2.7,0.34,5.35,1.14,7.63,2.61c-3.52-0.8-6.97-1.2-10.46-1.21c-1.63,0.85-3.23,1.77-4.77,2.77
		c3.31-0.19,6.72,0.23,9.69,1.7c-3.61-0.4-7.1-0.42-10.6-0.04c-0.6,0.06-1.2,0.15-1.8,0.23c-1.03,0.78-2,1.58-2.91,2.42
		c-0.47,0.43-0.43,1.18,0.46,1.26c16.95,1.42,28.77,4.35,36.19,6.82c6.87,2.29,10.28,9.98,7.4,16.62c-0.95,2.18-1.95,4.2-2.67,5.78
		l0,0l-14.68,31.58c-1.64-3.06-7.81-5.37-8.34-8.32c-0.49,4.64,5.34,7.07,7.36,10.53c0.02,0.02,0.03,0.05,0.05,0.08
		c0.02,0.03,0.03,0.06,0.05,0.09c0.01,0.03,0.03,0.06,0.04,0.08c0.01,0.03,0.03,0.07,0.05,0.1c0.01,0.03,0.03,0.06,0.04,0.08v0
		c0.02,0.03,0.03,0.06,0.05,0.1c0.01,0.03,0.02,0.05,0.03,0.08c0.01,0.03,0.03,0.07,0.04,0.11c0.01,0.02,0.02,0.05,0.03,0.08
		c0.01,0.04,0.03,0.07,0.04,0.11c0,0.02,0.01,0.04,0.02,0.06c0,0.01,0.01,0.02,0.01,0.04c0.01,0.03,0.02,0.07,0.03,0.11
		c0,0.01,0.01,0.02,0.01,0.03c0,0.01,0.01,0.03,0.01,0.04c0.01,0.06,0.03,0.12,0.04,0.18c0.3,1.41-0.02,3.48-0.6,5.37
		c-0.03,0.11-0.07,0.23-0.11,0.35c0.31-3.68-6.39-4.38-6.81-8.18c-0.88,3.14,2.93,5.83,4.81,8.33c0.03,0.04,0.06,0.08,0.09,0.13
		c0,0.01,0.01,0.01,0.01,0.02c0.03,0.03,0.05,0.07,0.08,0.11c0,0.01,0.01,0.02,0.02,0.03c0.02,0.03,0.05,0.07,0.07,0.11
		c0.01,0.01,0.02,0.03,0.03,0.04c0.02,0.03,0.04,0.06,0.06,0.1c0.01,0.01,0.02,0.03,0.03,0.05c0.02,0.03,0.04,0.06,0.05,0.09
		c0.01,0.02,0.02,0.04,0.03,0.05c0.01,0.03,0.03,0.06,0.05,0.09c0.01,0.02,0.02,0.04,0.03,0.06c0.01,0.03,0.03,0.06,0.04,0.08
		c0.01,0.02,0.02,0.04,0.03,0.06c0.01,0.03,0.03,0.05,0.04,0.08c0.01,0.02,0.02,0.04,0.03,0.06c0.01,0.03,0.02,0.05,0.03,0.08
		c0.01,0.02,0.02,0.05,0.02,0.07c0.01,0.03,0.02,0.05,0.03,0.08c0,0.02,0.01,0.05,0.02,0.07c0.01,0.02,0.01,0.05,0.02,0.07
		c0,0.02,0.01,0.05,0.02,0.07c0.01,0.02,0.01,0.04,0.02,0.07c0.01,0.03,0.01,0.05,0.02,0.08c0,0.02,0.01,0.04,0.01,0.07
		c0.01,0.02,0.01,0.05,0.02,0.08c0,0.02,0,0.04,0.01,0.06c0,0.03,0,0.06,0.01,0.1c0,0.01,0,0.03,0,0.05c0,0.05,0,0.09,0.01,0.14
		c0.08,1.69-0.32,3.38-0.78,4.75c-0.06,0.2-0.14,0.38-0.2,0.56c0-0.11-0.01-0.21-0.03-0.32c-0.47-3.2-6.08-4.98-6.23-8.5
		c-1.18,3.48,3.14,6.61,4.66,9.47c0.02,0.03,0.03,0.07,0.05,0.1c0,0,0,0.01,0.01,0.02c0.01,0.03,0.03,0.07,0.05,0.1c0,0,0,0,0,0
		c0.03,0.07,0.06,0.14,0.09,0.2c0,0,0,0.01,0,0.01c0.01,0.02,0.02,0.05,0.03,0.08c0,0.01,0.01,0.02,0.02,0.04
		c0.01,0.02,0.02,0.05,0.03,0.08c0,0,0,0.01,0,0.01c0,0.01,0.01,0.02,0.01,0.03c0.01,0.03,0.02,0.07,0.03,0.1
		c0,0.02,0.01,0.03,0.01,0.05c0,0.01,0.01,0.02,0.01,0.03c0,0.01,0.01,0.03,0.01,0.05c0.01,0.01,0.01,0.03,0.01,0.05
		c0,0.01,0.01,0.03,0.01,0.04c0,0.01,0.01,0.02,0.01,0.04c0.01,0.02,0.01,0.05,0.02,0.07c0,0.02,0.01,0.04,0.01,0.07l0.01,0.08
		c0,0.02,0,0.04,0.01,0.07c0,0.02,0.01,0.05,0.01,0.08c0,0,0,0.01,0,0.02c0,0.02,0,0.03,0,0.05c0,0.02,0,0.04,0,0.05
		c0,0.01,0,0.03,0,0.04c0,0.03,0,0.05,0,0.08c0,0.01,0,0.03,0,0.05c-0.03,0.05-0.05,0.08-0.05,0.08c0,0.14,0,0.28,0,0.42
		c-0.02,1.28-0.24,2.41-0.57,3.47c-0.13,0.42-0.28,0.84-0.44,1.25c0.23-2.03-1.51-3.13-2.44-3.84c-1.25-0.97-3.22-2.57-3.72-4.64
		c-1.11,3.67,4.25,7.54,5.04,10.15v0c0.01,0.03,0.02,0.06,0.03,0.09c0,0,0,0,0,0c0.01,0.03,0.01,0.06,0.02,0.09c0,0,0,0.01,0,0.01
		c0.01,0.06,0.02,0.12,0.03,0.18c0,0.01,0,0.02,0,0.03s0,0.02,0,0.03c0,0.01,0,0.03,0,0.05c0,0.01,0,0.02,0,0.03
		c0,0.01,0,0.02,0,0.03c0,0.02,0,0.04,0,0.06c0,0,0,0.01,0,0.01c0,0.01,0,0.02,0,0.03c0,0.03,0,0.07-0.01,0.11
		c0.11,1.16-0.02,2.48-0.4,3.97c-0.04,0.16-0.08,0.31-0.13,0.47c-0.01-0.06-0.02-0.12-0.04-0.18c0,0,0,0,0-0.01
		c-0.01-0.04-0.03-0.08-0.04-0.13c0,0,0-0.01,0-0.02c-0.01-0.03-0.03-0.07-0.04-0.1c0-0.01-0.01-0.02-0.01-0.03c0,0,0,0,0,0
		c-0.06-0.15-0.14-0.29-0.23-0.43c0,0,0-0.01,0-0.01c-0.06-0.09-0.13-0.19-0.2-0.28c-0.84-1.1-4.71-2.22-5.91-4.08
		c-0.41,2.66,4.6,5.34,5.38,8.1v0c0.01,0.05,0.02,0.1,0.04,0.16c-0.02,0.04-0.04,0.09-0.06,0.13c0.02,0.09,0.03,0.19,0.04,0.28
		c0,0.03,0.01,0.06,0.01,0.09c0.01,0.06,0.01,0.13,0.02,0.2c0,0.03,0,0.07,0.01,0.11c0,0.07,0.01,0.14,0.01,0.2c0,0.03,0,0.06,0,0.1
		c2.27-4.52,4.56-9.02,6.87-13.52c3.75-7.31,7.55-14.59,11.4-21.84c1.93-3.63,3.86-7.25,5.82-10.86c1.97-3.61,3.93-7.22,5.95-10.79
		c-1.73,3.72-3.52,7.43-5.3,11.12c-1.79,3.7-3.61,7.38-5.43,11.06c-3.66,7.36-7.36,14.68-11.12,21.99
		c-2.7,5.26-5.43,10.51-8.18,15.74c-0.11-0.52-0.33-0.98-0.71-1.38c-1.27-1.32-5.11-0.98-6.49-2.71c0.12,2.63,4.42,4.12,5.83,6.7
		c0.02,0.05,0.05,0.09,0.07,0.14c0,0,0,0,0,0.01c0.02,0.04,0.04,0.09,0.06,0.13c0,0,0,0.01,0.01,0.02c0.01,0.04,0.03,0.08,0.05,0.13
		c0,0.01,0.01,0.01,0.01,0.02c0.01,0.05,0.03,0.1,0.05,0.15v0c-0.05,0.17-0.11,0.33-0.17,0.5c0.17,0.68,0.26,1.28,0.31,1.84
		c-0.01,0.02-0.03,0.05-0.04,0.07c0,0.01-0.01,0.02-0.01,0.02c-0.01,0.01-0.02,0.03-0.04,0.04c0,0.01-0.01,0.01-0.02,0.02
		c-0.02,0.02-0.04,0.04-0.06,0.06c-0.01,0.01-0.02,0.02-0.03,0.03l0,0c-0.01,0-0.02,0.01-0.02,0.02c-0.01,0.01-0.03,0.02-0.04,0.03
		c0,0,0,0,0,0c-0.01,0-0.01,0.01-0.02,0.01c-0.03,0.02-0.07,0.05-0.12,0.07c-0.89,0.49-2.91,0.46-6.26-0.89
		c0.2,1.36,5.74,4.12,5.75,7.84c-1.37,0.71-2.82,0.89-6.2,0.26c0.28,1.45,5.55,3.99,6.2,5.83c4.47,0.36,6.05-2.34,9.6-1.22
		c-2.82-2.06-5.32-0.61-9.08-0.43c0.29-1.43,0.19-2.85-0.11-4.04c0.75-1.66,1.08-3.66,0.98-5.42l37.81-72.17l0.77-1.46
		c-0.76,0.05-1.51,0.05-2.25-0.01c-0.14-0.01-0.27-0.04-0.4-0.06c-3.05-0.6-6.85-2.45-8.14-4.56c0,0,0,0,0,0
		c0.86,0.63,1.8,1.19,2.76,1.66c1.85,0.88,3.86,1.46,5.88,1.62c0.97,0.08,1.96,0.05,2.9-0.1l1.34-2.54c-0.4,0.04-0.8,0.05-1.2,0.05
		c-3.08-0.11-7.77-2.2-9.74-4.71c6.68,3.23,10.83,3.14,11.77,3.07l1.27-2.42c-3.87,0.13-9.99-1.91-12.8-5.48
		c7.85,4.77,14.29,3.75,14.29,3.75l0.2-0.05l0.18,0.05c1.59,0.42,3.04,1.03,4.46,1.71c1.41,0.69,2.79,1.41,4.14,2.19
		c2.7,1.56,5.31,3.25,7.85,5.03c2.64,1.87,5.2,3.84,7.69,5.9c5.18,3.87,10.66,8.36,15.59,12.92c-2.74-3.06-5.66-5.97-8.72-8.72
		c-2.32-2.09-4.68-4.13-7.11-6.08c-2.43-1.96-4.92-3.83-7.46-5.65c-2.54-1.82-5.12-3.56-7.77-5.2c-1.33-0.8-2.66-1.61-4.02-2.34
		c-1.32-0.71-2.67-1.42-4-1.89c0,0-10.76,0.6-16.87-8.43c9.42,8.27,17.21,6.91,17.21,6.91c1.61,0.55,2.99,1.29,4.4,2.03
		c1.4,0.76,2.74,1.58,4.09,2.4c2.68,1.67,5.28,3.44,7.84,5.28c5.09,3.7,9.97,7.7,14.54,12.03c4.58,4.32,8.84,8.99,12.61,14.03
		c0.16,0.22,0.31,0.44,0.47,0.66c3.75,3.86,6.89,7.61,8.92,10.94c-2.16-4.97-5.23-9.49-8.61-13.68c-3.99-4.92-8.47-9.44-13.21-13.65
		c-4.72-4.23-9.69-8.19-14.81-11.93c-2.55-1.88-5.16-3.69-7.81-5.43c-1.32-0.87-2.66-1.72-4-2.55c-1.3-0.79-2.65-1.61-3.94-2.24
		c-3.42-0.06-6.86-0.78-9.86-2.44c-6.39-3.52-9.49-8.13-13.09-10.48c-0.11-0.07-0.02-0.25,0.11-0.2c4.64,2.07,7.58,6.1,13.69,9.3
		c2.86,1.5,6.13,2.22,9.36,2.23l0.18,0l0.14,0.06c1.55,0.73,2.88,1.55,4.27,2.38c1.37,0.84,2.71,1.71,4.04,2.59
		c2.66,1.77,5.28,3.61,7.84,5.51c5.13,3.82,10.09,7.86,14.76,12.22c4.67,4.36,9.07,9.03,12.98,14.1c1.93,2.55,3.7,5.23,5.26,8.02
		c1.25,2.24,2.34,4.58,3.18,7c0.09,0.15,0.19,0.31,0.27,0.47C294.22,194.18,294.53,194.08,294.49,193.85"/>
	<path class="st0" d="M148.04,317.12c-3.26,6.14-6.55,12.27-9.98,18.32c2.88-6.33,5.88-12.6,8.94-18.85
		c0.71-1.46,1.42-2.91,2.14-4.36c-1.27-0.44-2.66-1.06-3.77-1.93c-1.86,3.98-12.72,27.33-12.72,27.33c1.07,2.01,3.97,3.24,6.08,2.54
		l14.09-27.02c0,0-1.03-0.14-2.42-0.53C149.62,314.12,148.83,315.62,148.04,317.12"/>
	<path class="st0" d="M119.57,202.43c0.58,0.83,1.37,1.54,2.18,2.27c0.81,0.73,1.64,1.46,2.33,2.32c0.35,0.43,0.65,0.89,0.91,1.38
		c0.07,0.13,0.13,0.25,0.19,0.39c0.06,0.14,0.11,0.28,0.17,0.42c0.02,0.07,0.05,0.14,0.07,0.21c2.83-4.9-6.9-8.89-6.72-11.47
		C117.85,200.22,119.57,202.43,119.57,202.43"/>
	<path class="st0" d="M146.47,246.94c0,0.01,0,0.01,0,0.01c3.13-0.58,4.8-2.3,5.76-4.31c3.01-0.23,5.01-1.48,6.36-2.98
		c3.24-0.06,5.34-0.7,6.82-1.65c3.33,0.9,9.22,0.36,11.72-4.56c-0.53-0.23-2.89,3.8-10.21,3.28c0,0-0.01,0-0.02,0
		c0.93-1.02,1.52-2.21,2.13-3.37c-0.72-0.36-2.52,4.16-9.13,4.45c0.97-1.73,1.34-3.42,1.56-4.11c-1.34,0.28-1.79,5-8.52,7.02
		c0.53-1.87,0.69-3.75,1-5.05c0.02-0.07,0.03-0.14,0.05-0.2c0,0,0,0,0-0.01c0.03-0.14,0.08-0.26,0.12-0.39c0,0,0-0.01,0.01-0.02
		c0.02-0.05,0.04-0.1,0.06-0.15c0,0,0-0.01,0-0.01c0.06-0.12,0.12-0.24,0.19-0.36c-0.02,0.01-0.05,0.03-0.08,0.05
		c0,0-0.01,0.01-0.02,0.02c-0.02,0.01-0.03,0.02-0.05,0.04c-0.01,0.01-0.02,0.02-0.03,0.02c-0.01,0.01-0.03,0.03-0.05,0.05
		c-0.01,0.01-0.02,0.01-0.03,0.02c-0.02,0.02-0.04,0.04-0.06,0.06c0,0,0,0.01-0.01,0.01c-0.02,0.03-0.05,0.06-0.07,0.09
		c-0.01,0.01-0.01,0.02-0.02,0.03c-0.01,0.02-0.03,0.04-0.05,0.06c-0.01,0.01-0.01,0.02-0.02,0.04c-0.01,0.02-0.03,0.04-0.04,0.06
		c-0.01,0.01-0.02,0.03-0.03,0.04c-0.01,0.02-0.03,0.04-0.04,0.07c0,0.01-0.01,0.02-0.02,0.04c-0.02,0.03-0.04,0.07-0.06,0.11
		c0,0.02-0.01,0.04-0.02,0.05c-0.01,0.02-0.02,0.04-0.04,0.07c-0.01,0.02-0.02,0.04-0.03,0.06c-0.01,0.02-0.02,0.04-0.03,0.06
		c-0.01,0.02-0.02,0.04-0.03,0.06c-0.01,0.02-0.02,0.05-0.03,0.07c-0.01,0.02-0.02,0.04-0.03,0.07c-0.02,0.04-0.04,0.08-0.06,0.13
		c-1.16,2.65-2.05,7.88-6.58,8.62c0.14-2.4-0.25-4.6-0.01-5.63c-1.63,2.67-0.37,8.09-5.04,10.79c-0.47-1.87-1.23-3.41-1.22-4.17
		c-0.85,1.76,2.07,8.73-2.3,9.95c-0.52-1.28-1.35-2.6-2.59-3.91c-0.19,1.39,3.92,5.3,0.29,11.61c-1.2-1.96-2.84-3.32-3.75-4.48
		c-0.57,0.57,5.1,6.29,3.04,10.36c-1.95-1.47-5.15-2.52-5.79-5.91c-0.7,5.12,6.39,7.88,7.01,9.87c1.14-3.06,1.13-5.46,0.57-7.4
		c0.85-1.19,2.17-3.84,1.94-7.03c2.51-1.97,3.2-4.22,3.16-6.31C144.74,251.01,145.94,249.03,146.47,246.94"/>
	<path class="st0" d="M123.87,184.19c-2.04,3.01,4.61,8.74,4.07,10.78C131.52,189.98,123.84,186.65,123.87,184.19"/>
	<path class="st0" d="M172.62,185.4c-0.43,3.81,6.21,6.34,5.98,9.71C181.96,189.55,173.78,188.06,172.62,185.4"/>
	<path class="st0" d="M126.08,202.22c3.83-4.87-3.48-7.63-5.05-11.82c0,0-0.8,1.86,0.42,3.94c0.58,0.98,1.16,1.7,1.85,2.53
		c0.7,0.83,1.4,1.7,1.93,2.68c0.3,0.57,0.55,1.18,0.7,1.86C126,201.68,126.08,201.92,126.08,202.22"/>
	<path class="st0" d="M160,185.99c-0.76,2.33,4.49,6.87,4.01,9.24C167.55,191.25,160.72,187.72,160,185.99"/>
	<path class="st0" d="M143.05,169.85c-0.3,3.27,2.63,5.46,2.63,5.46c0.03,0.03,0.06,0.05,0.09,0.08c0.01,0.01,0.03,0.02,0.04,0.04
		c2.01,1.8,4.74,3.19,4.91,5.23C152.54,173.21,144.68,173.86,143.05,169.85"/>
	<path class="st0" d="M142.92,177.68c-1.01,5.26,7.1,8.07,6.85,11.15C152.04,182.4,144.26,181.52,142.92,177.68"/>
	<path class="st0" d="M164.27,218.45c0.12-0.02,0.23-0.04,0.34-0.07h0c5.66,0.18,8.16-3.52,8.21-7.37c4.69-6.26-2.64-6.29-3.37-9
		c-0.3,1.7,0.73,3.05,1.74,4.5c1.56,2.69,0.97,8.18-3.49,9.26c0,0,0,0,0,0c0.38-1.14,0.18-2.43-0.59-3.47
		c0.75,5.57-6.78,5.21-9.11,3.86C158.22,217.09,161.05,219.03,164.27,218.45"/>
	<path class="st0" d="M146.94,165.16c-1.15-0.54-2.8-1.13-3.77-1.84c-0.02-0.02-0.04-0.03-0.06-0.05c-0.41-0.31-0.73-0.66-0.94-1.02
		c-0.08,4.58,8.43,6.93,8.9,10.18C151.07,172.43,152.69,167.88,146.94,165.16"/>
	<path class="st0" d="M143.3,189.86c0.58,0.97,1.34,1.78,2.1,2.57c0.76,0.78,1.5,1.54,2.04,2.37c0.41,0.64,0.64,1.25,0.77,2.14
		c2.65-7.01-3.36-6.86-5.98-10.54c0.01,0.21,0.07,0.49,0.11,0.73C142.47,188.19,142.82,189.08,143.3,189.86"/>
	<path class="st0" d="M166.72,161.68c0.63,2.55,4.03,3.96,6.53,4.75c2.51,0.79,6.04,1.69,6.67,4.09
		C181.59,163.95,169.62,164.81,166.72,161.68"/>
	<path class="st0" d="M133.94,181.12c4.13-3.22,4.39-6.85,4.5-8.32c3.4-1.52,4.39-4.48,4.39-4.48c0-0.01,0-0.01,0.01-0.02
		c-0.07-0.68-0.16-1.57-0.19-2.26c-0.51,1.71-2.31,4.1-4.38,4.58c-0.2-1.11-0.51-1.9-0.75-2.27c-0.42,0.18,0.68,5.87-3.4,9.48
		c-0.36-2.63-1.62-4.32-2.19-5.68c-0.52,0.76,2.34,7.63-0.57,11.37c-1.2-2.72-2.76-3.12-3.74-4.64c-0.64,1.74,3.72,5.92,3.11,9.04
		C132.58,186.45,133.81,183.01,133.94,181.12"/>
	<path class="st0" d="M209.99,250.54c0.54-5.71-7.03-3.14-11.07-2.75C200.15,249.08,209.35,247.62,209.99,250.54"/>
	<path class="st0" d="M191.59,262.42c2.49,0.94,5.98,0.09,7.39,0.09c-0.17-1.55-1.21-3.2-2.12-3.68
		C197.49,262.26,191.94,261.53,191.59,262.42"/>
	<path class="st0" d="M193.95,268.25c4.52,2.8,8.1-1.36,8.48-5.58C200.52,263.46,199.37,268.48,193.95,268.25"/>
	<path class="st0" d="M191.78,171.26c0.84,4.43,10.33,5.01,11.79,9.77C205.09,174.37,194.8,175.03,191.78,171.26"/>
	<path class="st0" d="M193.95,253.67c-1.42-0.39-4.51-0.25-5.63,0.31c0.96,1.75,5.73,1.78,7.51,3.84
		C196.35,254.61,195.04,253.97,193.95,253.67"/>
	<path class="st0" d="M186.25,169.11c6.26,2.76,12.88-0.52,15.65,2.7c-0.74-3.83-10.73-2.98-13.59-4.28
		c2.11-1.84,3.21-3.47,5.15-3.89c-2.26-0.75-6.5,4.19-11.75,5.26c0.4-1.05,0.66-2.04,0.66-2.75c-0.65,0.16-0.7,1.37-2.45,4.37
		c0.23,0.9,0.31,1.14,0.34,1.38C182.86,171.09,184.76,170.1,186.25,169.11"/>
	<path class="st0" d="M187.35,245.75c0.62,1.74,6.37,2.91,6.78,5.2c0.2-1.7,0.31-3.95-0.17-5.77
		C193.33,246.25,191.47,246.77,187.35,245.75"/>
	<path class="st0" d="M205.29,254.47c1.06,0.31,3.15,0.59,4.7,2.12c2.47,4.66-0.44,8.86-2.12,9.23c0,0-0.01,0.01-0.02,0.02
		c0.17-1.54-0.57-2.64-0.86-3.02c1.08,6.49-7.63,6.8-8.51,7.62c1.45,0.48,4.45,0.44,6.63-0.69c6.62-0.69,6.9-7.66,6.66-9.35
		C215.04,252.68,205.77,254.23,205.29,254.47"/>
	<path class="st0" d="M137.42,280.14c2.22-5.41-9.07-4.9-9.24-10.82C126.88,276.74,136.51,277.73,137.42,280.14"/>
	<path class="st0" d="M200.4,305.67c0.52-2.65-0.33-5.17-0.97-7.44c-0.94,0.26,1.88,10.37-5.91,11.76c0.93-2.93,0.54-6.06,0.95-6.8
		c-0.79,0.15-1.28,4.66-3.03,7.28l-2.96-6.79l-12.81-29.35l-1.57,2.29l1.92,4.31l3.02,6.83l3,6.84l1.5,3.42l1.49,3.42
		c0.01,0.04,0,0.08-0.04,0.1c-0.04,0.02-0.08,0-0.1-0.03l-1.64-3.35l-1.63-3.36l-3.26-6.71l-3.24-6.72l-1.75-3.67l-3.76,5.47
		c5.81,12.07,10.89,22.64,10.89,22.64l3.13,6.5c-1.83,1.55-3.54,1.76-6.63,2.01c2.25-2,3.33-4.75,3.83-5.62
		c-0.96,0-4.5,7.09-11.88,5.32c1.74-1.02,3.28-2.57,4.35-4.69c-1.2-0.3-5.45,6.37-13.5,3.38c-0.05,0-0.11,0-0.17,0
		c3.2-0.84,5.86-2.97,6.64-4.32c-1.23-0.31-8.54,5.71-13.95,0.7c1.98-0.13,4.2-0.92,6.6-2.77c-0.91-0.58-8.31,3.71-13.5-1.96
		c2.77,0.14,5.45-0.66,6.62-1.53c-0.9-0.84-9.29,2.2-12.59-4.32c2.09,0.31,4.53,0.16,7.17-0.47c-0.17-1.23-12.23,0.33-12.59-7.06
		c2.76,1.28,6.21,1.34,8.51,1.57c-0.7-2.52-11.93-2.1-11.79-9.9c3.18,2.62,8.24,3.18,9.1,4.12c1.05-3.4-11.06-5.76-11.51-11.52
		c-0.58,2.83,0.09,4.87,1.35,6.36c-0.5,4.51,0.86,7.08,2.96,8.58c-0.35,4.09,1.55,6.69,4.73,7.83h0c0.84,3.51,3.11,5.26,5.64,5.97
		c0.79,1.36,3.01,3.88,6.24,4.79c2.28,3.23,5.07,4.33,7.74,4.31c2.09,2.12,5.4,2.92,8.61,2.24c3.56,1.52,6.32,1.51,8.45,0.75
		c3.73,0.78,7.23-0.04,8.77-0.85c0.68,0.17,1.48,0.28,2.34,0.31l1.21,2.52l3.88,8.05c0.35-0.89,1.02-1.68,1.86-2.29l-0.56-1.31
		l-0.99-2.37c-0.65-1.58-1.31-3.17-1.93-4.77c-0.01-0.04,0-0.08,0.04-0.1c0.04-0.01,0.08,0,0.09,0.03c0.84,1.5,1.66,3,2.47,4.51
		l1.21,2.27l0.63,1.21c0.21-0.1,0.42-0.21,0.61-0.33c1-0.38,2.08-0.51,3.06-0.31l-3.15-7.22l-1.19-2.73
		c1.12-0.13,4.11-0.59,6.16-3.19c0.31-0.39,0.57-0.78,0.8-1.16c2.65-1.17,6.09-3.85,6.99-7.67
		C204.65,301.86,204.79,303.29,200.4,305.67"/>
	<path class="st0" d="M129.24,225.01c-0.24,0.1-0.34,0.12-0.47,0.16C128.93,225.12,129.09,225.07,129.24,225.01 M128.72,225.18
		c-0.02,0-0.05,0.01-0.08,0.02c0.22,0.05,0.34,0.07,0.73,0.14c3.12,0.5,6.73-0.69,8.81-5.01c0.31-0.21,0.6-0.44,0.87-0.68l1.31,2.73
		l6.72,13.97c0.48-0.2,0.98-0.39,1.5-0.55c2.41-2.3,5.08-3.46,7.99-3.54c0.2-0.11,0.39-0.21,0.58-0.32l-9.44-21.62l-1.84-4.21
		c0.08-0.72,0.08-1.18,0.08-1.18c1.69-6.26-3.32-6.66-4.73-9.46l-2.06-4.72l-3.29-7.71c0,0-0.78,1.08-1.72,3.21
		c0.42,0.96,0.84,1.92,1.26,2.88l4.14,9.39l4.11,9.39l4.1,9.41l2.05,4.7l2.04,4.71c0.01,0.04,0,0.08-0.04,0.1
		c-0.04,0.01-0.08,0-0.1-0.03l-0.05-0.11c0,0,0,0,0,0l-2.19-4.64l-2.18-4.65l-4.36-9.29l-4.34-9.3l-4.32-9.3
		c-0.26-0.56-0.52-1.11-0.78-1.66c-1.23,3.27-2.51,8.2-2.59,14.75c1.14,2.37,3.09,6.55,3.09,6.55l3.55,7.39
		c-0.35,4.43-4.4,6.97-6.44,6.63c1.02-1.92,1.26-4.37,1.1-5.33c-1.64,0.81-1.23,4.93-5.23,5.67c-2.68,0.5-6.13-1.32-6.88-4.77
		c2.35,1.38,5.73,0.89,5.73,0.89c-0.3-1.84-7.16-2.19-8.32-5.95c-0.22,1.63,0.19,2.84,1.69,4.42c0.52,6.63,6.3,7.75,9,7.2
		C128.39,225.26,128.56,225.23,128.72,225.18"/>
	<path class="st0" d="M121.7,212.66c0.96,0.52,1.94,1.02,2.83,1.59c0.26,0.17,0.51,0.34,0.75,0.51c1.38-4.02-7.79-5.68-7.91-9.05
		c0,0-1.04,2.45,1.71,5.18C119.85,211.66,120.75,212.14,121.7,212.66"/>
	<path class="st0" d="M156.92,190.17c-2.36,4.95,5.45,8.06,5.87,12.09C165.23,197.4,156.83,193.69,156.92,190.17"/>
	<path class="st0" d="M171.42,193.69c-0.83,3.05,5.18,5.68,4.84,9.45C180.51,197.14,172.62,196.57,171.42,193.69"/>
	<path class="st0" d="M155.22,196.94c-2.1,5.31,4.78,8.2,6.49,10.46C162.37,203.92,155.89,201.43,155.22,196.94"/>
	<path class="st0" d="M162.37,212.37c-0.86-1.56-6.94-1.49-7.74-5.87C153.37,208.96,156.82,214.82,162.37,212.37"/>
	<path class="st0" d="M167.4,183.85c-0.85-1.27-2.38-2.3-2.91-3.44c-0.89,1.61,3.12,5.98,2.07,7.98c0.96-1.01,1.36-1.88,1.41-2.65
		c1.14-0.88,2.17-2.19,2.59-3.92c2.49-1.19,2.11-2.33,2.56-2.86c1.94,2.93,6.92,5.33,7,7.95c2.82-6.23-5.91-7.11-7.73-10.52
		c-0.08,0.71,0.09,1.38,0.42,2.02c-0.46,0.41-1.16,0.79-2.08,0.9c-0.09-1.2-0.42-2.37-0.84-3.59c-0.12,0.66,0.2,3-0.13,4.77
		C169.47,182.08,168.7,183.09,167.4,183.85"/>
	<path class="st0" d="M89.39,47.54c0.35-0.13,3.11-0.96,4.71-4.58c1.14-0.24,3.8-0.73,5.92-2.71c0.61,0.14,4.01,0.81,7.02-1.01
		c0.01,0,0.01,0,0.02,0.01c0.69,0.31,3.8,1.58,6.82,0.81c0.47,0.43,3.08,2.71,6.44,2.65c0.01,0.02,0.02,0.04,0.04,0.06
		c0.46,0.73,2.27,3.31,5.63,4.05c0.2,2.5,2.76,6.28,5.67,6.28c1.9,0,3.92-1.86,5.11-3.17c-0.74-0.89-6.47,4.87-9.45-2.92
		c-0.12-0.01-0.23-0.02-0.35-0.03c0.36,0.03,0.73,0.05,1.12,0.04c1.1-0.03,1.86-0.22,2.84-0.37c0.07-0.01,0.14-0.02,0.21-0.03
		c1.08-0.15,2.21-0.23,3.37,0c0.56,0.11,1.12,0.3,1.67,0.58c0.2,0.11,0.4,0.22,0.6,0.35c0.17,0.11,0.34,0.23,0.5,0.36
		c-0.02-0.03-0.04-0.07-0.06-0.1c-0.85-2.35-3.54-2.39-6.4-2.43c-3.1-0.05-6.6-0.1-8.62-2.96c0.05-0.01,0.09-0.02,0.14-0.04
		c0.64-0.2,1.11-0.36,1.53-0.52c0.2-0.08,0.41-0.16,0.62-0.23c0.23-0.09,0.47-0.18,0.74-0.27c1.02-0.36,2.12-0.67,3.31-0.65
		c0.2,0,0.4,0.01,0.61,0.03c0.27,0.03,0.54,0.08,0.82,0.14c0.18,0.04,0.36,0.1,0.54,0.16c0,0-0.39-1.31-2.31-1.21
		c-1.92,0.09-9.85,1.9-12.11-0.77c0.76-0.48,1.3-0.91,2.21-1.51c0.28-0.19,0.57-0.37,0.87-0.54c0.2-0.12,0.42-0.22,0.63-0.33
		c0.13-0.06,0.25-0.12,0.38-0.17c-0.1-0.04-0.2-0.08-0.28-0.11c-0.56-0.2-1.32,0.17-2.38,0.67c0,0-5.14,2.62-8.64,0.64
		c0.57-0.51,1.03-1.24,1.74-2.06c0.01,0,0.01-0.01,0.02-0.02c0.12-0.14,0.24-0.27,0.37-0.4c0.08-0.09,0.16-0.17,0.24-0.26
		c-0.06-0.01-0.13-0.02-0.19-0.03c-0.51-0.1-1.03,0.37-1.83,1.06c-3.69,3.17-6.77,2.59-7.65,2.16c0.39-0.63,0.48-0.98,0.84-1.74
		c0.06-0.14,0.13-0.27,0.2-0.41c0.03-0.06,0.06-0.13,0.1-0.2c0.01-0.02,0.02-0.04,0.03-0.07l-0.06-0.03h-0.07c0,0-0.01,0-0.01,0
		c-0.44,0-0.83,0.48-1.41,1.21c-1.13,1.42-2.97,3.72-6.52,4.01c0,0.03-0.01,0.06-0.01,0.09c0.18-0.92,0.26-1.75,0.41-2.67
		c0.01-0.11,0.03-0.22,0.06-0.34c0.01-0.07,0.02-0.15,0.04-0.22c0.02-0.13,0.05-0.26,0.08-0.39c-0.08,0.04-0.16,0.08-0.24,0.13
		l-0.01,0.01c-0.58,0.42-0.83,1.32-1.15,2.45c-0.51,1.81-1.18,4.22-3.59,5.6c0.29-2.35-1.53-5.05-1.6-6.5
		C86.81,43.01,89.52,45.63,89.39,47.54"/>
	<path class="st0" d="M79.75,52.54c0.14,0.67,0.38,1.26,0.68,1.78c0.6,1.05,1.44,1.82,2.28,2.51c0.85,0.68,1.71,1.25,2.4,1.9
		c0.54,0.49,0.87,0.81,1.27,1.59c1.76-4.31-6.94-7.48-6.31-12.56c-0.31,1.1-0.48,2.28-0.45,3.43
		C79.62,51.67,79.66,52.12,79.75,52.54"/>
	<path class="st0" d="M83.12,46.37c0.21,0.8,0.76,1.98,1.26,2.75c0.59,0.91,1.25,1.7,1.74,2.49c0.38,0.61,0.66,1.21,0.77,1.88
		c0.02-0.02,0.03-0.05,0.05-0.08c2.87-4.57-4.62-7.59-3.06-11.96c-0.22,0.41-0.41,0.85-0.56,1.32c-0.14,0.44-0.24,0.91-0.3,1.4
		c-0.06,0.58-0.06,1.18,0.01,1.82C83.06,46.1,83.09,46.22,83.12,46.37"/>
	<path class="st0" d="M106.05,127c0.17-0.07,0.33-0.15,0.48-0.23C106.35,126.87,106.23,126.93,106.05,127 M100.37,124.25
		c-0.07,0.07-0.15,0.13-0.22,0.2C100.22,124.38,100.3,124.32,100.37,124.25 M101.07,123.67c-0.1,0.08-0.2,0.17-0.31,0.25
		c-0.07,0.06-0.15,0.13-0.22,0.19c0.07-0.06,0.15-0.13,0.22-0.19C100.86,123.83,100.97,123.75,101.07,123.67 M94.73,124.06
		c-0.39,0.28-0.73,0.62-1.02,0.99c0.1,0.2,0.19,0.39,0.26,0.54c-0.07-0.16-0.16-0.34-0.26-0.54C94,124.68,94.34,124.34,94.73,124.06
		 M123.51,184.74l0.38-0.61c0.41-3.09,1.82-5.36,3.69-7.22c0.07-0.29,0.18-0.65,0.33-1.05c-0.75-1.65-1.49-3.32-2.22-4.98
		c-1.37-3.13-2.72-6.28-4.03-9.44c-1.31-3.16-2.6-6.33-3.82-9.53c-0.01-0.04,0-0.08,0.04-0.1c0.03-0.01,0.07,0,0.09,0.03
		c1.46,2.76,2.87,5.55,4.24,8.36c0.13,0.27,0.26,0.54,0.39,0.8c0.76,1.54,1.5,3.08,2.24,4.63c0.76,1.58,1.5,3.16,2.24,4.74
		c0.56,1.2,1.12,2.41,1.67,3.62c0.51-0.95,1.15-1.94,1.9-2.81l-5.33-12.1l-1.03-2.37c0.93-0.59,1.62-1.31,2.05-1.97
		c3.95-0.37,6.44-2.46,7.51-5.34c6.79-4.43-1.9-8.32-1.28-13.82c-1.69,0.61-4.38-0.6-5.33-2.45c2.48,0.4,4.31-0.06,4.31-0.06
		c1.09-0.28,2.19-0.61,3.04-0.74c1.91,3.41,6.65,6.35,3.39,12.82c1.75,0.55,4.29,0.62,6.07,1.23c0.84,0.26,1.64,0.79,2.05,1.32
		c0.04-3.13-5.58-4.86-6.56-5.03c5.57-7.98-3.61-8.84-5.62-13.61c-0.17,0.93-0.01,1.78,0.33,2.58c-2.94-0.75-6.77,0.66-10.87-2.59
		c0.76-0.26,1.08-0.45,1.81-0.78c0.99-0.44,2.16-0.91,2.98-1.03c-0.27-0.97-7.83,1.27-12.4-0.74c0.48-0.34,1.85-1.3,2.18-1.54
		c0.33-0.24,0.71-0.53,1.07-0.78c0.44-0.32,1.01-0.45,1.01-0.45c-1.49-1.11-8.31,3.03-11.17,1.16c0.44-0.48,0.86-0.99,1.28-1.5
		c0.35-0.42,0.7-0.83,1.06-1.21c-1.06-0.47-7.26,3.93-9.82,2.8c0.16-0.27,0.31-0.54,0.46-0.81c0,0,0,0,0-0.01
		c0.11-0.2,0.22-0.4,0.33-0.6c0.16-0.3,0.32-0.59,0.49-0.87c-1.37-0.13-4.35,4.58-8.58,4.12c0.05-0.21,0.11-0.43,0.16-0.64
		c0-0.01,0-0.01,0-0.02c0.04-0.18,0.09-0.36,0.13-0.54c0,0,0,0.01,0,0.01c0-0.02,0.01-0.04,0.02-0.07c0.01-0.05,0.02-0.11,0.03-0.16
		c0.12-0.46,0.23-0.92,0.38-1.37c-1.51,0.43-2.58,5.05-4.65,5.69c-1.71,0.53-2.79-1.42-2.31-4.19c-0.3,0.13-0.46,0.49-0.59,1.02
		c-0.84,3.56,1.16,5.72,1.07,8.72c0.66-0.5,2.16-1.84,4.03-4.41c1.25-0.27,3.05-0.72,6.07-2.65c1.22,0.22,3.65,0.39,7.06-0.98
		c2.56,1.13,6.3,0.48,7.12,0.42c3.53,2.25,7.1,1.99,7.87,2.05c1.58,1.54,3.27,2.44,4.83,2.95c0-0.01,0-0.02-0.01-0.03l0.03,0.01
		c-0.01,0.01-0.02,0.02-0.02,0.02c0.86,3.96,4.84,5.5,6.53,5.92c-0.18,2.75,1.58,5.49,1.58,5.49c0.47,4.36-3.61,7.53-5.98,7.82
		c0.72-1.76,0.78-5.57,0.59-6.17c0-0.01,0-0.01,0-0.02c-0.92,0.17-1.17,6.02-4.69,8.88l-3.36-7.69l-7.76-17.78
		c0,0-1.34-0.19-3.42,0.06c0.32,0.86,0.62,1.73,0.97,2.59l1.08,2.75l1.05,2.76c0.69,1.85,1.39,3.69,2.05,5.55
		c0.01,0.04-0.01,0.1-0.05,0.11c-0.04,0.01-0.09,0-0.11-0.04c-0.92-1.75-1.81-3.5-2.71-5.26l-1.33-2.64l-1.3-2.66
		c-0.43-0.89-0.9-1.76-1.35-2.64c-0.04-0.07-0.08-0.15-0.11-0.22c-2.62,0.56-5.91,1.82-9.17,4.55c1.73,3.58,7.19,14.95,7.19,14.95
		l6.22,12.93l11.49,23.89C122.98,185.42,123.24,185.07,123.51,184.74"/>
	<path class="st0" d="M85.04,150.41c0.11,0.04,0.21,0.09,0.33,0.13C85.22,150.49,85.16,150.46,85.04,150.41 M104.48,155.69
		c-0.41-0.23-1.95,0.74-3.63,0.98c-2.23,0.34-5.17-0.4-6.1-1.52c2.72-0.94,3.1-2.06,3.1-2.06c-0.47-0.24-2,0.62-4.21,0.72
		c-2.49,0.12-5.61-1.27-6.11-3.12c3.58-0.26,4.65-1.35,4.65-1.35c-0.4-1.06-8.25,1.48-10.4-5.95c0.69,0.53,1.85,0.68,2.93,0.81
		c1.08,0.12,2.17,0.16,3.21,0.31c0.13,0.02,0.26,0.04,0.39,0.07c-0.16-1.46-9.92-1.93-6.5-11.84c0.04,0.34,0.12,0.67,0.21,0.96
		c0.78,2.28,4.68,4.01,5.33,6.64c0.08-0.15,0.17-0.43,0.21-0.76c0.35-3.69-6.33-6.72-4.69-10.49c-0.61,1.01-0.89,1.8-0.95,2.04
		c-2.08,3.05-2.42,6.44-2.42,7.93c0,0.59,0.17,1.61,0.27,2.22c-0.11,4.45,2,7.23,4.78,8.88c1.84,4.3,5.71,5.18,7.56,5.4
		c3.33,3.8,8.56,2.66,8.56,2.66c4.18,2.39,8.99,0.74,8.99,0.74l-6.8-1.65C103.51,156.8,104.21,156.09,104.48,155.69"/>
	<path class="st0" d="M83.19,107.43c-2.2,1.26-4.32,2.68-6.34,4.23c-2.03,1.55-3.96,3.23-5.79,5.02c-1.83,1.79-3.55,3.7-5.15,5.71
		c0,0,6.35-10.35,15.56-16.36c-2.35,0.11-11.79,6.02-21.4,16.08c0,0,6-10.83,19.1-17.72c-1.77-0.63-16.12,7.84-24.59,17.09
		c1.44-2.3,6.08-10.7,21.75-18.32c-6.26,0.41-24.92,14.29-27.94,18.4c2.12-2.99,4.66-5.66,7.36-8.14c2.71-2.48,5.64-4.73,8.74-6.72
		c2.27-1.46,4.64-2.79,7.09-3.97c5.08-2.35,10.95-0.82,13.2,3.82C84.25,106.83,83.72,107.12,83.19,107.43 M92.35,122.23
		c0.67-0.28,1.36-0.55,2.07-0.78c0.88-0.29,1.79-0.55,2.74-0.78c2.44-1.12,5.35-1.44,8.66-1.08c0.4-0.13,1.18-0.23,2.17-0.27
		c-1.14-2.84-2.72-6.74-3.09-7.53l-0.83-2.07c-0.11,0-0.23,0.01-0.34,0.02c-0.62,0.04-1.24,0.12-1.86,0.25
		c-1.24,0.24-2.48,0.63-3.67,1.13c-1.2,0.49-2.36,1.09-3.46,1.8c-0.55,0.36-1.08,0.74-1.59,1.16c-0.51,0.42-0.99,0.87-1.43,1.37
		c0.37-0.55,0.79-1.07,1.25-1.56c0.45-0.49,0.94-0.96,1.45-1.39c1.02-0.88,2.13-1.65,3.31-2.34c1.17-0.68,2.42-1.26,3.73-1.71
		c0.61-0.21,1.24-0.39,1.9-0.52l-0.82-2.03c-0.17,0-0.33,0-0.5,0.01c-0.62,0.03-1.24,0.11-1.87,0.21c-1.25,0.22-2.49,0.59-3.7,1.05
		c-1.2,0.47-2.38,1.04-3.49,1.74c-0.55,0.35-1.09,0.73-1.6,1.14c-0.51,0.41-0.99,0.87-1.44,1.36c0.38-0.55,0.8-1.07,1.26-1.56
		c0.46-0.49,0.95-0.94,1.47-1.37c1.03-0.86,2.16-1.62,3.35-2.27c1.18-0.66,2.44-1.21,3.75-1.63c0.65-0.21,1.32-0.39,2.01-0.52
		c-0.3-0.72-0.58-1.39-0.82-1.99c-0.21,0-0.42,0-0.63,0c-0.62,0.02-1.25,0.09-1.87,0.19c-1.25,0.2-2.5,0.53-3.72,0.98
		c-1.21,0.44-2.4,1-3.51,1.68c-0.56,0.34-1.1,0.71-1.61,1.12c-0.51,0.41-1,0.86-1.44,1.35c0.38-0.55,0.8-1.06,1.27-1.55
		c0.46-0.48,0.96-0.94,1.48-1.36c1.04-0.85,2.18-1.59,3.38-2.22c1.2-0.63,2.47-1.16,3.79-1.56c0.66-0.2,1.38-0.38,2.04-0.48
		c2.03-1.08,4.2-2.1,6.45-3.08c1.21,0.74,2.61,1.09,3.9,1.22c1.04,1.83,3.35,3.13,6.17,4.22c0.58,1.72,2.7,3.8,5.97,4.83
		c0,0,1.45,3.91,5.33,5.6c0.59,1.76,1.5,3.58,3.87,5.5c0,0-0.41,3.03,2.08,6.43c0.97,1.27,1.96,2.16,2.91,2.89
		c0.37,0.27,0.78,0.57,1.16,0.83c1.95,1.33,3.51,2.2,3.86,4.64c2.77-6.69-8.06-8.87-8.64-13.72c0.29,0.17,0.58,0.33,0.88,0.46
		c0.98,0.46,2.05,0.76,3.09,1.08c1.04,0.32,2.06,0.67,2.92,1.24c0.66,0.44,1.23,1.01,1.62,1.8c1.04-7.13-8.63-4.34-11.68-10.53
		c0.13,0.02,0.26,0.04,0.39,0.06c1.56,0.2,2.19,0.23,3.28,0.27c1.09,0.04,2.15,0.09,3.13,0.38c0.75,0.22,1.45,0.6,2.04,1.22
		c0.36-3.87-11.99-3.38-14.16-7.55c0.22,0.03,0.45,0.05,0.68,0.06c1.12,0.05,2.21-0.13,3.29-0.3c1.08-0.17,2.13-0.34,3.13-0.27
		c0.77,0.06,1.46,0.27,2.22,0.71c-1.86-4.17-10.43-0.36-15.36-5.19c0.29,0.02,0.58,0.02,0.87,0.01c1.13-0.05,2.21-0.34,3.26-0.63
		c1.04-0.29,2.06-0.59,3.06-0.66c0.09,0,0.19-0.01,0.28-0.01c0.2,0,0.38,0,0.57,0.01c0.05,0,0.09,0.01,0.14,0.01
		c0.1,0.01,0.19,0.02,0.28,0.04c0.23,0.04,0.47,0.1,0.7,0.19c0.09,0.03,0.19,0.07,0.28,0.11c-1.57-2.82-10.96,0.64-15.37-3.67
		l-0.01-0.02c0.18-0.01,0.35-0.03,0.51-0.04c1.13-0.12,2.2-0.44,3.23-0.8c0.2-0.07,0.39-0.14,0.58-0.2
		c0.13-0.04,0.25-0.09,0.38-0.13c0.13-0.04,0.25-0.08,0.38-0.12c0.12-0.04,0.25-0.08,0.37-0.12c0.43-0.13,0.87-0.23,1.3-0.3
		c-0.65-1.27-5.42,0.25-9.79-0.83c15.65-6.3,33.39-10.05,33.39-10.05c-2.69,0.33-5.37,0.72-8.04,1.17
		c-4.44,0.76-8.84,1.72-13.17,2.9c-1.36,0.37-2.71,0.76-4.05,1.17c-2.95,0.91-5.87,1.92-8.74,3.03c-1.37,0.53-2.73,1.08-4.08,1.65
		c-0.72,0.3-1.42,0.6-2.14,0.92c-1.15,0.51-2.28,1.03-3.42,1.56c0,0.01,0.01,0.02,0.01,0.03c-0.26-0.01-0.53-0.02-0.79-0.01
		c-0.62,0.01-1.25,0.07-1.88,0.16c-1.26,0.18-2.51,0.48-3.73,0.9c-1.22,0.42-2.41,0.95-3.53,1.62c-0.56,0.33-1.11,0.7-1.62,1.11
		c-0.52,0.41-1,0.85-1.45,1.34c0.38-0.55,0.81-1.06,1.28-1.54c0.46-0.48,0.97-0.93,1.49-1.35c1.06-0.83,2.21-1.56,3.43-2.16
		c1.21-0.6,2.49-1.11,3.82-1.48c0.67-0.19,1.35-0.34,2.04-0.44c0.06-0.01,0.13-0.02,0.19-0.03l0,0c0.65-0.28,1.32-0.55,1.97-0.82
		c2.59-1.06,5.22-2.05,7.86-2.95c2.66-0.91,5.35-1.74,8.06-2.48c1.66-0.45,3.33-0.88,5.02-1.26c4.41-1.02,8.87-1.81,13.35-2.4
		c3.33-0.44,6.66-0.77,10.01-1c10-1.85,19.86-2.82,29.1-2.95c-1.5-0.08-2.99-0.13-4.49-0.17l-1.33-0.02l-0.66-0.01
		c-0.22,0-0.44,0-0.66,0l-2.64,0l-2.64,0.04c-0.44,0-0.88,0.02-1.32,0.03l-1.32,0.04c-3.52,0.13-7.04,0.35-10.55,0.65
		c-3.51,0.31-7.01,0.71-10.5,1.19c-6.97,0.97-13.9,2.25-20.73,3.92c-0.68,0.17-1.36,0.34-2.04,0.51c-2.73,0.7-5.43,1.46-8.1,2.31
		c-1.67,0.54-3.33,1.09-4.96,1.72c-1.24,0.47-2.47,0.96-3.67,1.5c-0.2,0.09-0.39,0.18-0.58,0.26l0-0.02
		c-0.3-0.02-0.61-0.03-0.92-0.03c-0.62,0-1.25,0.04-1.89,0.12c-1.26,0.15-2.53,0.43-3.75,0.82c-1.23,0.39-2.43,0.91-3.56,1.56
		c-1.13,0.65-2.18,1.45-3.09,2.42c0.77-1.09,1.73-2.04,2.8-2.86c1.06-0.82,2.23-1.52,3.46-2.11c1.23-0.58,2.52-1.05,3.85-1.4
		c0.67-0.17,1.35-0.31,2.05-0.4c0,0,0.01,0,0.02,0c0.08-0.01,0.16-0.02,0.24-0.03l0-0.01c0.72-0.31,1.44-0.6,2.16-0.87
		c0.54-0.2,1.07-0.4,1.6-0.59c0.02,0,0.03-0.01,0.05-0.01c0.17-0.06,0.34-0.12,0.5-0.18c0.02,0,0.03-0.01,0.05-0.01
		c1.68-0.59,3.39-1.12,5.09-1.62c2.26-0.65,4.52-1.25,6.8-1.79c1.17-0.28,2.35-0.55,3.52-0.81c6.92-1.51,13.92-2.62,20.95-3.42
		c3.52-0.39,7.04-0.71,10.57-0.93c3.53-0.22,7.06-0.35,10.6-0.39l1.32-0.01c0.44,0,0.88,0,1.33,0l2.65,0.02l2.65,0.07
		c0.22,0.01,0.44,0.01,0.66,0.02l0.66,0.03l1.33,0.06c2.07,0.1,4.13,0.24,6.2,0.42c0.09,0,0.19,0,0.29,0c0.16,0,0.18-0.24,0.02-0.26
		c-23.35-3.88-49.87-0.81-66.83,2.6c-3.72,0.75-6.98,1.51-9.65,2.22c-2.38-0.25-4.75-0.99-6.05-2.98c0,0,0,0,0,0
		c0.1,0,0.19,0.01,0.29,0.01c0.07,0,0.15,0,0.22,0c1.08,0,2.11-0.24,3.09-0.51c1.05-0.29,2.04-0.62,3-0.75
		c0.28-0.04,0.55-0.06,0.82-0.06c-0.74-1.53-11.04,0.82-13.61-4.58c0.19,0.05,0.38,0.09,0.58,0.14c1.31,0.27,2.29,0.04,3.37-0.12
		c1.07-0.16,2.09-0.38,3.05-0.42c0.16,0,0.32-0.01,0.48,0c-1.13-1.74-11.55-0.98-13.12-7.46c0-0.01,0-0.02-0.01-0.03
		c0.19,0.16,0.38,0.31,0.57,0.44c0.27,0.18,0.56,0.35,0.86,0.49c1.09,0.51,2.22,0.67,3.31,0.74c1.09,0.06,2.12,0.04,3.06,0.17
		c0.22,0.03,0.43,0.06,0.64,0.11c-0.38-2.75-10.71-2.46-10.86-10.82c0.33,0.61,0.72,1.12,1.16,1.54c0.88,0.84,1.91,1.35,2.92,1.74
		c1.01,0.39,2.01,0.66,2.87,1.03c0.68,0.28,1.26,0.62,1.74,1.12c0.6-4.16-10.58-4.76-9.07-13.97c-0.54,1.58-1.02,4.16-0.12,7.28
		c0,0-0.95,5.58,1.91,9.13c0.09,1.48,0.42,5.89,4.52,8.08c0.38,1.26,1.79,4.96,5.82,6.27c0.42,0.88,1.78,3.26,4.6,4.6
		c-0.09,0.03-0.18,0.05-0.26,0.08c-1.13-0.11-2.38-0.06-3.68,0.15c-4.26,0.69-8.97,3.08-10.97,6.77
		c-15.04,5.96-30.97,14.89-40.88,32.01c-0.57,0.98-0.06,2.23,1.03,2.54c6.87,1.96,15.49,2.01,22.3,0.55c0.75-0.16,1.4-0.62,1.8-1.27
		c5.11-8.32,10.69-14.95,20.62-20.91C88.06,113.31,90.65,118.68,92.35,122.23"/>
	<path class="st0" d="M149.26,156.37c-0.16-7.23-6.91-5.11-11.7-7.97C137.91,152.31,148.1,153.06,149.26,156.37"/>
	<path class="st0" d="M180.56,178.35c2.04-5.39-6.65-5.58-8.89-8.72C172.11,173.74,179.81,175.83,180.56,178.35"/>
	<path class="st0" d="M160.34,158.84c4.69,2.63,11.11,0.74,13.73,1.07c-0.52-2.04-8.36-0.46-11.27-2.6c0.55-0.53,1.3-1.46,2.11-1.94
		c-1.05-0.9-5.06,2.75-9.15,2.75c1.9-2.93,2.05-4.5,2.05-4.5c-1.53,0.34-1.92,3.76-7.56,6.83l0.02,0.12
		c-1.76-3.4-8.2-2.83-10.73-6.52c0,5.25,10.39,7.34,11.01,10.04c0.1-0.52,0.15-0.99,0.16-1.42c1.08-0.71,2.19-1.52,3.23-2.33
		C156.79,160.36,158.63,159.7,160.34,158.84"/>
	<path class="st0" d="M166.84,264.12c-0.46-0.99-0.91-1.99-1.35-2.99c-1-2.28-1.98-4.57-2.93-6.87c-0.95-2.3-1.87-4.62-2.72-6.97
		c-0.01-0.04,0.01-0.08,0.05-0.09c0.03-0.01,0.07,0,0.09,0.03c1.24,2.16,2.4,4.37,3.54,6.58c1.14,2.22,2.25,4.45,3.33,6.69
		c0.29,0.59,0.57,1.18,0.85,1.78L166.84,264.12z M177.59,241.06l-8.5,18.23l-8.13-18.62c0,0-6.91,2.46-8.02,7.84
		c0.9,1.88,4.71,9.79,10.76,22.36l-13.16,28.25c1.44,0.85,2.66,2.11,3.44,3.42c0.78-1.54,1.56-3.09,2.35-4.63
		c3.15-6.2,6.35-12.37,9.6-18.52c1.63-3.07,3.27-6.14,4.92-9.2c1.67-3.05,3.33-6.1,5.05-9.13c-1.43,3.17-2.92,6.31-4.4,9.46
		c-1.49,3.14-3.01,6.27-4.53,9.39c-3.06,6.25-6.16,12.47-9.32,18.66c-0.76,1.49-1.52,2.98-2.28,4.47c0.76,0.23,1.53,0.52,2.27,0.86
		l24.01-46.07c0-0.01,3.35-6.34,4.24-8.15c-0.64-2.22-0.63-4.32-0.02-6.62c-0.03-0.19-0.06-0.38-0.08-0.56
		c-1.3,2.35-4.22,7.65-5.34,9.64c1.17-2.5,3.87-8.11,5.18-10.82c-0.32-2.59-0.26-4.33,0.09-5.97c-0.25-1.84,0-6.13,0.99-8.5
		c-0.19-2.28-0.1-4.32,0.24-5.9L177.59,241.06z"/>
</g>
</svg>
