<?xml version="1.0" encoding="utf-8"?>
<!-- Generator: Adobe Illustrator 25.3.1, SVG Export Plug-In . SVG Version: 6.00 Build 0)  -->
<svg version="1.1" id="Layer_1" xmlns="http://www.w3.org/2000/svg" xmlns:xlink="http://www.w3.org/1999/xlink" x="0px" y="0px"
	 viewBox="0 0 361.4 179.7" style="enable-background:new 0 0 361.4 179.7;" xml:space="preserve">
<g>
	<path d="M201.5,168.7c0.8,1.8,2.6,3.2,5.2,3.2c4.4,0,6.7-3.4,6.7-7.7c0-4.3-2.3-7.8-6.6-7.8c-2.6,0-4.4,1.4-5.1,3.2v-9.1h-4v21h3.1
		L201.5,168.7z M201.7,163.9c0-2.7,1.6-4.3,3.9-4.3c2.5,0,3.8,1.8,3.8,4.6c0,2.8-1.3,4.6-3.8,4.6c-2.3,0-3.9-1.6-3.9-4.3V163.9z
		 M190.8,164.7c0,2.5-1.2,4.1-3.2,4.1c-2,0-2.8-1.3-2.8-3.6v-8.4h-4v9.2c0,3.3,1.3,5.9,5.2,5.9c2.2,0,4-1.1,4.7-2.8v2.4h4v-14.7h-4
		V164.7z M174.1,171.6h4v-21h-4V171.6z M151.5,161c0,6.5,4.6,10.9,10.5,10.9c6.2,0,9.6-3.9,10-9.2l-4-0.2c-0.3,3.1-2.2,5.7-6,5.7
		c-3.7,0-6.2-2.8-6.2-7.2c0-4.4,2.5-7.2,6.2-7.2c3.8,0,5.7,2.6,6,5.7l4-0.2c-0.4-5.3-3.8-9.2-10-9.2
		C156.1,150.1,151.5,154.6,151.5,161"/>
	<path d="M355.4,135.7c0,1.7-1,2.6-2.6,2.6c-1.5,0-2.5-0.9-2.5-2.6c0-1.7,1-2.6,2.5-2.6C354.4,133.1,355.4,134,355.4,135.7
		 M348.6,147.3c0-1.1,0.9-1.5,1.9-1.5h4.9c1.3,0,2.1,0.4,2.1,1.3c0,1.4-2.1,2.1-5.1,2.1C350.1,149.2,348.6,148.6,348.6,147.3
		 M359.5,135.7c0-0.8-0.2-1.6-0.6-2.2c0.8-0.3,1.7-0.4,2.5-0.4v-3.2c-1.6,0-3.1,0.9-3.9,2.1c-1.2-0.8-2.9-1.3-4.7-1.3
		c-3.9,0-6.6,1.9-6.6,5c0,1.6,0.8,2.9,2,3.8c-1.4,0.6-2.4,1.6-2.4,2.9c0,1.2,0.7,2.3,2,2.7c-1.7,0.2-2.9,1.3-2.9,2.8
		c0,2.7,3.5,3.8,7.5,3.8c4.6,0,8.8-1.5,8.8-5.2c0-2.4-1.7-4.1-4.9-4.1h-5.9c-1.1,0-1.5-0.4-1.5-1.1c0-0.5,0.2-0.8,0.6-1.1
		c0.9,0.4,2,0.5,3.2,0.5C356.7,140.7,359.5,138.8,359.5,135.7 M333.6,137.9c0-2.5,1.3-4.1,3.3-4.1c2,0,2.9,1.3,2.9,3.6v8.4h4v-9.2
		c0-3.3-1.4-5.9-5.4-5.9c-2.2,0-4.1,1.1-4.8,2.8v-2.4h-4v14.7h4V137.9z M322.7,128.7h4.1v-3.9h-4.1V128.7z M322.7,145.8h4v-14.7h-4
		V145.8z M321.4,131.3c-0.4-0.4-1.2-0.6-2.1-0.6c-2,0-3.6,1.5-4.1,3.2v-2.8h-4v14.7h4v-7.3c0-2.7,1.4-4.1,3.5-4.1
		c1,0,1.6,0.2,2.4,0.6L321.4,131.3z M298.1,137c0.4-1.8,1.5-3.3,3.7-3.3c2.2,0,3.3,1.6,3.4,3.3H298.1z M305.8,140.7
		c-0.6,1.7-1.7,2.5-3.7,2.5c-2.2,0-3.9-1.5-4-3.7h11V138c0-4-2.5-7.3-7.3-7.3c-4.4,0-7.7,3.3-7.7,8c0,4.6,3.3,7.5,7.8,7.5
		c3.8,0,6.3-1.9,7.1-5.2L305.8,140.7z M281.8,137c0.4-1.8,1.5-3.3,3.7-3.3c2.2,0,3.3,1.6,3.4,3.3H281.8z M289.4,140.7
		c-0.6,1.7-1.7,2.5-3.7,2.5c-2.2,0-3.9-1.5-4-3.7h11.1V138c0-4-2.5-7.3-7.3-7.3c-4.4,0-7.7,3.3-7.7,8c0,4.6,3.3,7.5,7.8,7.5
		c3.8,0,6.3-1.9,7.1-5.2L289.4,140.7z M265.8,137.9c0-2.5,1.3-4.1,3.3-4.1c2,0,2.9,1.3,2.9,3.6v8.4h4v-9.2c0-3.3-1.4-5.9-5.4-5.9
		c-2.2,0-4.1,1.1-4.8,2.8v-2.4h-4v14.7h4V137.9z M254.8,128.7h4.1v-3.9h-4.1V128.7z M254.9,145.8h4v-14.7h-4V145.8z M251.2,136.4
		c0-3.9-2.5-5.7-6.3-5.7c-3.9,0-6.2,2.1-6.7,5.1l3.6,0.3c0.3-1.4,1.2-2.4,2.9-2.4c1.7,0,2.6,1,2.6,2.6v0.3l-4,0.8
		c-3.3,0.7-5.6,1.8-5.6,4.6c0,2.5,1.9,4.1,4.9,4.1c2.2,0,4.2-0.9,5-2.6c0.4,1.6,1.4,2.6,3.1,2.6c1.3,0,2.1-0.4,2.8-0.9v-2.1
		c-0.4,0.2-0.8,0.3-1.2,0.3c-0.6,0-1-0.4-1-1.1V136.4z M247.3,139.4c0,2.4-1.6,4-3.7,4c-1.3,0-2-0.6-2-1.6c0-1.5,1.2-1.8,3-2.1
		l2.8-0.6V139.4z M228.4,142.1c0,3.1,1.9,4.1,4.2,4.1c1.8,0,3-0.5,4.1-1.3v-2.6c-0.9,0.4-1.7,0.7-2.5,0.7c-1.2,0-1.8-0.6-1.8-1.8
		v-7.3h4v-2.8h-4V127H230l-0.5,2c-0.3,1.4-0.7,2.1-2.2,2.3l-1,0.2v2.4h2.1V142.1z M215.1,137.9c0-2.5,1.3-4.1,3.3-4.1
		c2,0,2.9,1.3,2.9,3.6v8.4h4v-9.2c0-3.3-1.4-5.9-5.4-5.9c-2.2,0-4.1,1.1-4.8,2.8v-2.4h-4v14.7h4V137.9z M204.1,139
		c0,2.5-1.2,4.1-3.2,4.1c-2,0-2.8-1.3-2.8-3.6v-8.4h-4v9.2c0,3.3,1.3,5.9,5.2,5.9c2.2,0,4-1.1,4.7-2.8v2.4h4v-14.7h-4V139z
		 M192.3,138.5c0-4.6-3.2-7.8-7.8-7.8c-4.5,0-7.7,3.2-7.7,7.8c0,4.6,3.2,7.7,7.7,7.7C189.1,146.2,192.3,143,192.3,138.5
		 M180.8,138.5c0-2.8,1.3-4.7,3.7-4.7c2.5,0,3.7,1.9,3.7,4.7c0,2.8-1.3,4.7-3.7,4.7C182.1,143.2,180.8,141.2,180.8,138.5
		 M165.2,145.8l5-16.6h0.1v16.6h4.2v-21h-6.4l-4.4,15.3h-0.1l-4.6-15.3h-6.6v21h3.9v-16.6h0.1l5.1,16.6H165.2z"/>
	<path d="M250.5,112.2c0-2.5,1.3-4.1,3.3-4.1c2,0,2.9,1.3,2.9,3.6v8.4h4v-9.2c0-3.3-1.4-5.9-5.4-5.9c-2.2,0-4.1,1.1-4.8,2.8V99h-4
		v21h4V112.2z M231,115.2c0.3,3.6,3.2,5.3,7,5.3c3.8,0,6.4-1.7,6.4-4.7c0-2.8-1.8-4.1-4.9-4.6l-2.8-0.5c-1.1-0.2-1.6-0.6-1.6-1.4
		c0-1,0.9-1.6,2.4-1.6c2.1,0,3.2,0.8,3.5,2.5l3.3-0.1c-0.3-3.3-2.7-5.1-6.8-5.1c-3.7,0-6.1,1.9-6.1,4.7c0,2.7,1.7,3.9,4.9,4.4
		l2.3,0.4c1.5,0.2,2.1,0.7,2.1,1.7c0,1.1-1.2,1.6-2.7,1.6c-2,0-3.4-0.9-3.6-2.7L231,115.2z M225.1,102.9h4.1V99h-4.1V102.9z
		 M225.2,120h4v-14.7h-4V120z M215.2,116.3c0,3.1,1.9,4.1,4.2,4.1c1.8,0,3-0.5,4.1-1.3v-2.6c-0.9,0.4-1.7,0.7-2.5,0.7
		c-1.2,0-1.8-0.6-1.8-1.8v-7.3h4v-2.8h-4v-4.1h-2.4l-0.5,2c-0.3,1.4-0.7,2.1-2.2,2.3l-1,0.2v2.4h2.1V116.3z M204.7,116.3
		c0,3.1,1.9,4.1,4.2,4.1c1.8,0,3-0.5,4.1-1.3v-2.6c-0.9,0.4-1.7,0.7-2.5,0.7c-1.2,0-1.8-0.6-1.8-1.8v-7.3h4v-2.8h-4v-4.1h-2.4
		l-0.5,2c-0.3,1.4-0.7,2.1-2.2,2.3l-1,0.2v2.4h2.1V116.3z M202.1,112.7c0-4.6-3.2-7.8-7.8-7.8c-4.5,0-7.7,3.2-7.7,7.8
		c0,4.6,3.2,7.7,7.7,7.7C198.9,120.4,202.1,117.3,202.1,112.7 M190.7,112.7c0-2.8,1.3-4.7,3.7-4.7c2.5,0,3.7,1.9,3.7,4.7
		c0,2.8-1.3,4.7-3.7,4.7C191.9,117.4,190.7,115.5,190.7,112.7 M170.5,112.7c0,4.7,3.2,7.7,7.8,7.7c4.4,0,6.8-2.9,7.1-6.4l-3.4-0.3
		c-0.3,2.2-1.5,3.6-3.7,3.6c-2.2,0-3.7-1.6-3.7-4.7c0-3.1,1.5-4.7,3.7-4.7c2.2,0,3.4,1.4,3.7,3.6l3.4-0.2c-0.3-3.5-2.7-6.4-7.1-6.4
		C173.7,104.9,170.5,108,170.5,112.7 M151.4,112.6c0,5.1,3.9,7.9,9.3,7.9c4.7,0,8.3-2.2,8.3-6.4c0-3.4-1.9-5.4-6.1-6.1l-3.9-0.7
		c-1.9-0.4-3-0.9-3-2.4c0-1.8,1.4-2.9,3.9-2.9c2.9,0,4.7,1.5,4.9,4.4l3.8-0.1c-0.1-4.7-3.2-7.5-8.7-7.5c-4.9,0-8,2.5-8,6.5
		c0,3.5,2.3,5.3,5.5,5.9l4,0.7c2.2,0.4,3.5,1,3.5,2.6c0,1.8-1.7,2.8-4.3,2.8c-2.9,0-5.3-1.5-5.5-4.7L151.4,112.6z"/>
	<path d="M89.3,163.8c-0.5,0-1.1,0.1-1.7,0.3c-0.2,0.1-0.4,0.2-0.7,0.3c-0.5,0.3-0.9,0.6-1.1,1l5.1,6.7c0.1,0.1,0.2,0,0.2-0.1
		L89.3,163.8z"/>
	<path d="M53.6,173.3c-0.7-0.3-1.2-0.8-1.4-1.2l-2,7.5c0,0.1,0.1,0.2,0.2,0.1l5-5.9C54.9,173.8,54.2,173.6,53.6,173.3"/>
	<path d="M144.1,89.8c-1.9-12.2-19.8-27.2-27-32.8c-1.8-1.4-2.6-3.4-5.3-4.9c-2-1.1-3.7-1.6-4.7-1.7c-0.9-0.1-1.7-0.4-2.5-0.9
		c-3-1.9-8.5-4.7-12-6c-0.5-0.2-1.1-0.3-1.6-0.2c-0.7,0.2-1.5,0.4-2,0.6c0.1,0,0.2,0.1,0.3,0.1c0.9,0.3,1.9,0.8,2.6,1.4
		c-0.9-0.3-1.9-0.6-2.8-0.7c-0.6-0.1-1.2-0.2-1.8-0.2c-0.8,0.3-1.6,0.6-2.4,1c1.5,0.2,3,0.6,4.3,1.5c-2-0.5-3.9-0.7-5.9-0.7
		c-0.9,0.5-1.8,1-2.7,1.6c1.9-0.1,3.8,0.1,5.5,1c-2-0.2-4-0.2-6,0c-0.3,0-0.7,0.1-1,0.1c-0.6,0.4-1.1,0.9-1.6,1.4
		c-0.3,0.2-0.2,0.7,0.3,0.7c9.6,0.8,16.3,2.5,20.5,3.9c3.9,1.3,5.8,5.6,4.2,9.4c-0.5,1.2-1.1,2.4-1.5,3.3l0,0l-8.3,17.9
		c-0.9-1.7-4.4-3-4.7-4.7c-0.3,2.6,3,4,4.2,6c0,0,0,0,0,0c0,0,0,0,0,0.1c0,0,0,0,0,0c0,0,0,0,0,0.1c0,0,0,0,0,0v0c0,0,0,0,0,0.1
		c0,0,0,0,0,0c0,0,0,0,0,0.1c0,0,0,0,0,0c0,0,0,0,0,0.1c0,0,0,0,0,0c0,0,0,0,0,0c0,0,0,0,0,0.1c0,0,0,0,0,0c0,0,0,0,0,0
		c0,0,0,0.1,0,0.1c0.2,0.8,0,2-0.3,3c0,0.1,0,0.1-0.1,0.2c0.2-2.1-3.6-2.5-3.8-4.6c-0.5,1.8,1.7,3.3,2.7,4.7c0,0,0,0,0.1,0.1
		c0,0,0,0,0,0c0,0,0,0,0,0.1c0,0,0,0,0,0c0,0,0,0,0,0.1c0,0,0,0,0,0c0,0,0,0,0,0.1c0,0,0,0,0,0c0,0,0,0,0,0.1c0,0,0,0,0,0
		c0,0,0,0,0,0.1c0,0,0,0,0,0c0,0,0,0,0,0c0,0,0,0,0,0c0,0,0,0,0,0c0,0,0,0,0,0c0,0,0,0,0,0c0,0,0,0,0,0c0,0,0,0,0,0c0,0,0,0,0,0
		c0,0,0,0,0,0c0,0,0,0,0,0c0,0,0,0,0,0c0,0,0,0,0,0c0,0,0,0,0,0c0,0,0,0,0,0c0,0,0,0,0,0c0,0,0,0,0,0.1c0,0,0,0,0,0c0,0,0,0.1,0,0.1
		c0,1-0.2,1.9-0.4,2.7c0,0.1-0.1,0.2-0.1,0.3c0-0.1,0-0.1,0-0.2C90.5,93,87.3,92,87.2,90c-0.7,2,1.8,3.7,2.6,5.4c0,0,0,0,0,0.1
		c0,0,0,0,0,0c0,0,0,0,0,0.1v0c0,0,0,0.1,0.1,0.1c0,0,0,0,0,0c0,0,0,0,0,0c0,0,0,0,0,0c0,0,0,0,0,0c0,0,0,0,0,0c0,0,0,0,0,0
		c0,0,0,0,0,0.1c0,0,0,0,0,0c0,0,0,0,0,0c0,0,0,0,0,0c0,0,0,0,0,0c0,0,0,0,0,0c0,0,0,0,0,0c0,0,0,0,0,0c0,0,0,0,0,0l0,0c0,0,0,0,0,0
		c0,0,0,0,0,0c0,0,0,0,0,0c0,0,0,0,0,0c0,0,0,0,0,0v0c0,0,0,0,0,0v0c0,0,0,0,0,0c0,0.1,0,0.2,0,0.2c0,0.7-0.1,1.4-0.3,2
		c-0.1,0.2-0.2,0.5-0.2,0.7c0.1-1.1-0.9-1.8-1.4-2.2c-0.7-0.5-1.8-1.5-2.1-2.6c-0.6,2.1,2.4,4.3,2.9,5.7v0c0,0,0,0,0,0v0
		c0,0,0,0,0,0.1c0,0,0,0,0,0c0,0,0,0.1,0,0.1c0,0,0,0,0,0s0,0,0,0v0c0,0,0,0,0,0v0v0v0v0c0,0,0,0,0,0.1c0.1,0.7,0,1.4-0.2,2.2
		c0,0.1,0,0.2-0.1,0.3c0,0,0-0.1,0-0.1v0c0,0,0,0,0-0.1c0,0,0,0,0,0c0,0,0,0,0-0.1c0,0,0,0,0,0c0,0,0,0,0,0c0-0.1-0.1-0.2-0.1-0.2
		c0,0,0,0,0,0c0-0.1-0.1-0.1-0.1-0.2c-0.5-0.6-2.7-1.3-3.3-2.3c-0.2,1.5,2.6,3,3,4.6v0c0,0,0,0.1,0,0.1c0,0,0,0.1,0,0.1
		c0,0.1,0,0.1,0,0.2c0,0,0,0,0,0.1c0,0,0,0.1,0,0.1c0,0,0,0,0,0.1c0,0,0,0.1,0,0.1c0,0,0,0,0,0.1c1.3-2.6,2.6-5.1,3.9-7.6
		c2.1-4.1,4.3-8.2,6.4-12.3c1.1-2,2.2-4.1,3.3-6.1c1.1-2,2.2-4.1,3.4-6.1c-1,2.1-2,4.2-3,6.3c-1,2.1-2,4.2-3.1,6.3
		c-2.1,4.2-4.2,8.3-6.3,12.4c-1.5,3-3.1,5.9-4.6,8.9c-0.1-0.3-0.2-0.6-0.4-0.8c-0.7-0.7-2.9-0.6-3.7-1.5c0.1,1.5,2.5,2.3,3.3,3.8
		c0,0,0,0.1,0,0.1c0,0,0,0,0,0c0,0,0,0,0,0.1c0,0,0,0,0,0c0,0,0,0,0,0.1c0,0,0,0,0,0c0,0,0,0.1,0,0.1v0c0,0.1-0.1,0.2-0.1,0.3
		c0.1,0.4,0.1,0.7,0.2,1c0,0,0,0,0,0c0,0,0,0,0,0c0,0,0,0,0,0c0,0,0,0,0,0c0,0,0,0,0,0c0,0,0,0,0,0l0,0c0,0,0,0,0,0c0,0,0,0,0,0
		c0,0,0,0,0,0c0,0,0,0,0,0c0,0,0,0-0.1,0c-0.5,0.3-1.6,0.3-3.5-0.5c0.1,0.8,3.2,2.3,3.3,4.4c-0.8,0.4-1.6,0.5-3.5,0.1
		c0.2,0.8,3.1,2.3,3.5,3.3c2.5,0.2,3.4-1.3,5.4-0.7c-1.6-1.2-3-0.3-5.1-0.2c0.2-0.8,0.1-1.6-0.1-2.3c0.4-0.9,0.6-2.1,0.6-3.1
		l21.4-40.8l0.4-0.8c-0.4,0-0.9,0-1.3,0c-0.1,0-0.2,0-0.2,0c-1.7-0.3-3.9-1.4-4.6-2.6c0,0,0,0,0,0c0.5,0.4,1,0.7,1.6,0.9
		c1,0.5,2.2,0.8,3.3,0.9c0.5,0,1.1,0,1.6-0.1l0.8-1.4c-0.2,0-0.5,0-0.7,0c-1.7-0.1-4.4-1.2-5.5-2.7c3.8,1.8,6.1,1.8,6.7,1.7l0.7-1.4
		c-2.2,0.1-5.7-1.1-7.2-3.1c4.4,2.7,8.1,2.1,8.1,2.1l0.1,0l0.1,0c0.9,0.2,1.7,0.6,2.5,1c0.8,0.4,1.6,0.8,2.3,1.2
		c1.5,0.9,3,1.8,4.4,2.8c1.5,1.1,2.9,2.2,4.3,3.3c2.9,2.2,6,4.7,8.8,7.3c-1.5-1.7-3.2-3.4-4.9-4.9c-1.3-1.2-2.6-2.3-4-3.4
		c-1.4-1.1-2.8-2.2-4.2-3.2c-1.4-1-2.9-2-4.4-2.9c-0.7-0.5-1.5-0.9-2.3-1.3c-0.7-0.4-1.5-0.8-2.3-1.1c0,0-6.1,0.3-9.5-4.8
		c5.3,4.7,9.7,3.9,9.7,3.9c0.9,0.3,1.7,0.7,2.5,1.1c0.8,0.4,1.6,0.9,2.3,1.4c1.5,0.9,3,1.9,4.4,3c2.9,2.1,5.6,4.4,8.2,6.8
		c2.6,2.4,5,5.1,7.1,7.9c0.1,0.1,0.2,0.2,0.3,0.4c2.1,2.2,3.9,4.3,5,6.2c-1.2-2.8-3-5.4-4.9-7.7c-2.3-2.8-4.8-5.3-7.5-7.7
		c-2.7-2.4-5.5-4.6-8.4-6.7c-1.4-1.1-2.9-2.1-4.4-3.1c-0.7-0.5-1.5-1-2.3-1.4c-0.7-0.4-1.5-0.9-2.2-1.3c-1.9,0-3.9-0.4-5.6-1.4
		c-3.6-2-5.4-4.6-7.4-5.9c-0.1,0,0-0.1,0.1-0.1c2.6,1.2,4.3,3.5,7.7,5.3c1.6,0.8,3.5,1.3,5.3,1.3l0.1,0l0.1,0
		c0.9,0.4,1.6,0.9,2.4,1.3c0.8,0.5,1.5,1,2.3,1.5c1.5,1,3,2,4.4,3.1c2.9,2.2,5.7,4.4,8.3,6.9c2.6,2.5,5.1,5.1,7.3,8
		c1.1,1.4,2.1,3,3,4.5c0.7,1.3,1.3,2.6,1.8,4c0.1,0.1,0.1,0.2,0.2,0.3C144,90,144.1,90,144.1,89.8"/>
	<path d="M61.3,159.5c-1.8,3.5-3.7,6.9-5.6,10.4c1.6-3.6,3.3-7.1,5.1-10.7c0.4-0.8,0.8-1.6,1.2-2.5c-0.7-0.2-1.5-0.6-2.1-1.1
		c-1,2.3-7.2,15.4-7.2,15.4c0.6,1.1,2.2,1.8,3.4,1.4l8-15.3c0,0-0.6-0.1-1.4-0.3C62.2,157.8,61.8,158.7,61.3,159.5"/>
	<path d="M45.2,94.7c0.3,0.5,0.8,0.9,1.2,1.3c0.5,0.4,0.9,0.8,1.3,1.3c0.2,0.2,0.4,0.5,0.5,0.8c0,0.1,0.1,0.1,0.1,0.2
		c0,0.1,0.1,0.2,0.1,0.2c0,0,0,0.1,0,0.1c1.6-2.8-3.9-5-3.8-6.5C44.3,93.4,45.2,94.7,45.2,94.7"/>
	<path d="M60.4,119.9L60.4,119.9c1.8-0.3,2.7-1.3,3.3-2.4c1.7-0.1,2.8-0.8,3.6-1.7c1.8,0,3-0.4,3.9-0.9c1.9,0.5,5.2,0.2,6.6-2.6
		c-0.3-0.1-1.6,2.2-5.8,1.9c0,0,0,0,0,0c0.5-0.6,0.9-1.2,1.2-1.9c-0.4-0.2-1.4,2.4-5.2,2.5c0.5-1,0.8-1.9,0.9-2.3
		c-0.8,0.2-1,2.8-4.8,4c0.3-1.1,0.4-2.1,0.6-2.9c0,0,0-0.1,0-0.1c0,0,0,0,0,0c0-0.1,0-0.1,0.1-0.2c0,0,0,0,0,0c0,0,0-0.1,0-0.1
		c0,0,0,0,0,0c0-0.1,0.1-0.1,0.1-0.2c0,0,0,0,0,0c0,0,0,0,0,0c0,0,0,0,0,0c0,0,0,0,0,0c0,0,0,0,0,0c0,0,0,0,0,0c0,0,0,0,0,0
		c0,0,0,0,0,0c0,0,0,0,0,0c0,0,0,0,0,0c0,0,0,0,0,0c0,0,0,0,0,0c0,0,0,0,0,0c0,0,0,0,0,0c0,0,0,0,0,0c0,0,0,0,0,0c0,0,0,0,0,0.1
		c0,0,0,0,0,0c0,0,0,0,0,0c0,0,0,0,0,0c0,0,0,0,0,0c0,0,0,0,0,0c0,0,0,0,0,0c0,0,0,0,0,0c0,0,0,0,0,0.1c-0.7,1.5-1.2,4.5-3.7,4.9
		c0.1-1.4-0.1-2.6,0-3.2c-0.9,1.5-0.2,4.6-2.8,6.1c-0.3-1.1-0.7-1.9-0.7-2.4c-0.5,1,1.2,4.9-1.3,5.6c-0.3-0.7-0.8-1.5-1.5-2.2
		c-0.1,0.8,2.2,3,0.2,6.6c-0.7-1.1-1.6-1.9-2.1-2.5c-0.3,0.3,2.9,3.6,1.7,5.9c-1.1-0.8-2.9-1.4-3.3-3.3c-0.4,2.9,3.6,4.5,4,5.6
		c0.6-1.7,0.6-3.1,0.3-4.2c0.5-0.7,1.2-2.2,1.1-4c1.4-1.1,1.8-2.4,1.8-3.6C59.5,122.2,60.1,121,60.4,119.9"/>
	<path d="M47.7,84.4c-1.2,1.7,2.6,4.9,2.3,6.1C52,87.7,47.6,85.8,47.7,84.4"/>
	<path d="M75.2,85.1c-0.2,2.2,3.5,3.6,3.4,5.5C80.5,87.4,75.9,86.6,75.2,85.1"/>
	<path d="M48.9,94.6c2.2-2.8-2-4.3-2.9-6.7c0,0-0.5,1.1,0.2,2.2c0.3,0.6,0.7,1,1,1.4c0.4,0.5,0.8,1,1.1,1.5c0.2,0.3,0.3,0.7,0.4,1
		C48.9,94.3,48.9,94.4,48.9,94.6"/>
	<path d="M68.1,85.4c-0.4,1.3,2.5,3.9,2.3,5.2C72.4,88.4,68.5,86.4,68.1,85.4"/>
	<path d="M58.5,76.3c-0.2,1.8,1.5,3.1,1.5,3.1c0,0,0,0,0,0c0,0,0,0,0,0c1.1,1,2.7,1.8,2.8,3C63.9,78.2,59.4,78.5,58.5,76.3"/>
	<path d="M58.4,80.7c-0.6,3,4,4.6,3.9,6.3C63.6,83.4,59.2,82.9,58.4,80.7"/>
	<path d="M70.5,103.7c0.1,0,0.1,0,0.2,0h0c3.2,0.1,4.6-2,4.6-4.2c2.7-3.5-1.5-3.6-1.9-5.1c-0.2,1,0.4,1.7,1,2.5
		c0.9,1.5,0.5,4.6-2,5.2v0c0.2-0.6,0.1-1.4-0.3-2c0.4,3.2-3.8,2.9-5.1,2.2C67.1,103,68.7,104.1,70.5,103.7"/>
	<path d="M60.7,73.6c-0.7-0.3-1.6-0.6-2.1-1c0,0,0,0,0,0c-0.2-0.2-0.4-0.4-0.5-0.6c0,2.6,4.8,3.9,5,5.8C63,77.7,64,75.2,60.7,73.6"
		/>
	<path d="M58.6,87.6c0.3,0.5,0.8,1,1.2,1.5c0.4,0.4,0.8,0.9,1.2,1.3c0.2,0.4,0.4,0.7,0.4,1.2c1.5-4-1.9-3.9-3.4-6
		c0,0.1,0,0.3,0.1,0.4C58.2,86.6,58.4,87.1,58.6,87.6"/>
	<path d="M71.9,71.7c0.4,1.4,2.3,2.2,3.7,2.7c1.4,0.4,3.4,1,3.8,2.3C80.3,72.9,73.5,73.4,71.9,71.7"/>
	<path d="M53.4,82.6c2.3-1.8,2.5-3.9,2.5-4.7c1.9-0.9,2.5-2.5,2.5-2.5c0,0,0,0,0,0c0-0.4-0.1-0.9-0.1-1.3c-0.3,1-1.3,2.3-2.5,2.6
		c-0.1-0.6-0.3-1.1-0.4-1.3c-0.2,0.1,0.4,3.3-1.9,5.4c-0.2-1.5-0.9-2.4-1.2-3.2c-0.3,0.4,1.3,4.3-0.3,6.4c-0.7-1.5-1.6-1.8-2.1-2.6
		c-0.4,1,2.1,3.3,1.8,5.1C52.6,85.7,53.3,83.7,53.4,82.6"/>
	<path d="M96.3,121.9c0.3-3.2-4-1.8-6.3-1.6C90.8,121.1,96,120.2,96.3,121.9"/>
	<path d="M85.9,128.6c1.4,0.5,3.4,0.1,4.2,0c-0.1-0.9-0.7-1.8-1.2-2.1C89.3,128.5,86.1,128.1,85.9,128.6"/>
	<path d="M87.3,131.9c2.6,1.6,4.6-0.8,4.8-3.2C91,129.2,90.3,132,87.3,131.9"/>
	<path d="M86.1,77.1c0.5,2.5,5.8,2.8,6.7,5.5C93.6,78.8,87.8,79.2,86.1,77.1"/>
	<path d="M87.3,123.7c-0.8-0.2-2.5-0.1-3.2,0.2c0.5,1,3.2,1,4.2,2.2C88.6,124.2,87.9,123.8,87.3,123.7"/>
	<path d="M82.9,75.9c3.5,1.6,7.3-0.3,8.8,1.5c-0.4-2.2-6.1-1.7-7.7-2.4c1.2-1,1.8-2,2.9-2.2c-1.3-0.4-3.7,2.4-6.6,3
		c0.2-0.6,0.4-1.2,0.4-1.6c-0.4,0.1-0.4,0.8-1.4,2.5c0.1,0.5,0.2,0.6,0.2,0.8C81,77,82.1,76.4,82.9,75.9"/>
	<path d="M83.5,119.2c0.4,1,3.6,1.6,3.8,2.9c0.1-1,0.2-2.2-0.1-3.3C86.9,119.5,85.9,119.8,83.5,119.2"/>
	<path d="M93.7,124.1c0.6,0.2,1.8,0.3,2.7,1.2c1.4,2.6-0.3,5-1.2,5.2c0,0,0,0,0,0c0.1-0.9-0.3-1.5-0.5-1.7c0.6,3.7-4.3,3.8-4.8,4.3
		c0.8,0.3,2.5,0.2,3.7-0.4c3.7-0.4,3.9-4.3,3.8-5.3C99.2,123.1,94,124,93.7,124.1"/>
	<path d="M55.3,138.6c1.3-3.1-5.1-2.8-5.2-6.1C49.4,136.7,54.8,137.3,55.3,138.6"/>
	<path d="M90.9,153.1c0.3-1.5-0.2-2.9-0.5-4.2c-0.5,0.1,1.1,5.9-3.3,6.6c0.5-1.7,0.3-3.4,0.5-3.8c-0.4,0.1-0.7,2.6-1.7,4.1l-1.7-3.8
		l-7.2-16.6l-0.9,1.3l1.1,2.4l1.7,3.9l1.7,3.9l0.8,1.9l0.8,1.9c0,0,0,0,0,0.1c0,0,0,0-0.1,0l-0.9-1.9l-0.9-1.9l-1.8-3.8l-1.8-3.8
		l-1-2.1l-2.1,3.1c3.3,6.8,6.2,12.8,6.2,12.8l1.8,3.7c-1,0.9-2,1-3.7,1.1c1.3-1.1,1.9-2.7,2.2-3.2c-0.5,0-2.5,4-6.7,3
		c1-0.6,1.9-1.5,2.5-2.6c-0.7-0.2-3.1,3.6-7.6,1.9h-0.1c1.8-0.5,3.3-1.7,3.8-2.4c-0.7-0.2-4.8,3.2-7.9,0.4c1.1-0.1,2.4-0.5,3.7-1.6
		c-0.5-0.3-4.7,2.1-7.6-1.1c1.6,0.1,3.1-0.4,3.7-0.9c-0.5-0.5-5.3,1.2-7.1-2.4c1.2,0.2,2.6,0.1,4.1-0.3c-0.1-0.7-6.9,0.2-7.1-4
		c1.6,0.7,3.5,0.8,4.8,0.9c-0.4-1.4-6.7-1.2-6.7-5.6c1.8,1.5,4.7,1.8,5.1,2.3c0.6-1.9-6.3-3.3-6.5-6.5c-0.3,1.6,0.1,2.8,0.8,3.6
		c-0.3,2.5,0.5,4,1.7,4.8c-0.2,2.3,0.9,3.8,2.7,4.4h0c0.5,2,1.8,3,3.2,3.4c0.4,0.8,1.7,2.2,3.5,2.7c1.3,1.8,2.9,2.5,4.4,2.4
		c1.2,1.2,3.1,1.6,4.9,1.3c2,0.9,3.6,0.9,4.8,0.4c2.1,0.4,4.1,0,5-0.5c0.4,0.1,0.8,0.2,1.3,0.2L83,160l2.2,4.6
		c0.2-0.5,0.6-1,1.1-1.3l-0.3-0.7l-0.6-1.3c-0.4-0.9-0.7-1.8-1.1-2.7c0,0,0,0,0-0.1c0,0,0,0,0.1,0c0.5,0.8,0.9,1.7,1.4,2.6l0.7,1.3
		l0.4,0.7c0.1-0.1,0.2-0.1,0.3-0.2c0.6-0.2,1.2-0.3,1.7-0.2l-1.8-4.1l-0.7-1.5c0.6-0.1,2.3-0.3,3.5-1.8c0.2-0.2,0.3-0.4,0.5-0.7
		c1.5-0.7,3.4-2.2,4-4.3C93.3,150.9,93.4,151.7,90.9,153.1"/>
	<path d="M50.4,107.6C50.4,107.6,50.4,107.6,50.4,107.6c0.1,0,0.1,0.1,0.4,0.1c1.8,0.3,3.8-0.4,5-2.8c0.2-0.1,0.3-0.2,0.5-0.4
		L57,106l3.8,7.9c0.3-0.1,0.6-0.2,0.8-0.3c1.4-1.3,2.9-2,4.5-2c0.1-0.1,0.2-0.1,0.3-0.2l-5.3-12.2l-1-2.4c0-0.4,0-0.7,0-0.7
		c1-3.5-1.9-3.8-2.7-5.3l-1.2-2.7l-1.9-4.4c0,0-0.4,0.6-1,1.8c0.2,0.5,0.5,1.1,0.7,1.6l2.3,5.3l2.3,5.3l2.3,5.3l1.2,2.7l1.2,2.7
		c0,0,0,0,0,0.1c0,0,0,0-0.1,0l0-0.1v0l-1.2-2.6l-1.2-2.6l-2.5-5.3L56,92.6l-2.4-5.3c-0.1-0.3-0.3-0.6-0.4-0.9
		c-0.7,1.8-1.4,4.6-1.5,8.3c0.6,1.3,1.7,3.7,1.7,3.7l2,4.2c-0.2,2.5-2.5,3.9-3.6,3.7c0.6-1.1,0.7-2.5,0.6-3c-0.9,0.5-0.7,2.8-3,3.2
		c-1.5,0.3-3.5-0.7-3.9-2.7c1.3,0.8,3.2,0.5,3.2,0.5c-0.2-1-4-1.2-4.7-3.4c-0.1,0.9,0.1,1.6,1,2.5c0.3,3.7,3.6,4.4,5.1,4.1
		C50.2,107.6,50.3,107.6,50.4,107.6 M50.7,107.5c-0.1,0.1-0.2,0.1-0.3,0.1C50.5,107.5,50.6,107.5,50.7,107.5"/>
	<path d="M46.4,100.5c0.5,0.3,1.1,0.6,1.6,0.9c0.1,0.1,0.3,0.2,0.4,0.3c0.8-2.3-4.4-3.2-4.5-5.1c0,0-0.6,1.4,1,2.9
		C45.4,99.9,45.9,100.2,46.4,100.5"/>
	<path d="M66.3,87.8c-1.3,2.8,3.1,4.6,3.3,6.8C71,91.8,66.3,89.8,66.3,87.8"/>
	<path d="M74.5,89.8c-0.5,1.7,2.9,3.2,2.7,5.3C79.7,91.7,75.2,91.4,74.5,89.8"/>
	<path d="M65.4,91.6c-1.2,3,2.7,4.6,3.7,5.9C69.4,95.5,65.8,94.1,65.4,91.6"/>
	<path d="M69.4,100.3c-0.5-0.9-3.9-0.8-4.4-3.3C64.3,98.4,66.3,101.7,69.4,100.3"/>
	<path d="M72.3,84.2c-0.5-0.7-1.3-1.3-1.6-1.9c-0.5,0.9,1.8,3.4,1.2,4.5c0.5-0.6,0.8-1.1,0.8-1.5c0.6-0.5,1.2-1.2,1.5-2.2
		c1.4-0.7,1.2-1.3,1.4-1.6c1.1,1.7,3.9,3,4,4.5c1.6-3.5-3.3-4-4.4-5.9c0,0.4,0,0.8,0.2,1.1c-0.3,0.2-0.7,0.4-1.2,0.5
		c-0.1-0.7-0.2-1.3-0.5-2c-0.1,0.4,0.1,1.7-0.1,2.7C73.4,83.2,73,83.8,72.3,84.2"/>
	<path d="M28.2,7.1c0.2-0.1,1.8-0.5,2.7-2.6C31.5,4.4,33,4.1,34.2,3c0.3,0.1,2.3,0.5,4-0.6c0,0,0,0,0,0c0.4,0.2,2.2,0.9,3.9,0.5
		c0.3,0.2,1.7,1.5,3.6,1.5c0,0,0,0,0,0c0.3,0.4,1.3,1.9,3.2,2.3c0.1,1.4,1.6,3.6,3.2,3.6c1.1,0,2.2-1.1,2.9-1.8
		c-0.4-0.5-3.7,2.8-5.3-1.6c-0.1,0-0.1,0-0.2,0c0.2,0,0.4,0,0.6,0c0.6,0,1.1-0.1,1.6-0.2c0,0,0.1,0,0.1,0c0.6-0.1,1.2-0.1,1.9,0
		c0.3,0.1,0.6,0.2,0.9,0.3c0.1,0.1,0.2,0.1,0.3,0.2c0.1,0.1,0.2,0.1,0.3,0.2c0,0,0,0,0-0.1c-0.5-1.3-2-1.4-3.6-1.4
		c-1.8,0-3.7-0.1-4.9-1.7c0,0,0.1,0,0.1,0c0.4-0.1,0.6-0.2,0.9-0.3c0.1,0,0.2-0.1,0.3-0.1c0.1-0.1,0.3-0.1,0.4-0.2
		c0.6-0.2,1.2-0.4,1.9-0.4c0.1,0,0.2,0,0.3,0c0.2,0,0.3,0,0.5,0.1c0.1,0,0.2,0.1,0.3,0.1c0,0-0.2-0.7-1.3-0.7
		c-1.1,0.1-5.6,1.1-6.8-0.4c0.4-0.3,0.7-0.5,1.2-0.9c0.2-0.1,0.3-0.2,0.5-0.3c0.1-0.1,0.2-0.1,0.4-0.2c0.1,0,0.1-0.1,0.2-0.1
		c-0.1,0-0.1,0-0.2-0.1c-0.3-0.1-0.7,0.1-1.3,0.4c0,0-2.9,1.5-4.9,0.4c0.3-0.3,0.6-0.7,1-1.2c0,0,0,0,0,0c0.1-0.1,0.1-0.2,0.2-0.2
		c0,0,0.1-0.1,0.1-0.1c0,0-0.1,0-0.1,0c-0.3-0.1-0.6,0.2-1,0.6c-2.1,1.8-3.8,1.5-4.3,1.2c0.2-0.4,0.3-0.6,0.5-1
		c0-0.1,0.1-0.2,0.1-0.2c0,0,0-0.1,0.1-0.1c0,0,0,0,0,0l0,0h0h0c-0.3,0-0.5,0.3-0.8,0.7c-0.6,0.8-1.7,2.1-3.7,2.3c0,0,0,0,0,0.1
		c0.1-0.5,0.1-1,0.2-1.5c0-0.1,0-0.1,0-0.2c0,0,0-0.1,0-0.1c0-0.1,0-0.1,0-0.2c0,0-0.1,0-0.1,0.1l0,0c-0.3,0.2-0.5,0.7-0.7,1.4
		c-0.3,1-0.7,2.4-2,3.2c0.2-1.3-0.9-2.9-0.9-3.7C26.7,4.6,28.2,6,28.2,7.1"/>
	<path d="M22.7,10c0.1,0.4,0.2,0.7,0.4,1c0.3,0.6,0.8,1,1.3,1.4c0.5,0.4,1,0.7,1.4,1.1c0.3,0.3,0.5,0.5,0.7,0.9
		c1-2.4-3.9-4.2-3.6-7.1c-0.2,0.6-0.3,1.3-0.3,1.9C22.6,9.5,22.7,9.7,22.7,10"/>
	<path d="M24.6,6.5c0.1,0.5,0.4,1.1,0.7,1.6c0.3,0.5,0.7,1,1,1.4c0.2,0.3,0.4,0.7,0.4,1.1c0,0,0,0,0,0c1.6-2.6-2.6-4.3-1.7-6.8
		c-0.1,0.2-0.2,0.5-0.3,0.7c-0.1,0.3-0.1,0.5-0.2,0.8c0,0.3,0,0.7,0,1C24.6,6.3,24.6,6.4,24.6,6.5"/>
	<path d="M47.5,84.7l0.2-0.3c0.2-1.7,1-3,2.1-4.1c0-0.2,0.1-0.4,0.2-0.6c-0.4-0.9-0.8-1.9-1.3-2.8c-0.8-1.8-1.5-3.6-2.3-5.3
		c-0.7-1.8-1.5-3.6-2.2-5.4c0,0,0,0,0-0.1c0,0,0,0,0.1,0c0.8,1.6,1.6,3.1,2.4,4.7c0.1,0.2,0.1,0.3,0.2,0.5c0.4,0.9,0.8,1.7,1.3,2.6
		c0.4,0.9,0.8,1.8,1.3,2.7c0.3,0.7,0.6,1.4,0.9,2c0.3-0.5,0.6-1.1,1.1-1.6l-3-6.8l-0.6-1.3c0.5-0.3,0.9-0.7,1.2-1.1
		c2.2-0.2,3.6-1.4,4.2-3c3.8-2.5-1.1-4.7-0.7-7.8c-1,0.3-2.5-0.3-3-1.4c1.4,0.2,2.4,0,2.4,0c0.6-0.2,1.2-0.3,1.7-0.4
		c1.1,1.9,3.8,3.6,1.9,7.2c1,0.3,2.4,0.4,3.4,0.7c0.5,0.1,0.9,0.4,1.2,0.7c0-1.8-3.2-2.7-3.7-2.8c3.1-4.5-2-5-3.2-7.7
		c-0.1,0.5,0,1,0.2,1.5c-1.7-0.4-3.8,0.4-6.1-1.5c0.4-0.1,0.6-0.3,1-0.4c0.6-0.2,1.2-0.5,1.7-0.6c-0.2-0.5-4.4,0.7-7-0.4
		c0.3-0.2,1-0.7,1.2-0.9c0.2-0.1,0.4-0.3,0.6-0.4c0.2-0.2,0.6-0.3,0.6-0.3c-0.8-0.6-4.7,1.7-6.3,0.7c0.3-0.3,0.5-0.6,0.7-0.8
		c0.2-0.2,0.4-0.5,0.6-0.7c-0.6-0.3-4.1,2.2-5.6,1.6c0.1-0.2,0.2-0.3,0.3-0.5c0,0,0,0,0,0c0.1-0.1,0.1-0.2,0.2-0.3
		c0.1-0.2,0.2-0.3,0.3-0.5c-0.8-0.1-2.5,2.6-4.9,2.3c0-0.1,0.1-0.2,0.1-0.4c0,0,0,0,0,0c0-0.1,0.1-0.2,0.1-0.3c0,0,0,0,0,0
		c0,0,0,0,0,0c0,0,0-0.1,0-0.1c0.1-0.3,0.1-0.5,0.2-0.8c-0.9,0.2-1.5,2.9-2.6,3.2c-1,0.3-1.6-0.8-1.3-2.4c-0.2,0.1-0.3,0.3-0.3,0.6
		c-0.5,2,0.7,3.2,0.6,4.9c0.4-0.3,1.2-1,2.3-2.5c0.7-0.2,1.7-0.4,3.4-1.5c0.7,0.1,2.1,0.2,4-0.6c1.4,0.6,3.6,0.3,4,0.2
		c2,1.3,4,1.1,4.4,1.2c0.9,0.9,1.8,1.4,2.7,1.7c0,0,0,0,0,0l0,0c0,0,0,0,0,0c0.5,2.2,2.7,3.1,3.7,3.3c-0.1,1.6,0.9,3.1,0.9,3.1
		c0.3,2.5-2,4.3-3.4,4.4c0.4-1,0.4-3.1,0.3-3.5c0,0,0,0,0,0c-0.5,0.1-0.7,3.4-2.6,5l-1.9-4.3l-4.4-10c0,0-0.8-0.1-1.9,0
		c0.2,0.5,0.4,1,0.5,1.5l0.6,1.6l0.6,1.6c0.4,1,0.8,2.1,1.2,3.1c0,0,0,0.1,0,0.1c0,0-0.1,0-0.1,0c-0.5-1-1-2-1.5-3l-0.8-1.5L39,55.1
		c-0.2-0.5-0.5-1-0.8-1.5c0,0,0-0.1-0.1-0.1c-1.5,0.3-3.3,1-5.2,2.6c1,2,4.1,8.5,4.1,8.5l3.5,7.3L47,85.3
		C47.2,85.1,47.3,84.9,47.5,84.7 M31.2,50.4c-0.2,0.2-0.4,0.4-0.6,0.6c0.1,0.1,0.1,0.2,0.1,0.3c0-0.1-0.1-0.2-0.1-0.3
		C30.8,50.7,31,50.5,31.2,50.4 M34.8,50.2c-0.1,0-0.1,0.1-0.2,0.1c0,0-0.1,0.1-0.1,0.1c0,0,0.1-0.1,0.1-0.1
		C34.7,50.3,34.7,50.2,34.8,50.2 M34.4,50.5c0,0-0.1,0.1-0.1,0.1C34.3,50.6,34.3,50.5,34.4,50.5 M37.6,52c0.1,0,0.2-0.1,0.3-0.1
		C37.8,52,37.7,52,37.6,52"/>
	<path d="M36.7,68.3c-0.2-0.1-1.1,0.4-2.1,0.6c-1.3,0.2-2.9-0.2-3.5-0.9c1.5-0.5,1.8-1.2,1.8-1.2c-0.3-0.1-1.1,0.3-2.4,0.4
		c-1.4,0.1-3.2-0.7-3.5-1.8c2-0.1,2.6-0.8,2.6-0.8c-0.2-0.6-4.7,0.8-5.9-3.4c0.4,0.3,1,0.4,1.7,0.5c0.6,0.1,1.2,0.1,1.8,0.2
		c0.1,0,0.1,0,0.2,0c-0.1-0.8-5.6-1.1-3.7-6.7c0,0.2,0.1,0.4,0.1,0.5c0.4,1.3,2.6,2.3,3,3.8c0-0.1,0.1-0.2,0.1-0.4
		c0.2-2.1-3.6-3.8-2.7-5.9c-0.3,0.6-0.5,1-0.5,1.2c-1.2,1.7-1.4,3.6-1.4,4.5c0,0.3,0.1,0.9,0.2,1.3c-0.1,2.5,1.1,4.1,2.7,5
		c1,2.4,3.2,2.9,4.3,3.1c1.9,2.1,4.8,1.5,4.8,1.5c2.4,1.4,5.1,0.4,5.1,0.4l-3.8-0.9C36.1,68.9,36.5,68.5,36.7,68.3 M25.7,65.3
		c0.1,0,0.1,0,0.2,0.1C25.8,65.3,25.8,65.3,25.7,65.3"/>
	<path d="M29.8,49.4c0.4-0.2,0.8-0.3,1.2-0.4c0.5-0.2,1-0.3,1.5-0.4c1.4-0.6,3-0.8,4.9-0.6c0.2-0.1,0.7-0.1,1.2-0.2
		c-0.6-1.6-1.5-3.8-1.7-4.3l-0.5-1.2c-0.1,0-0.1,0-0.2,0c-0.3,0-0.7,0.1-1.1,0.1c-0.7,0.1-1.4,0.4-2.1,0.6c-0.7,0.3-1.3,0.6-2,1
		c-0.3,0.2-0.6,0.4-0.9,0.7c-0.3,0.2-0.6,0.5-0.8,0.8c0.2-0.3,0.4-0.6,0.7-0.9c0.3-0.3,0.5-0.5,0.8-0.8c0.6-0.5,1.2-0.9,1.9-1.3
		c0.7-0.4,1.4-0.7,2.1-1c0.3-0.1,0.7-0.2,1.1-0.3l-0.5-1.2c-0.1,0-0.2,0-0.3,0c-0.3,0-0.7,0.1-1.1,0.1c-0.7,0.1-1.4,0.3-2.1,0.6
		c-0.7,0.3-1.3,0.6-2,1c-0.3,0.2-0.6,0.4-0.9,0.6c-0.3,0.2-0.6,0.5-0.8,0.8c0.2-0.3,0.5-0.6,0.7-0.9c0.3-0.3,0.5-0.5,0.8-0.8
		c0.6-0.5,1.2-0.9,1.9-1.3c0.7-0.4,1.4-0.7,2.1-0.9c0.4-0.1,0.7-0.2,1.1-0.3c-0.2-0.4-0.3-0.8-0.5-1.1c-0.1,0-0.2,0-0.4,0
		c-0.4,0-0.7,0-1.1,0.1c-0.7,0.1-1.4,0.3-2.1,0.6c-0.7,0.3-1.4,0.6-2,1c-0.3,0.2-0.6,0.4-0.9,0.6c-0.3,0.2-0.6,0.5-0.8,0.8
		c0.2-0.3,0.5-0.6,0.7-0.9c0.3-0.3,0.5-0.5,0.8-0.8c0.6-0.5,1.2-0.9,1.9-1.3c0.7-0.4,1.4-0.7,2.1-0.9c0.4-0.1,0.8-0.2,1.2-0.3
		c1.1-0.6,2.4-1.2,3.6-1.7c0.7,0.4,1.5,0.6,2.2,0.7c0.6,1,1.9,1.8,3.5,2.4c0.3,1,1.5,2.1,3.4,2.7c0,0,0.8,2.2,3,3.2
		c0.3,1,0.8,2,2.2,3.1c0,0-0.2,1.7,1.2,3.6c0.5,0.7,1.1,1.2,1.6,1.6c0.2,0.2,0.4,0.3,0.7,0.5c1.1,0.8,2,1.2,2.2,2.6
		c1.6-3.8-4.6-5-4.9-7.8c0.2,0.1,0.3,0.2,0.5,0.3c0.6,0.3,1.2,0.4,1.7,0.6c0.6,0.2,1.2,0.4,1.6,0.7c0.4,0.2,0.7,0.6,0.9,1
		c0.6-4-4.9-2.5-6.6-6c0.1,0,0.1,0,0.2,0c0.9,0.1,1.2,0.1,1.9,0.2c0.6,0,1.2,0,1.8,0.2c0.4,0.1,0.8,0.3,1.2,0.7
		c0.2-2.2-6.8-1.9-8-4.3c0.1,0,0.3,0,0.4,0c0.6,0,1.3-0.1,1.9-0.2c0.6-0.1,1.2-0.2,1.8-0.2c0.4,0,0.8,0.2,1.3,0.4
		c-1-2.4-5.9-0.2-8.7-2.9c0.2,0,0.3,0,0.5,0c0.6,0,1.2-0.2,1.8-0.4c0.6-0.2,1.2-0.3,1.7-0.4c0.1,0,0.1,0,0.2,0c0.1,0,0.2,0,0.3,0
		c0,0,0.1,0,0.1,0c0.1,0,0.1,0,0.2,0c0.1,0,0.3,0.1,0.4,0.1c0.1,0,0.1,0,0.2,0.1c-0.9-1.6-6.2,0.4-8.7-2.1l0,0c0.1,0,0.2,0,0.3,0
		c0.6-0.1,1.2-0.3,1.8-0.5c0.1,0,0.2-0.1,0.3-0.1c0.1,0,0.1,0,0.2-0.1c0.1,0,0.1,0,0.2-0.1c0.1,0,0.1,0,0.2-0.1
		c0.2-0.1,0.5-0.1,0.7-0.2c-0.4-0.7-3.1,0.1-5.5-0.5c8.8-3.6,18.9-5.7,18.9-5.7c-1.5,0.2-3,0.4-4.5,0.7c-2.5,0.4-5,1-7.4,1.6
		c-0.8,0.2-1.5,0.4-2.3,0.7c-1.7,0.5-3.3,1.1-4.9,1.7c-0.8,0.3-1.5,0.6-2.3,0.9c-0.4,0.2-0.8,0.3-1.2,0.5c-0.6,0.3-1.3,0.6-1.9,0.9
		c0,0,0,0,0,0c-0.1,0-0.3,0-0.4,0c-0.4,0-0.7,0-1.1,0.1c-0.7,0.1-1.4,0.3-2.1,0.5c-0.7,0.2-1.4,0.5-2,0.9c-0.3,0.2-0.6,0.4-0.9,0.6
		c-0.3,0.2-0.6,0.5-0.8,0.8c0.2-0.3,0.5-0.6,0.7-0.9c0.3-0.3,0.5-0.5,0.8-0.8c0.6-0.5,1.3-0.9,1.9-1.2c0.7-0.3,1.4-0.6,2.2-0.8
		c0.4-0.1,0.8-0.2,1.2-0.3c0,0,0.1,0,0.1,0l0,0c0.4-0.2,0.7-0.3,1.1-0.5c1.5-0.6,2.9-1.2,4.4-1.7c1.5-0.5,3-1,4.6-1.4
		c0.9-0.3,1.9-0.5,2.8-0.7c2.5-0.6,5-1,7.6-1.4c1.9-0.2,3.8-0.4,5.7-0.6c5.7-1,11.2-1.6,16.5-1.7c-0.8,0-1.7-0.1-2.5-0.1l-0.8,0
		l-0.4,0c-0.1,0-0.3,0-0.4,0l-1.5,0l-1.5,0c-0.2,0-0.5,0-0.7,0l-0.7,0c-2,0.1-4,0.2-6,0.4c-2,0.2-4,0.4-5.9,0.7
		c-3.9,0.5-7.9,1.3-11.7,2.2c-0.4,0.1-0.8,0.2-1.2,0.3c-1.5,0.4-3.1,0.8-4.6,1.3c-0.9,0.3-1.9,0.6-2.8,1c-0.7,0.3-1.4,0.5-2.1,0.8
		c-0.1,0.1-0.2,0.1-0.3,0.1l0,0c-0.2,0-0.3,0-0.5,0c-0.4,0-0.7,0-1.1,0.1c-0.7,0.1-1.4,0.2-2.1,0.5c-0.7,0.2-1.4,0.5-2,0.9
		c-0.6,0.4-1.2,0.8-1.7,1.4c0.4-0.6,1-1.2,1.6-1.6c0.6-0.5,1.3-0.9,2-1.2c0.7-0.3,1.4-0.6,2.2-0.8c0.4-0.1,0.8-0.2,1.2-0.2
		c0,0,0,0,0,0c0,0,0.1,0,0.1,0l0,0c0.4-0.2,0.8-0.3,1.2-0.5c0.3-0.1,0.6-0.2,0.9-0.3c0,0,0,0,0,0c0.1,0,0.2-0.1,0.3-0.1c0,0,0,0,0,0
		c1-0.3,1.9-0.6,2.9-0.9c1.3-0.4,2.6-0.7,3.8-1c0.7-0.2,1.3-0.3,2-0.5c3.9-0.9,7.9-1.5,11.8-1.9c2-0.2,4-0.4,6-0.5
		c2-0.1,4-0.2,6-0.2l0.7,0c0.3,0,0.5,0,0.8,0l1.5,0l1.5,0c0.1,0,0.2,0,0.4,0l0.4,0l0.7,0c1.2,0.1,2.3,0.1,3.5,0.2c0.1,0,0.1,0,0.2,0
		c0.1,0,0.1-0.1,0-0.1C64,24.5,49,26.3,39.4,28.2c-2.1,0.4-3.9,0.9-5.5,1.3c-1.3-0.1-2.7-0.6-3.4-1.7h0c0.1,0,0.1,0,0.2,0h0.1
		c0.6,0,1.2-0.1,1.7-0.3c0.6-0.2,1.2-0.3,1.7-0.4c0.2,0,0.3,0,0.5,0c-0.4-0.9-6.2,0.5-7.7-2.6c0.1,0,0.2,0.1,0.3,0.1
		c0.7,0.2,1.3,0,1.9-0.1c0.6-0.1,1.2-0.2,1.7-0.2c0.1,0,0.2,0,0.3,0c-0.6-1-6.5-0.6-7.4-4.2c0,0,0,0,0,0c0.1,0.1,0.2,0.2,0.3,0.2
		c0.2,0.1,0.3,0.2,0.5,0.3c0.6,0.3,1.3,0.4,1.9,0.4c0.6,0,1.2,0,1.7,0.1c0.1,0,0.2,0,0.4,0.1c-0.2-1.6-6.1-1.4-6.1-6.1
		c0.2,0.3,0.4,0.6,0.7,0.9c0.5,0.5,1.1,0.8,1.7,1c0.6,0.2,1.1,0.4,1.6,0.6c0.4,0.2,0.7,0.4,1,0.6c0.3-2.4-6-2.7-5.1-7.9
		c-0.3,0.9-0.6,2.4-0.1,4.1c0,0-0.5,3.2,1.1,5.2c0.1,0.8,0.2,3.3,2.6,4.6c0.2,0.7,1,2.8,3.3,3.5c0.2,0.5,1,1.8,2.6,2.6
		c-0.1,0-0.1,0-0.1,0c-0.6-0.1-1.3,0-2.1,0.1c-2.4,0.4-5.1,1.7-6.2,3.8c-8.5,3.4-17.5,8.4-23.1,18.1c-0.3,0.6,0,1.3,0.6,1.4
		c3.9,1.1,8.8,1.1,12.6,0.3c0.4-0.1,0.8-0.3,1-0.7c2.9-4.7,6-8.5,11.7-11.8C27.4,44.3,28.9,47.3,29.8,49.4 M24.7,41
		c-1.2,0.7-2.4,1.5-3.6,2.4c-1.1,0.9-2.2,1.8-3.3,2.8c-1,1-2,2.1-2.9,3.2c0,0,3.6-5.9,8.8-9.2c-1.3,0.1-6.7,3.4-12.1,9.1
		c0,0,3.4-6.1,10.8-10c-1-0.4-9.1,4.4-13.9,9.7c0.8-1.3,3.4-6,12.3-10.4C17.3,38.8,6.7,46.7,5,49c1.2-1.7,2.6-3.2,4.2-4.6
		c1.5-1.4,3.2-2.7,4.9-3.8c1.3-0.8,2.6-1.6,4-2.2c2.9-1.3,6.2-0.5,7.5,2.2C25.3,40.6,25,40.8,24.7,41"/>
	<path d="M62,68.7c-0.1-4.1-3.9-2.9-6.6-4.5C55.6,66.4,61.4,66.8,62,68.7"/>
	<path d="M79.7,81.1c1.2-3-3.8-3.2-5-4.9C74.9,78.5,79.3,79.7,79.7,81.1"/>
	<path d="M68.3,70c2.6,1.5,6.3,0.4,7.8,0.6c-0.3-1.2-4.7-0.3-6.4-1.5c0.3-0.3,0.7-0.8,1.2-1.1c-0.6-0.5-2.9,1.6-5.2,1.6
		c1.1-1.7,1.2-2.5,1.2-2.5c-0.9,0.2-1.1,2.1-4.3,3.9l0,0.1c-1-1.9-4.6-1.6-6.1-3.7c0,3,5.9,4.1,6.2,5.7c0.1-0.3,0.1-0.6,0.1-0.8
		c0.6-0.4,1.2-0.9,1.8-1.3C66.3,70.9,67.3,70.5,68.3,70"/>
	<path d="M78,116.5l-4.8,10.3l-4.6-10.5c0,0-3.9,1.4-4.5,4.4c0.5,1.1,2.7,5.5,6.1,12.6l-7.4,16c0.8,0.5,1.5,1.2,1.9,1.9
		c0.4-0.9,0.9-1.7,1.3-2.6c1.8-3.5,3.6-7,5.4-10.5c0.9-1.7,1.8-3.5,2.8-5.2c0.9-1.7,1.9-3.5,2.9-5.2c-0.8,1.8-1.6,3.6-2.5,5.3
		c-0.8,1.8-1.7,3.5-2.6,5.3c-1.7,3.5-3.5,7-5.3,10.6c-0.4,0.8-0.9,1.7-1.3,2.5c0.4,0.1,0.9,0.3,1.3,0.5l13.6-26c0,0,1.9-3.6,2.4-4.6
		c-0.4-1.3-0.4-2.4,0-3.7c0-0.1,0-0.2,0-0.3c-0.7,1.3-2.4,4.3-3,5.5c0.7-1.4,2.2-4.6,2.9-6.1c-0.2-1.5-0.1-2.4,0.1-3.4
		c-0.1-1,0-3.5,0.6-4.8c-0.1-1.3-0.1-2.4,0.1-3.3L78,116.5z M72,129.6c-0.3-0.6-0.5-1.1-0.8-1.7c-0.6-1.3-1.1-2.6-1.7-3.9
		c-0.5-1.3-1.1-2.6-1.5-3.9c0,0,0,0,0-0.1c0,0,0,0,0,0c0.7,1.2,1.4,2.5,2,3.7c0.6,1.3,1.3,2.5,1.9,3.8c0.2,0.3,0.3,0.7,0.5,1
		L72,129.6z"/>
</g>
</svg>
