<?xml version="1.0" encoding="utf-8"?>
<!-- Generator: Adobe Illustrator 19.2.1, SVG Export Plug-In . SVG Version: 6.00 Build 0)  -->
<svg version="1.1" id="layer" xmlns="http://www.w3.org/2000/svg" xmlns:xlink="http://www.w3.org/1999/xlink" x="0px" y="0px"
	 viewBox="0 0 652 250" style="enable-background:new 0 0 652 250;" xml:space="preserve">
<path d="M 46.2 165.6 c 11 0 20 8.9 20 20 c 0 11 -9 20 -20 20 s -20 -8.9 -20 -20 C 26.2 174.5 35.2 165.6 46.2 165.6 L 46.2 165.6 z M 86.1 125.7 c 11 0 20 8.9 20 20 c 0 11 -8.9 20 -20 20 c -11 0 -20 -8.9 -20 -20 C 66.2 134.7 75.1 125.7 86.1 125.7 L 86.1 125.7 z M 126 85.9 c 11 0 20 8.9 20 19.9 s -8.9 19.9 -20 19.9 c -11 0 -20 -8.9 -20 -19.9 C 106 94.8 115 85.9 126 85.9 L 126 85.9 z M 126 165.6 c 11 0 20 8.9 20 20 c 0 11 -8.9 20 -20 20 c -11 0 -20 -8.9 -20 -20 C 106 174.5 115 165.6 126 165.6 L 126 165.6 z M 165.8 125.7 c 11 0 20 8.9 20 20 c 0 11 -8.9 20 -20 20 c -11 0 -20 -8.9 -20 -20 C 145.9 134.7 154.8 125.7 165.8 125.7 L 165.8 125.7 z M 205.7 85.9 c 11 0 20 8.9 20 19.9 s -8.9 19.9 -20 19.9 c -11 0 -20 -8.9 -20 -19.9 C 185.8 94.8 194.7 85.9 205.7 85.9 L 205.7 85.9 z M 205.7 165.6 c 11 0 20 8.9 20 20 c 0 11 -8.9 20 -20 20 c -11 0 -20 -8.9 -20 -20 C 185.8 174.5 194.7 165.6 205.7 165.6 L 205.7 165.6 z M 245.6 125.7 c 11 0 20 8.9 20 20 c 0 11 -9 20 -20 20 c -11 0 -20 -8.9 -20 -20 C 225.6 134.7 234.6 125.7 245.6 125.7 L 245.6 125.7 z M 285.5 85.9 c 11 0 19.9 8.9 19.9 19.9 s -8.9 19.9 -19.9 19.9 s -19.9 -8.9 -19.9 -19.9 C 265.6 94.8 274.5 85.9 285.5 85.9 L 285.5 85.9 z M 325.3 46 c 11 0 20 8.9 20 20 c 0 11 -9 20 -20 20 s -20 -8.9 -20 -20 C 305.4 55 314.3 46 325.3 46 L 325.3 46 z M 355.8 195.4 c 7.8 6.6 18.2 9.9 31.1 9.9 c 4 0 8 -0.4 12 -1.2 c 4 -0.8 7.8 -2.1 11.5 -3.9 s 7 -4 9.9 -6.7 c 2.9 -2.7 5.1 -6 6.9 -10 c 1.7 -4 2.6 -8.5 2.6 -13.5 c 0 -17 -10.7 -28.8 -32.1 -35.5 l -13.4 -4.1 c -7 -2.1 -10.6 -5.3 -10.6 -9.6 c 0 -2.8 1.1 -5.1 3.3 -6.8 c 2.2 -1.7 5.2 -2.5 9 -2.5 c 4.1 0 7.1 1 9.1 3 s 3 4.6 3 7.9 h 28 c 0 -11.2 -3.7 -20.1 -11.1 -26.6 c -7.4 -6.5 -17 -9.7 -28.7 -9.7 c -11.7 0 -21.5 3.3 -29.2 9.9 s -11.6 15.2 -11.6 25.7 c 0 2.4 0.2 4.8 0.6 7 c 0.4 2.2 1.3 4.8 2.6 7.5 c 1.3 2.8 3.1 5.3 5.2 7.6 c 2.1 2.3 5.1 4.6 8.9 6.7 c 3.8 2.2 8.1 4 13 5.3 l 13.7 4.7 c 2.2 0.7 4.1 1.5 5.7 2.3 c 1.6 0.8 2.8 1.5 3.5 2.1 c 0.8 0.6 1.3 1.3 1.8 2 c 0.4 0.8 0.7 1.3 0.7 1.7 s 0.1 0.8 0.1 1.4 c 0 3.4 -1.4 6 -4.2 7.8 c -2.8 1.8 -6.1 2.7 -10.1 2.7 c -4.7 0 -8.1 -1 -10.5 -3.2 c -2.3 -2.1 -3.6 -4.9 -3.8 -8.3 h -28.5 C 344.1 180.1 348 188.8 355.8 195.4 L 355.8 195.4 z M 450.9 195.4 c 7.8 6.6 18.2 9.9 31.1 9.9 c 4 0 8 -0.4 12 -1.2 c 4 -0.8 7.8 -2.1 11.5 -3.9 c 3.8 -1.8 7 -4 9.9 -6.7 c 2.9 -2.7 5.1 -6 6.9 -10 s 2.6 -8.5 2.6 -13.5 c 0 -17 -10.7 -28.8 -32.1 -35.5 l -13.4 -4.1 c -7 -2.1 -10.6 -5.3 -10.6 -9.6 c 0 -2.8 1.1 -5.1 3.3 -6.8 c 2.2 -1.7 5.2 -2.5 9 -2.5 c 4.1 0 7.1 1 9.1 3 c 2 2 3 4.6 3 7.9 h 28 c 0 -11.2 -3.7 -20.1 -11.1 -26.6 c -7.4 -6.5 -17 -9.7 -28.7 -9.7 c -11.7 0 -21.5 3.3 -29.2 9.9 s -11.6 15.2 -11.6 25.7 c 0 2.4 0.2 4.8 0.6 7 c 0.4 2.2 1.3 4.8 2.6 7.5 c 1.3 2.8 3.1 5.3 5.2 7.6 c 2.1 2.3 5.1 4.6 8.9 6.7 c 3.8 2.2 8.1 4 13 5.3 l 13.7 4.7 c 2.2 0.7 4.1 1.5 5.7 2.3 c 1.6 0.8 2.8 1.5 3.5 2.1 c 0.8 0.6 1.3 1.3 1.8 2 c 0.4 0.8 0.7 1.3 0.7 1.7 s 0.1 0.8 0.1 1.4 c 0 3.4 -1.4 6 -4.2 7.8 c -2.8 1.8 -6.1 2.7 -10.1 2.7 c -4.7 0 -8.1 -1 -10.5 -3.2 c -2.3 -2.1 -3.6 -4.9 -3.8 -8.3 H 439 C 439.2 180.1 443.1 188.8 450.9 195.4 L 450.9 195.4 z M 562.3 203.7 v -45.3 h 35.4 v 45.3 h 28.5 V 87.5 h -28.5 v 45.9 h -35.4 v -45.9 h -28.2 v 116.2 H 562.3 z"/>
</svg>
