<svg class="p-navigation__image" width="107px" height="32px" viewBox="0 0 107 32" version="1.1" xmlns="http://www.w3.org/2000/svg" xmlns:xlink="http://www.w3.org/1999/xlink">
<title>Ubuntu</title>
<g id="ubuntu-logo">
<path d="M 100.4704 15.7615 C 96.9385 15.7615 94.0754 12.8983 94.0754 9.3663 C 94.0754 5.8343 96.9385 2.971 100.4704 2.971 C 104.0023 2.971 106.8654 5.8343 106.8654 9.3663 C 106.8654 12.8983 104.0023 15.7615 100.4704 15.7615 Z M 96.4794 8.5982 C 96.0559 8.5982 95.7124 8.9418 95.7124 9.3673 C 95.7124 9.7898 96.0559 10.1343 96.4794 10.1343 C 96.9039 10.1343 97.2504 9.7898 97.2504 9.3673 C 97.2504 8.9418 96.9039 8.5982 96.4794 8.5982 Z M 101.9665 12.092 C 101.602 12.3017 101.4752 12.7732 101.6849 13.1377 C 101.8986 13.5093 102.369 13.6341 102.7336 13.4214 C 103.1031 13.2116 103.23 12.7402 103.0152 12.3726 C 102.8035 12.0031 102.3341 11.8782 101.9665 12.093 L 101.9665 12.092 Z M 98.1493 9.3673 C 98.1493 8.6082 98.5268 7.935 99.1041 7.5295 L 98.5428 6.5876 C 97.8687 7.0371 97.3683 7.7243 97.1605 8.5283 C 97.4062 8.728 97.558 9.0277 97.558 9.3673 C 97.558 9.7039 97.4062 10.0065 97.1605 10.2043 C 97.3683 11.0083 97.8697 11.6945 98.5428 12.1419 L 99.1041 11.2031 C 98.5268 10.7975 98.1493 10.1244 98.1493 9.3673 Z M 100.3925 7.12 C 101.568 7.12 102.5298 8.0209 102.6297 9.1695 L 103.7263 9.1495 C 103.6714 8.3056 103.3019 7.5415 102.7336 6.9871 C 102.4389 7.095 102.1004 7.08 101.8097 6.9092 C 101.5181 6.7414 101.3373 6.4578 101.2864 6.1502 C 101.0017 6.0723 100.7031 6.0303 100.3925 6.0303 C 99.8632 6.0303 99.3618 6.1542 98.9144 6.3739 L 99.4487 7.3307 C 99.7353 7.1959 100.0579 7.121 100.3925 7.121 L 100.3925 7.12 Z M 100.3925 11.6116 C 100.0569 11.6116 99.7353 11.5357 99.4487 11.4018 L 98.9144 12.3587 C 99.3608 12.5784 99.8632 12.7022 100.3925 12.7022 C 100.7041 12.7022 101.0017 12.6623 101.2864 12.5824 C 101.3363 12.2728 101.5181 11.9881 101.8097 11.8213 C 102.1034 11.6535 102.4389 11.6355 102.7336 11.7484 C 103.3029 11.1861 103.6704 10.426 103.7263 9.581 L 102.6297 9.565 C 102.5298 10.7106 101.568 11.6106 100.3925 11.6106 L 100.3925 11.6116 Z M 101.9665 6.6416 C 102.3341 6.8543 102.8035 6.7295 103.0152 6.3599 C 103.23 5.9933 103.1031 5.5209 102.7356 5.3092 C 102.37 5.0994 101.8996 5.2243 101.6869 5.5918 C 101.4742 5.9584 101.601 6.4288 101.9665 6.6406 L 101.9665 6.6416 Z M 12.791 26.149 C 12.1418 26.3108 11.2829 26.4856 10.2172 26.6664 C 9.1506 26.8501 7.9161 26.942 6.5179 26.942 C 5.2974 26.942 4.2737 26.7642 3.4397 26.4087 C 2.6077 26.0541 1.9386 25.5517 1.4322 24.9005 C 0.9228 24.2513 0.5583 23.4842 0.3356 22.6033 C 0.1099 21.7154 0 20.7385 0 19.6598 L 0 10.7686 L 2.8315 10.7686 L 2.8315 19.0516 C 2.8315 20.9822 3.1351 22.3636 3.7463 23.1946 C 4.3556 24.0276 5.3813 24.4431 6.8225 24.4431 C 7.1261 24.4431 7.4417 24.4331 7.7663 24.4111 C 8.0919 24.3911 8.3975 24.3661 8.6792 24.3362 C 8.9628 24.3062 9.2225 24.2763 9.4562 24.2463 C 9.6899 24.2143 9.8557 24.1814 9.9596 24.1384 L 9.9596 10.7686 L 12.791 10.7686 L 12.791 26.15 L 12.791 26.149 Z M 19.7034 11.4677 C 20.0499 11.246 20.5723 11.0103 21.2734 10.7686 C 21.9725 10.5259 22.7785 10.402 23.6944 10.402 C 24.83 10.402 25.8397 10.6078 26.7236 11.0113 C 27.6085 11.4168 28.3536 11.9871 28.9638 12.7192 C 29.57 13.4483 30.0325 14.3213 30.3471 15.3361 C 30.6637 16.3518 30.8205 17.4695 30.8205 18.688 C 30.8205 19.9665 30.6327 21.1181 30.2552 22.1438 C 29.8787 23.1686 29.3463 24.0365 28.6572 24.7467 C 27.966 25.4598 27.1351 26.0052 26.1583 26.3917 C 25.1865 26.7782 24.0909 26.971 22.8694 26.971 C 21.5491 26.971 20.3825 26.8781 19.3668 26.6953 C 18.3521 26.5126 17.5191 26.3288 16.8699 26.146 L 16.8699 3.4594 L 19.7024 2.972 L 19.7024 11.4677 L 19.7004 11.4677 L 19.7034 11.4677 Z M 20.9079 24.3661 C 21.4242 24.4391 22.0664 24.473 22.8404 24.473 C 24.3605 24.473 25.582 23.9686 26.4939 22.9648 C 27.4077 21.9591 27.8652 20.5328 27.8652 18.686 C 27.8652 17.874 27.7853 17.1129 27.6215 16.4008 C 27.4587 15.6896 27.194 15.0764 26.8295 14.558 C 26.4639 14.0386 25.9905 13.6361 25.4152 13.3395 C 24.834 13.0438 24.1388 12.897 23.3278 12.897 C 22.5548 12.897 21.8457 13.0298 21.1955 13.2915 C 20.5463 13.5582 20.0469 13.8309 19.7024 14.1155 L 19.7024 24.1354 C 19.988 24.2203 20.3885 24.2962 20.9079 24.3661 Z M 46.6257 26.149 C 45.9765 26.3108 45.1176 26.4856 44.0529 26.6664 C 42.9873 26.8501 41.7528 26.942 40.3506 26.942 C 39.1341 26.942 38.1084 26.7642 37.2764 26.4087 C 36.4444 26.0541 35.7743 25.5517 35.2689 24.9005 C 34.7576 24.2513 34.394 23.4842 34.1703 22.6033 C 33.9476 21.7173 33.8367 20.7395 33.8367 19.6618 L 33.8367 10.7706 L 36.6682 10.7706 L 36.6682 19.0536 C 36.6682 20.9842 36.9718 22.3656 37.581 23.1966 C 38.1903 24.0296 39.215 24.4451 40.6572 24.4451 C 40.9618 24.4451 41.2784 24.4351 41.603 24.4131 C 41.9276 24.3931 42.2322 24.3681 42.5169 24.3382 C 42.7995 24.3082 43.0592 24.2783 43.2939 24.2483 C 43.5256 24.2153 43.6934 24.1824 43.7963 24.1384 L 43.7963 10.7706 L 46.6287 10.7706 L 46.6287 26.152 L 46.6267 26.152 L 46.6257 26.149 Z M 50.7066 11.226 C 51.3558 11.0622 52.2177 10.8914 53.2954 10.7067 C 54.371 10.5269 55.6085 10.434 57.0107 10.434 C 58.2712 10.434 59.3149 10.6118 60.1468 10.9663 C 60.9808 11.3219 61.6449 11.8183 62.1423 12.4585 C 62.6397 13.0978 62.9913 13.8648 63.194 14.7558 C 63.3958 15.6527 63.4976 16.6355 63.4976 17.7122 L 63.4976 26.6054 L 60.6642 26.6054 L 60.6642 18.3215 C 60.6642 17.3456 60.5983 16.5136 60.4674 15.8245 C 60.3356 15.1313 60.1179 14.576 59.8122 14.1495 C 59.5096 13.72 59.1011 13.4124 58.5938 13.2206 C 58.0874 13.0239 57.4552 12.929 56.7061 12.929 C 56.4015 12.929 56.0869 12.942 55.7643 12.9619 C 55.4387 12.9819 55.1281 13.0079 54.8355 13.0378 C 54.5358 13.0678 54.2762 13.1038 54.0414 13.1437 C 53.8057 13.1837 53.6389 13.2156 53.5381 13.2336 L 53.5381 26.6044 L 50.7066 26.6044 L 50.7066 11.226 Z M 70.0444 10.7686 L 76.0449 10.7686 L 76.0449 13.1437 L 70.0444 13.1437 L 70.0444 20.4549 C 70.0444 21.2439 70.1064 21.9031 70.2292 22.4175 C 70.3491 22.9369 70.5328 23.3444 70.7765 23.638 C 71.0202 23.9297 71.3258 24.1374 71.6894 24.2623 C 72.0549 24.3841 72.4814 24.4441 72.9678 24.4441 C 73.8397 24.4441 74.5298 24.3472 75.0402 24.1544 C 75.5466 23.9606 75.8921 23.8248 76.0739 23.7419 L 76.6831 26.0591 C 76.3995 26.2009 75.8961 26.3827 75.175 26.6054 C 74.4559 26.8302 73.6389 26.943 72.7251 26.943 C 71.6484 26.943 70.7595 26.8062 70.0584 26.5305 C 69.3593 26.2549 68.796 25.8454 68.3705 25.297 C 67.9431 24.7497 67.6434 24.0745 67.4717 23.2725 C 67.2979 22.4684 67.212 21.5406 67.212 20.4858 L 67.212 6.3519 L 70.0424 5.8625 L 70.0424 10.7706 L 70.0444 10.7706 L 70.0444 10.7686 Z M 91.4557 26.149 C 90.8035 26.3108 89.9476 26.4856 88.8789 26.6664 C 87.8142 26.8501 86.5818 26.942 85.1835 26.942 C 83.963 26.942 82.9393 26.7642 82.1074 26.4087 C 81.2714 26.0541 80.6022 25.5517 80.0959 24.9005 C 79.5865 24.2513 79.224 23.4842 78.9973 22.6033 C 78.7775 21.7173 78.6627 20.7395 78.6627 19.6618 L 78.6627 10.7706 L 81.4991 10.7706 L 81.4991 19.0536 C 81.4991 20.9842 81.8027 22.3656 82.411 23.1966 C 83.0202 24.0296 84.0459 24.4451 85.4871 24.4451 C 85.7918 24.4451 86.1064 24.4351 86.432 24.4131 C 86.7536 24.3931 87.0592 24.3681 87.3438 24.3382 C 87.6275 24.3082 87.8891 24.2783 88.1198 24.2483 C 88.3536 24.2153 88.5223 24.1824 88.6242 24.1384 L 88.6242 10.7706 L 91.4577 10.7706 L 91.4577 26.152 L 91.4557 26.152 L 91.4557 26.149 Z" fill="#000000" fill-rule="nonzero">
</path>
</g>
</svg>