<svg xmlns="http://www.w3.org/2000/svg" xmlns:xlink="http://www.w3.org/1999/xlink" version="1.1" id="Layer_1" x="0px" y="0px" viewBox="0 0 457.9 167.8" style="enable-background:new 0 0 457.9 167.8;" xml:space="preserve">
<style type="text/css">
	.st0{display:none;fill:#000000;}
	.st1{fill:#000000;}
</style>
<polygon id="H" class="st0" points="415.5,2.8 415.5,65.5 382.6,65.5 382.6,2.8 340.2,2.8 340.2,165.1 382.6,165.1 382.6,102.4   415.5,102.4 415.5,165.1 457.9,165.1 457.9,2.8 "/>
<path id="C" class="st1" d="M454.3,53.8c-10.5-10.1-26.2-17.2-45.8-17.2c-27.9,0-43.9,19.7-43.9,47.3c0,28.7,18.2,47.3,45.6,47.3  c20.2,0,32.7-5.7,47.6-16.9v41.5c-16.5,9.6-32.2,12-49.5,12c-53.2,0-87.1-34.7-87.1-83.9c0-49.4,34.7-83.9,87.1-83.9  c17.4,0,32.5,2.7,46.1,10.4v43.4H454.3z"/>
<path id="K" class="st1" d="M269.7,2.8h49l-54.4,78.7l58.1,83.6h-49.8l-54.4-80.3L269.7,2.8z M174.9,2.8h42.4v162.3h-42.4L174.9,2.8  L174.9,2.8z"/>
<path id="U" class="st1" d="M0,2.8h42.4v95c0,26.8,11.4,36.1,30.5,36.1c11.7,0,19.1-1.1,26.8-2.2V2.8h42.4v156.5  c-14.5,4.4-47.6,8.5-69.2,8.5C34.2,167.8,0,153,0,106.9L0,2.8z"/>
</svg>